<svg xmlns="http://www.w3.org/2000/svg" width="1200" height="600">
<title>Bezalkogol</title>
<path id="12" style="fill:rgb(213,0,0);stroke:black;stroke-width:0.8" d="m90.8 416.1l17.5-20.7q0.7-0.8 1.1-1.5 0.5-0.8 0.5-1.7 0-0.9-0.6-1.6-0.5-0.8-2.4-0.8h-2.9v-2.3h22.1v2.3q-2.8 0-4.8 0.5-2 0.4-3.7 1.4-1.6 0.8-3 2.2-1.4 1.2-2.8 2.9l-10.3 11.9 20.1 31.8q1.3 2.1 2.5 3.1 1.2 1 3.2 1.1v2.3h-25.4v-2.3h1.9q1.2 0 2.1-0.3 1-0.4 1-1.7 0-0.5-0.6-1.7-0.6-1.1-0.9-1.6l-12.7-20.6-1.9 2.1v18.5q0 1.7 0.5 2.8 0.5 1 1.2 1.6 0.8 0.5 1.6 0.7 0.9 0.2 1.7 0.2h2.2v2.3h-28v-2.3h2.7q0.7 0 1.5-0.2 0.9-0.2 1.6-0.7 0.8-0.6 1.3-1.6 0.5-1.1 0.5-2.8v-44.4q0-1.7-0.5-2.7-0.5-1-1.3-1.5-0.7-0.6-1.6-0.8-0.8-0.2-1.5-0.2h-2.7v-2.3h28.5v2.3h-2.7q-0.8 0-1.7 0.2-0.8 0.2-1.6 0.8-0.7 0.5-1.2 1.5-0.5 1-0.5 2.7zm40.4 1.1q0-6.7 2.2-12.3 2.1-5.7 6-9.9 4-4.2 9.5-6.5 5.6-2.3 12.4-2.3 6.8 0 12.4 2.3 5.5 2.3 9.4 6.5 3.9 4.2 6 9.9 2.2 5.6 2.2 12.3 0 6.6-2.2 12.3-2.1 5.6-6 9.8-3.9 4.1-9.4 6.5-5.6 2.3-12.4 2.3-6.8 0-12.4-2.3-5.5-2.4-9.5-6.5-3.9-4.2-6-9.8-2.2-5.7-2.2-12.3zm14.8 0q0 4.2 0.5 8.9 0.6 4.8 2.2 8.8 1.7 4 4.6 6.8 3.1 2.6 8 2.6 4.9 0 7.9-2.6 3-2.8 4.6-6.8 1.6-4 2.2-8.8 0.6-4.7 0.6-8.9 0-4.2-0.6-8.9-0.6-4.9-2.2-8.9-1.6-4-4.6-6.6-3-2.7-7.9-2.7-4.9 0-8 2.7-2.9 2.6-4.6 6.6-1.6 4-2.2 8.9-0.5 4.7-0.5 8.9zm53.2-29.8h24.2l13.6 36.9 13.6-36.9h23.7v2.3h-2.7q-0.7 0-1.6 0.3-0.9 0.2-1.6 0.8-0.7 0.5-1.2 1.5-0.5 0.9-0.5 2.6v44.5q0 1.7 0.5 2.7 0.5 1 1.2 1.6 0.7 0.5 1.6 0.8 0.9 0.1 1.6 0.1h2.7v2.3h-28.6v-2.3h2.8q0.7 0 1.6-0.1 0.9-0.3 1.6-0.8 0.8-0.6 1.3-1.6 0.5-1 0.5-2.7v-46.9h-0.9l-20.1 54.4h-1.6l-19.2-54.4h-0.8v46.9q0 1.7 0.5 2.7 0.5 1 1.2 1.6 0.8 0.5 1.6 0.8 0.9 0.1 1.6 0.1h2.7v2.3h-19.3v-2.3h2.8q0.6 0 1.5-0.1 0.9-0.3 1.6-0.8 0.8-0.6 1.3-1.6 0.5-1 0.5-2.7v-44.5q0-1.7-0.5-2.6-0.5-1-1.3-1.5-0.7-0.6-1.6-0.8-0.9-0.3-1.5-0.3h-2.8zm84.8 0h24.1l13.6 36.9 13.6-36.9h23.7v2.3h-2.7q-0.7 0-1.6 0.3-0.8 0.2-1.6 0.7-0.7 0.6-1.2 1.6-0.5 0.9-0.5 2.6v44.5q0 1.7 0.5 2.7 0.5 1 1.2 1.6 0.8 0.5 1.6 0.8 0.9 0.1 1.6 0.1h2.7v2.3h-28.5v-2.3h2.7q0.8 0 1.6-0.1 1-0.3 1.6-0.8 0.8-0.6 1.3-1.6 0.5-1 0.5-2.7v-46.9h-0.8l-20.2 54.4h-1.6l-19.2-54.4h-0.8v46.9q0 1.7 0.5 2.7 0.6 1 1.2 1.6 0.8 0.5 1.7 0.8 0.9 0.1 1.6 0.1h2.7v2.3h-19.3v-2.3h2.7q0.7 0 1.5-0.1 1-0.3 1.7-0.8 0.7-0.6 1.2-1.6 0.5-1 0.5-2.7v-44.5q0-1.7-0.5-2.6-0.5-1-1.2-1.6-0.7-0.5-1.7-0.7-0.8-0.3-1.5-0.3h-2.7zm80.5 0h27.8v2.3h-5.1q-0.7 0-1.3 0.4-0.5 0.5-0.5 1.2 0 0.8 0.3 1.4 0.4 0.5 0.7 1.1l15.5 27.5 11.9-26q0.2-0.6 0.5-1.3 0.3-0.9 0.3-1.6 0-1-0.6-1.5-0.4-0.6-1-0.8-0.6-0.3-1.3-0.3-0.5-0.1-1-0.1h-4.5v-2.3h19.5v2.3h-0.9q-2.9 0-4 1.5-1.1 1.4-2.3 3.7l-19.8 42.2q-0.7 1.5-1.7 3.5-0.9 1.8-2.5 3.5-1.5 1.7-3.9 2.9-2.4 1.1-5.9 1.1-2.7 0-4.7-0.7-1.9-0.6-3.2-1.7-1.3-1.2-1.9-2.7-0.5-1.4-0.5-2.9 0-1.6 0.5-2.7 0.6-1.2 1.5-1.9 0.8-0.7 1.9-1 1-0.3 2.1-0.3 2.3 0 3.6 1.4 1.5 1.4 1.7 3.4 0 0.5 0 1.2 0 0.7 0.2 1.3 0.2 0.6 0.7 1.1 0.5 0.4 1.4 0.4 1.5 0 3.3-1.3 1.7-1.4 3.4-5.6l-23.9-42.5q-0.4-0.5-0.9-1.2-0.4-0.7-1.2-1.3-0.6-0.7-1.6-1-0.9-0.4-2.1-0.4h-0.5zm86 25.9h22.4v-18.4q0-1.7-0.5-2.6-0.6-1.1-1.3-1.6-0.7-0.6-1.6-0.7-0.9-0.3-1.6-0.3h-2.7v-2.3h28.6v2.3h-2.7q-0.8 0-1.7 0.3-0.8 0.1-1.6 0.7-0.7 0.5-1.3 1.6-0.5 0.9-0.5 2.6v44.5q0 1.7 0.5 2.7 0.6 1 1.3 1.6 0.8 0.5 1.6 0.8 0.9 0.1 1.7 0.1h2.7v2.3h-28.6v-2.3h2.7q0.7 0 1.6-0.1 0.9-0.3 1.6-0.8 0.7-0.6 1.3-1.6 0.5-1 0.5-2.7v-22.1h-22.4v22.1q0 1.7 0.5 2.7 0.5 1 1.2 1.6 0.8 0.5 1.6 0.8 1 0.1 1.7 0.1h2.7v2.3h-28.5v-2.3h2.7q0.7 0 1.5-0.1 1-0.3 1.6-0.8 0.8-0.6 1.3-1.6 0.5-1 0.5-2.7v-44.5q0-1.7-0.5-2.6-0.5-1.1-1.3-1.6-0.6-0.6-1.6-0.7-0.8-0.3-1.5-0.3h-2.7v-2.3h28.5v2.3h-2.7q-0.7 0-1.7 0.3-0.8 0.1-1.6 0.7-0.7 0.5-1.2 1.6-0.5 0.9-0.5 2.6zm70 17.3l27.3-43.2h8.4v51.9q0 1.7 0.5 2.7 0.5 1.1 1.2 1.6 0.7 0.6 1.6 0.8 0.9 0.2 1.7 0.2h2.7v2.3h-28.6v-2.3h2.8q0.6 0 1.5-0.2 0.9-0.2 1.6-0.8 0.8-0.5 1.3-1.6 0.5-1 0.5-2.7v-35.8l-27.3 43.4h-8.3v-52q0-1.7-0.5-2.7-0.5-1-1.3-1.5-0.7-0.6-1.6-0.8-0.9-0.2-1.6-0.2h-2.7v-2.3h28.6v2.3h-2.7q-0.8 0-1.7 0.2-0.9 0.2-1.7 0.8-0.6 0.5-1.1 1.5-0.6 1-0.6 2.7zm101.3-44.6v20.3h-2.4q-0.6-3.4-2.1-6.3-1.6-2.9-3.8-5.1-2.2-2.1-5-3.3-2.7-1.2-5.8-1.2-3.4 0-6.6 1.3-3.2 1.4-5.8 4.5-2.4 3.2-4 8.3-1.5 5.1-1.5 12.6 0 12.6 4.9 19.4 4.8 6.8 13.8 6.8 3.4 0 6-1 2.7-1 4.8-2.8 2.2-1.8 3.9-4.1 1.7-2.3 3.2-4.9l2.6 1.4q-2.7 5.5-6 8.8-3.1 3.1-6.3 4.8-3.2 1.7-6.2 2.2-2.8 0.5-5.2 0.5-6.6 0-12.2-2.4-5.5-2.4-9.6-6.5-4-4.2-6.3-9.8-2.2-5.7-2.2-12.4 0-6.5 2.1-12.1 2.2-5.7 6.1-9.9 3.9-4.2 9.3-6.6 5.6-2.5 12.4-2.5 2.5 0 4.8 0.4 2.4 0.5 4.8 1.3 2.3 1 3.7 1.7 1.4 0.7 2.8 0.7 1.1 0 2-0.8 1-0.8 1.4-3.3zm37.5 5.1v48.1q0 1.7 0.5 2.7 0.5 1.1 1.2 1.7 0.8 0.5 1.6 0.7 0.9 0.2 1.6 0.2h3.3v2.3h-29.6v-2.3h3.2q0.8 0 1.6-0.2 0.9-0.2 1.6-0.7 0.7-0.6 1.2-1.7 0.6-1 0.6-2.7v-48.1h-2.5q-2 0-4.3 0.3-2.2 0.1-4.2 1.3-1.9 1.2-3.4 3.9-1.4 2.6-2.1 7.5h-2.3v-16.8h50.7v16.8h-2.3q-0.6-4.9-2-7.5-1.5-2.7-3.5-3.9-2-1.2-4.3-1.3-2.2-0.3-4.2-0.3zm44.6 39.5l27.3-43.3h8.3v51.9q0 1.7 0.5 2.7 0.5 1.1 1.2 1.7 0.8 0.5 1.6 0.7 1 0.2 1.7 0.2h2.7v2.3h-28.5v-2.3h2.7q0.7 0 1.5-0.2 1-0.2 1.6-0.7 0.8-0.6 1.3-1.7 0.5-1 0.5-2.7v-35.8l-27.3 43.4h-8.3v-52q0-1.7-0.5-2.7-0.5-1-1.3-1.5-0.7-0.6-1.6-0.8-0.8-0.2-1.5-0.2h-2.7v-2.3h28.5v2.3h-2.7q-0.8 0-1.7 0.2-0.8 0.2-1.6 0.8-0.7 0.5-1.2 1.5-0.5 1-0.5 2.7zm84.2 8.6v-19.8q-4.2 1.5-8 2.4-3.6 1-8.2 1-5.4 0-8.6-1.6-3.1-1.5-4.5-3.5-1.4-2.2-1.9-4.5-0.3-2.3-0.3-3.8v-14.6q0-1.7-0.5-2.6-0.5-1.1-1.3-1.6-0.7-0.6-1.6-0.7-0.9-0.3-1.6-0.3h-2.1v-2.3h27.2v2.3h-2q-0.7 0-1.6 0.3-0.9 0.1-1.6 0.7-0.7 0.5-1.2 1.6-0.5 0.9-0.5 2.6v13.7q0 1.2 0.1 2.9 0 1.7 0.8 3.2 0.8 1.4 2.5 2.5 1.7 1 4.9 1 2.4 0 5.1-0.8 2.8-0.8 4.9-1.7v-20.8q0-1.7-0.5-2.6-0.5-1.1-1.3-1.6-0.6-0.6-1.6-0.7-0.8-0.3-1.6-0.3h-1.9v-2.3h27.8v2.3h-2.8q-0.6 0-1.6 0.3-0.8 0.1-1.6 0.7-0.7 0.5-1.2 1.6-0.5 0.9-0.5 2.6v44.4q0 1.7 0.5 2.8 0.5 1 1.2 1.6 0.8 0.5 1.6 0.7 1 0.2 1.6 0.2h2.8v2.3h-29.7v-2.3h3.8q0.8 0 1.6-0.2 1-0.2 1.6-0.7 0.8-0.6 1.3-1.6 0.5-1.1 0.5-2.8zm74.6-51.9l0.8 16.8h-2.4q0-1.6-0.6-3.8-0.5-2.3-1.9-4.3-1.5-2.1-4.3-3.4-2.7-1.5-7.4-1.5h-11.4v23.4h4.6q2.4 0 4.4-2.2 1.9-2.3 2.2-7.9h2.4v24h-2.4q-0.1-2.8-0.7-4.7-0.6-2-1.5-3.2-1-1.1-2.1-1.7-1.2-0.5-2.3-0.5h-4.6v19.9q0 1.9 0.5 2.8 0.6 1 1.4 1.5 1 0.4 2.1 0.5 1.2 0 2.4 0h7.6q2.2 0 4.6-0.4 2.4-0.5 4.5-2 2.2-1.5 4.1-4.4 1.9-3 3.1-8h2.3l-3.1 18.6h-50.4v-2.3h2.8q0.6 0 1.5-0.2 0.9-0.2 1.6-0.7 0.8-0.6 1.3-1.6 0.5-1.1 0.5-2.8v-44.4q0-1.7-0.5-2.6-0.5-1.1-1.3-1.6-0.7-0.6-1.6-0.7-0.9-0.3-1.5-0.3h-2.8v-2.3zm63.9-1.3v20.3h-2.4q-0.6-3.4-2.1-6.2-1.6-3-3.8-5.1-2.2-2.2-5-3.4-2.7-1.2-5.8-1.2-3.4 0-6.6 1.3-3.2 1.4-5.8 4.5-2.4 3.2-4 8.3-1.5 5.1-1.5 12.6 0 12.6 4.8 19.4 4.9 6.8 13.9 6.8 3.4 0 6-1 2.7-1 4.8-2.8 2.2-1.8 3.9-4.1 1.7-2.3 3.2-4.9l2.6 1.4q-2.7 5.6-6 8.8-3.1 3.1-6.3 4.8-3.2 1.7-6.2 2.2-2.8 0.5-5.2 0.5-6.6 0-12.2-2.4-5.5-2.4-9.6-6.5-4-4.1-6.3-9.8-2.2-5.7-2.2-12.4 0-6.5 2.1-12.1 2.2-5.7 6.1-9.9 3.9-4.2 9.3-6.6 5.5-2.5 12.3-2.5 2.6 0 4.9 0.5 2.4 0.4 4.8 1.2 2.2 1 3.7 1.7 1.4 0.7 2.8 0.7 1.1 0 2-0.8 1-0.8 1.4-3.3zm28 30l17.6-20.8q0.6-0.8 1.1-1.5 0.5-0.8 0.5-1.7 0-0.9-0.6-1.6-0.5-0.8-2.4-0.8h-3v-2.3h22.1v2.3q-2.7 0-4.7 0.5-2.1 0.4-3.7 1.4-1.6 0.8-3.1 2.2-1.3 1.3-2.8 3l-10.2 11.9 20.1 31.7q1.3 2.1 2.5 3.1 1.2 1 3.1 1.1v2.3h-25.3v-2.3h1.9q1.1 0 2.1-0.3 0.9-0.4 0.9-1.6 0-0.6-0.6-1.7-0.5-1.1-0.8-1.7l-12.7-20.6-2 2.1v18.5q0 1.7 0.6 2.8 0.5 1 1.1 1.6 0.8 0.5 1.7 0.7 0.9 0.2 1.7 0.2h2.2v2.3h-28.1v-2.3h2.7q0.7 0 1.6-0.2 0.9-0.2 1.6-0.7 0.8-0.6 1.3-1.6 0.5-1.1 0.5-2.8v-44.4q0-1.7-0.5-2.6-0.5-1.1-1.3-1.6-0.7-0.6-1.6-0.7-0.9-0.3-1.6-0.3h-2.7v-2.3h28.6v2.3h-2.7q-0.8 0-1.7 0.3-0.9 0.1-1.7 0.7-0.6 0.5-1.1 1.6-0.6 0.9-0.6 2.6zm61.6 14.6l27.3-43.3h8.3v52q0 1.7 0.5 2.7 0.5 1 1.2 1.6 0.8 0.5 1.6 0.8 1 0.1 1.7 0.1h2.7v2.3h-28.5v-2.3h2.7q0.7 0 1.5-0.1 1-0.3 1.6-0.8 0.8-0.6 1.3-1.6 0.5-1 0.5-2.7v-35.8l-27.3 43.3h-8.3v-52q0-1.7-0.5-2.6-0.5-1-1.3-1.5-0.7-0.6-1.6-0.8-0.8-0.3-1.5-0.3h-2.7v-2.3h28.5v2.3h-2.7q-0.8 0-1.7 0.3-0.8 0.2-1.6 0.8-0.7 0.5-1.2 1.5-0.5 0.9-0.5 2.6zm69.8 0l27.3-43.2h8.3v51.9q0 1.7 0.5 2.7 0.5 1 1.2 1.6 0.8 0.5 1.6 0.8 0.9 0.2 1.7 0.2h2.7v2.3h-28.5v-2.3h2.7q0.7 0 1.5-0.2 0.9-0.3 1.6-0.8 0.8-0.6 1.3-1.6 0.5-1 0.5-2.7v-35.8l-27.3 43.4h-8.3v-52.1q0-1.7-0.5-2.6-0.5-1-1.3-1.5-0.7-0.6-1.6-0.8-0.9-0.2-1.5-0.2h-2.8v-2.3h28.6v2.3h-2.7q-0.8 0-1.7 0.2-0.9 0.2-1.6 0.8-0.7 0.5-1.2 1.5-0.5 0.9-0.5 2.6zm11.3-47.5q-2.1 0-4.4-0.4-2.2-0.5-4-1.4-1.9-0.9-3.2-2.3-1.3-1.4-1.3-3.4 0-1.9 1.2-2.9 1.2-1.1 2.8-1.1 1.9 0 2.9 1.1 1.1 1 1.1 2.3 0 0.6-0.1 1.1 0 0.5 0 1 0 0.4 0.1 1 0.3 0.5 0.8 1 0.6 0.5 1.5 1 1 0.3 2.6 0.3 1.6 0 2.5-0.3 1-0.5 1.6-1 0.6-0.5 0.7-1 0.3-0.6 0.3-1 0-0.5-0.1-1-0.1-0.5-0.1-1.1 0-1.3 1-2.3 1-1.1 3-1.1 1.6 0 2.7 1.1 1.2 1 1.2 2.9 0 2-1.3 3.4-1.2 1.4-3 2.3-1.9 0.9-4.2 1.4-2.2 0.4-4.3 0.4zm-870.5 106.3v16.8h-2.3q-0.6-4.8-2.7-7.5-2.1-2.6-4.5-3.8-2.4-1.2-4.6-1.4-2.2-0.3-3-0.3h-8.1v22q1.9-0.2 3.7-0.2 1.8-0.1 4.1-0.1 6.7 0 11.1 1.7 4.4 1.6 6.8 4.2 2.6 2.6 3.6 5.6 1 3.1 1 5.7 0 4.2-1.3 7.1-1.4 2.8-3.6 4.7-2.1 1.8-4.8 2.8-2.8 1.1-5.6 1.6-2.7 0.4-5.2 0.5-2.5 0.1-4.2 0.1h-26.3v-2.3h2.7q0.7 0 1.5-0.2 0.9-0.2 1.6-0.8 0.8-0.6 1.3-1.6 0.5-1 0.5-2.7v-44.4q0-1.7-0.5-2.7-0.5-1-1.3-1.5-0.7-0.6-1.6-0.8-0.8-0.2-1.5-0.2h-2.7v-2.3zm-25.3 29.9v20q0 0.7 0.1 1.8 0.2 1 0.7 1.9 0.5 0.9 1.5 1.5 1 0.5 2.8 0.5 1.5 0 3.5-0.5 1.9-0.6 3.6-2 1.7-1.4 2.9-3.9 1.1-2.5 1.1-6.3 0-4.2-1.2-6.7-1.3-2.7-3.3-4.1-1.9-1.4-4.2-2-2.2-0.5-4.2-0.5-1.6 0-3.3 0.3zm103.3-29.9l0.8 16.8h-2.3q-0.1-1.6-0.6-3.8-0.6-2.3-2-4.4-1.4-2-4.2-3.4-2.8-1.4-7.4-1.4h-11.5v23.4h4.6q2.4 0 4.4-2.2 1.9-2.3 2.2-7.9h2.4v24h-2.4q-0.1-2.8-0.7-4.7-0.6-2-1.5-3.2-0.9-1.2-2.1-1.7-1.1-0.5-2.3-0.5h-4.6v19.9q0 1.9 0.5 2.8 0.6 0.9 1.4 1.4 1 0.5 2.1 0.5 1.2 0 2.4 0h7.6q2.2 0 4.6-0.4 2.4-0.4 4.5-1.9 2.2-1.6 4.1-4.5 1.9-2.9 3.1-7.9h2.3l-3 18.6h-50.4v-2.3h2.7q0.7 0 1.5-0.2 0.9-0.2 1.6-0.8 0.8-0.6 1.3-1.6 0.5-1 0.5-2.7v-44.4q0-1.7-0.5-2.7-0.5-1-1.3-1.5-0.7-0.6-1.6-0.8-0.8-0.2-1.5-0.2h-2.7v-2.3zm56 55.2q1.2-0.1 2.6-0.5 1.5-0.5 2.6-1.9 1.2-1.3 1.9-3.9 0.8-2.5 0.8-6.7 0-1.8-0.5-3.4-0.5-1.7-1.4-3.2-0.8-1.5-1.8-2.4-0.9-0.9-1.8-1.9-2.2 0.7-5.1 1.2-2.9 0.5-5.7 0.5-3.2 0-5.5-1.2-2.2-1.4-2.2-3.9 0-2.8 2.2-4.4 2.3-1.6 5.5-1.6 2.8 0 3.8 0 1.1-0.1 1.2-0.1 2 0 4.5 1.1l1.6 0.7q1-1.6 1.5-3.1 0.8-2.3 0.8-6 0-0.7-0.2-2.5-0.2-1.9-1-3.8-0.9-1.9-2.6-3.4-1.7-1.5-6.4-1.5-5.7 0-8.4 3.6-2.7 3.6-3.3 9.8h-2.4v-18h2.4q0 1.6 0.5 2.3 0.6 0.7 1.2 0.8 0.6 0 0.9 0 0.6 0 1.3-0.1 0.7-0.3 1.5-0.5 1.2-0.5 2.3-1 1.1-0.4 2.2-0.7 1.1-0.4 2.4-0.5 1.3-0.3 3.1-0.3 4 0 7.3 1 3.4 1 5.8 2.8 2.5 1.8 3.8 4.6 1.3 2.7 1.3 6.3 0 3.2-0.9 5.7-1 2.5-3.1 4.2-2.1 1.7-3.5 2.5v0.7q2.5 0.4 4.6 2.1 2.2 1.7 3.8 3.9 1.6 2.2 2.4 4.4 1 2.3 1 4.1 0 5-2 8.5-1.9 3.6-4.8 5.9-2.9 2.2-6.6 3.3-3.5 1-7 1-2.6 0-4.5-0.5-1.9-0.5-3.4-1.1-1.3-0.7-2.3-1.3-1.1-0.6-2-1-2.5-0.8-4.5-0.8-1.2 0-2.3 0.2-1 0.2-2.2 0.5-0.6 0.2-1.4 0.8-0.6 0.5-1.4 1.2-0.8 0.6-1.4 1.3-0.6 0.6-1.1 1.1l-1.9-2.9q0.7-1.8 1.8-3.3 1.2-1.7 2.8-2.8 1.5-1.3 3.3-2 1.9-0.8 3.8-0.8 1.7 0 3.2 0.6 1.6 0.5 2.8 1.7 1.2 1.1 2 1.9 0.8 0.7 1.4 1.1 0.7 0.4 1.2 0.8 0.6 0.2 1.2 0.5 1 0.4 1.6 0.5 0.7 0 0.9 0 0.9 0 1.8-0.2zm-0.5-28q-1.6-1.4-3.7-1.9-2.1-0.5-4.1-0.5-0.6 0-1.3 0.1-0.7 0.1-1.4 0.3-0.7 0.2-1.2 0.8-0.4 0.5-0.4 1.4 0 1 0.9 1.8 1 0.8 3.7 0.8 1.9 0 4-0.4 2-0.6 3.5-2.4zm77.4 14.1h-19.5l-3.2 8.8q-0.2 0.5-0.5 1.6-0.3 1.1-0.3 1.9 0 2.2 2.1 2.9 2 0.7 4.7 0.7h0.4v2.3h-17.9v-2.3h0.5q1.2 0 2.2-0.4 1-0.3 1.7-1.1 0.9-0.7 1.7-2.1 0.7-1.4 1.5-3.5l19.1-51.4h3.7l23.5 54.6q0.5 1.3 1.5 2.6 1.1 1.3 3.3 1.3h0.2v2.3h-27.8v-2.3h2.4q3.3 0 4.4-0.9 1.1-0.8 1.1-2.4 0-0.5-0.1-1.1-0.2-0.6-0.4-1.1zm-10.3-24.8l-7.7 20.9h16.4zm57.2 43v-2.3h0.5q1.2 0 2.2-0.3 1-0.3 1.7-1.1 0.9-0.8 1.7-2.1 0.7-1.4 1.5-3.5l19.1-51.4h3.7l23.5 54.5q0.6 1.4 1.5 2.7 1.1 1.2 3.3 1.2h0.2v2.3h-27.9v-2.3h2.5q3.3 0 4.4-0.8 1.1-0.9 1.1-2.4 0-0.6-0.1-1.1-0.2-0.6-0.4-1.1l-14.6-35.3-12.4 33.7q-0.2 0.5-0.5 1.6-0.3 1.1-0.3 1.9 0 2.2 2.1 2.9 2 0.6 4.7 0.6h0.4v2.3zm103.6-30.8l17.5-20.8q0.7-0.8 1.1-1.5 0.5-0.8 0.5-1.7 0-0.8-0.6-1.6-0.5-0.8-2.4-0.8h-2.9v-2.3h22.1v2.3q-2.8 0-4.8 0.5-2 0.5-3.7 1.4-1.6 0.9-3 2.2-1.4 1.3-2.8 3l-10.3 11.9 20.1 31.7q1.3 2.1 2.5 3.1 1.2 1.1 3.2 1.1v2.3h-25.4v-2.3h1.9q1.2 0 2.1-0.3 1-0.3 1-1.6 0-0.6-0.6-1.7-0.6-1.1-0.9-1.6l-12.7-20.7-1.9 2.1v18.6q0 1.7 0.5 2.7 0.5 1 1.2 1.6 0.8 0.5 1.6 0.8 0.9 0.1 1.7 0.1h2.2v2.3h-28v-2.3h2.7q0.7 0 1.5-0.1 0.9-0.3 1.6-0.8 0.8-0.6 1.3-1.6 0.5-1 0.5-2.7v-44.5q0-1.7-0.5-2.6-0.5-1-1.3-1.5-0.7-0.6-1.6-0.8-0.8-0.3-1.5-0.3h-2.7v-2.3h28.5v2.3h-2.7q-0.8 0-1.7 0.3-0.8 0.2-1.6 0.8-0.7 0.5-1.2 1.5-0.5 0.9-0.5 2.6zm59.1 1.1q0-6.7 2.2-12.3 2.1-5.7 6-9.9 4-4.1 9.5-6.4 5.6-2.4 12.4-2.4 6.8 0 12.4 2.4 5.5 2.3 9.4 6.4 3.9 4.2 6 9.9 2.2 5.6 2.2 12.3 0 6.7-2.2 12.3-2.1 5.7-6 9.8-3.9 4.2-9.4 6.6-5.6 2.3-12.4 2.3-6.8 0-12.4-2.3-5.5-2.4-9.5-6.6-3.9-4.1-6-9.8-2.2-5.6-2.2-12.3zm14.8 0q0 4.2 0.5 8.9 0.6 4.8 2.2 8.9 1.7 4 4.6 6.7 3.1 2.6 8 2.6 4.9 0 7.9-2.6 3-2.7 4.6-6.7 1.6-4.1 2.2-8.9 0.6-4.7 0.6-8.9 0-4.1-0.6-8.9-0.6-4.8-2.2-8.8-1.6-4-4.6-6.7-3-2.7-7.9-2.7-4.9 0-8 2.7-2.9 2.7-4.6 6.7-1.6 4-2.2 8.8-0.5 4.8-0.5 8.9zm70.5-29.7h46.3v16.8h-2.3q-0.3-4.2-1.8-6.8-1.5-2.5-3.9-3.9-2.3-1.5-5.4-1.9-3.1-0.4-6.7-0.4h-5.4v48.1q0 1.9 0.7 3 0.7 1 1.5 1.5 0.9 0.5 1.7 0.7 0.8 0.1 1.1 0.1h3.9v2.3h-29.7v-2.3h2.7q0.4 0 1.1-0.1 0.8-0.2 1.6-0.7 0.9-0.5 1.6-1.5 0.7-1.1 0.7-3v-44.4q0-1.8-0.7-2.9-0.7-1.1-1.6-1.6-0.8-0.5-1.6-0.6-0.7-0.1-1.1-0.1h-2.7zm68.8 29.7q0-6.7 2.1-12.3 2.1-5.7 6-9.9 4-4.1 9.5-6.4 5.6-2.4 12.4-2.4 6.9 0 12.4 2.4 5.5 2.3 9.4 6.4 3.9 4.2 6.1 9.9 2.1 5.6 2.1 12.3 0 6.6-2.1 12.3-2.2 5.7-6.1 9.8-3.9 4.2-9.4 6.6-5.5 2.3-12.4 2.3-6.8 0-12.4-2.3-5.5-2.4-9.5-6.6-3.9-4.1-6-9.8-2.1-5.7-2.1-12.3zm14.7 0q0 4.2 0.5 8.9 0.6 4.8 2.2 8.9 1.7 4 4.7 6.7 3 2.6 7.9 2.6 4.9 0 7.9-2.6 3-2.7 4.7-6.7 1.6-4.1 2.2-8.9 0.6-4.7 0.6-8.9 0-4.1-0.6-8.9-0.6-4.9-2.2-8.8-1.7-4-4.7-6.7-3-2.7-7.9-2.7-4.9 0-7.9 2.7-3 2.7-4.7 6.7-1.6 3.9-2.2 8.8-0.5 4.8-0.5 8.9zm68.8 29.8v-2.3h0.5q1.2 0 2.2-0.4 1-0.3 1.7-1.1 0.9-0.7 1.7-2.1 0.7-1.4 1.5-3.5l19.1-51.4h3.7l23.5 54.6q0.6 1.3 1.5 2.6 1.1 1.3 3.3 1.3h0.2v2.3h-27.9v-2.3h2.5q3.3 0 4.4-0.9 1.1-0.8 1.1-2.4 0-0.6-0.1-1.1-0.2-0.6-0.4-1.1l-14.6-35.2-12.4 33.6q-0.2 0.5-0.5 1.6-0.3 1.1-0.3 1.9 0 2.2 2.1 2.9 2 0.7 4.7 0.7h0.4v2.3zm82.8 0v-2.3h2.7q0.7 0 1.5-0.2 0.9-0.3 1.6-0.8 0.8-0.6 1.3-1.6 0.5-1 0.5-2.7v-44.5q0-1.7-0.5-2.6-0.5-1-1.3-1.5-0.7-0.6-1.6-0.8-0.8-0.2-1.5-0.2h-2.7v-2.3h28.5v2.3h-2.7q-0.8 0-1.7 0.2-0.8 0.2-1.6 0.8-0.7 0.5-1.2 1.5-0.5 0.9-0.5 2.6v18.4q1.9-0.2 3.7-0.2 1.8-0.1 4.1-0.1 6.7 0 11.1 1.7 4.4 1.6 6.8 4.2 2.6 2.6 3.6 5.6 1 3.1 1 5.7 0 4.2-1.3 7.1-1.4 2.8-3.6 4.7-2.1 1.8-4.8 2.8-2.8 1.1-5.6 1.6-2.7 0.4-5.2 0.5-2.5 0.1-4.2 0.1zm20.8-29.6v20q0 0.7 0.1 1.7 0.2 1.1 0.7 2 0.5 0.9 1.5 1.4 1 0.6 2.8 0.6 1.6 0 3.5-0.6 2-0.5 3.6-1.9 1.7-1.5 2.9-3.9 1.2-2.5 1.2-6.3 0-3.8-1.2-6.4-1.1-2.5-3-4.1-1.8-1.5-4.2-2.1-2.3-0.7-4.6-0.7-1.6 0-3.3 0.3z"/>
</svg>