<svg version="1.2" xmlns="http://www.w3.org/2000/svg" width="1200" height="600">
	<style>
		.s0 { fill: rgb(98,34,164) }
		.s1 { fill: rgb(200,0,0);stroke:white;stroke-width:0.8 } 
	</style>
	<rect width="1200" height="600" class="s0"/>
	<path id="Text" class="s1" d="m146.3 409v-4.2h8.3c0-2.1 0-40.8 0-43.1q0.1-3.4 0.3-8.7 1.3-3.3 3.6-6.1 2.4-2.8 5.5-4.9 3.1-2.1 6.9-3.2 3.8-1.2 8.1-1.2 5.6 0 10.2 1.4 4.7 1.4 8 4 3.4 2.6 5.2 6.3 1.9 3.7 1.9 8.3 0 3.7-1.1 7.2-1.1 3.5-3.3 6.2-2.2 2.7-5.4 4.4-3.1 1.6-7.1 1.6-1.7 0-3-0.2-1.2-0.3-2.3-0.8-1.1-0.5-2.3-1.2-1.2-0.7-2.8-1.5l-6.9 9v22.5h8.3v4.2zm23.8-32.7l6.4-8.1q0.8 0.6 1.9 1.2 1.1 0.5 1.8 0.5 0.9 0 2-0.5 1.2-0.5 2.2-1.8 1-1.4 1.6-3.8 0.7-2.5 0.7-6.4 0-2.7-0.3-5.4-0.2-2.8-1.1-5-0.9-2.3-2.6-3.7-1.6-1.5-4.4-1.5-2.9 0-4.6 1.6-1.6 1.5-2.4 4.3-0.8 2.7-1 6.6-0.2 3.9-0.2 8.5zm122.9 1.9h-24.8v-4.2h3.7q-1.1-3.4-3.1-4.7-2-1.3-3.2-1.3-2.7 0-5.9 1-3.1 1-5.4 3.6 0.7 4.5 1.3 7.5 0.7 3 1.3 5.2 0.6 2.2 1.1 3.8 0.5 1.6 0.9 3.2 0.4 1.5 0.6 3.4 0.2 1.8 0.2 4.5 0 1.8-0.3 3.1-0.3 1.3-0.7 2.2 1.4 0.7 3.7 0.7 5.2 0 8.6-1.7 3.4-1.7 5.5-4.1 2.1-2.4 3.1-4.9 1-2.6 1.4-4.3h-5v-4.1h26.2v4.1h-3.7q-2.4 4.3-5.7 7.9-3.3 3.5-7.2 6-3.8 2.5-8 3.9-4.2 1.4-8.3 1.4-1.9 0-4.1-0.1-2.2-0.1-4.5-0.3-2.2-0.3-4.3-0.6-2-0.4-3.5-0.9 0.1-0.6 0.1-1.2 0.1-0.6 0.1-1.2 0-4.3-2-7.5-2-3.3-4.1-5.9-3.3-4-5.4-7-2.1-3-3.3-5.5-1.2-2.5-1.7-4.9-0.4-2.5-0.4-5.5 0-6.8 1.7-11.8 1.8-5 4.6-8.6 2.8-3.6 6.4-5.9 3.7-2.3 7.5-3.6 3.8-1.3 7.4-1.8 3.7-0.5 6.6-0.5 3.6 0 7.6 0.7 4.1 0.7 7.9 2.5 3.9 1.7 7.1 4.8 3.3 3 5.1 7.7h4.8v4.2h-24.8v-4.2h3.1q-0.3-1.9-1.2-3.9-0.9-2.1-2.5-3.8-1.6-1.7-3.9-2.7-2.3-1.1-5.6-1.1-4.9 0-7.7 2.8-2.8 2.7-4.3 6.6-1.4 3.8-1.8 8-0.4 4.2-0.4 7.1 0 0.6 0 1.2 0.1 0.6 0.2 1.2 3.2-2.8 7.3-4.5 4.1-1.8 9.4-1.8 2.5 0 5.2 0.7 2.7 0.6 5.2 2 2.6 1.4 4.6 3.6 2.1 2.2 3.2 5.3h4.1zm80.6 3.4h-4.3v-4.2h26.2v4.2h-4.1q-0.3 7.2-3.9 12.7-3.5 5.5-8.6 9.3-5.1 3.7-10.9 5.7-5.7 1.9-10.5 1.9-2.9 0-4.4-0.3-1.5-0.3-2.9-0.9v-2.8q0-2.8-1-5.3-0.9-2.5-2.4-4.8-1.4-2.3-3.1-4.3-1.6-2.1-3.1-4.1-2.6-3.5-4.1-6.4-1.5-2.9-2.3-5.3-0.7-2.5-0.9-4.5-0.1-2.1-0.1-3.9 0-6.6 2.2-12.3 2.2-5.7 6.2-9.8 4.1-4.2 9.7-6.5 5.7-2.4 12.5-2.4 7.6 0 12.6 2.3 5.1 2.2 8.2 5.5 3.2 3.3 4.7 7.2 1.6 3.8 2.1 7h4.1v4.2h-26.2v-4.2h4.3q0-5.9-1.1-9.4-1-3.5-2.6-5.4-1.6-1.9-3.5-2.4-1.9-0.6-3.6-0.6-2.3 0-4.5 1.1-2.2 1.1-3.9 3.6-1.6 2.5-2.6 6.6-1 4.1-1 10.2 0 6.7 1 12.6 1.1 5.8 2.6 12 1.2 5 1.7 8.4 0.5 3.3 0.5 6.1 0 1.4-0.4 2.7-0.3 1.3-0.8 2.9 0.7 0.6 2.4 0.6 2.3 0 5.1-1.9 2.8-1.9 5.2-5.1 2.4-3.3 4-7.7 1.6-4.5 1.6-9.6v-1.4q0-0.6-0.1-1.3zm51.9 27.4v-4.2h8.3v-61.6h-8.3v-4.2h69.7v4.2h-8.3v61.6h8.3v4.2h-30.7v-4.2h6.9v-61.6h-22.1v61.6h6.9v4.2zm128.1 0h-9.1l-15.9-65.8h-4.1v-4.2h26.9v4.2h-6.9l12.5 53.3q2.5-11.7 4.4-19.8 1.9-8.1 3.3-13.4 1.4-5.3 2.2-8.1 0.9-2.9 1.3-4.2 0.8-2.4 1.8-4.8 1-2.4 2.5-4.3 1.5-1.9 3.5-3.1 2.1-1.2 5.1-1.2 0.9 0 2.2 0.2 1.3 0.2 2.6 0.6 1.3 0.3 2.3 0.9 1.1 0.5 1.5 1.1-0.3 2-0.7 2.7-0.3 0.6-0.6 1.4-0.3 0.8-0.6 2.4-0.2 1.5-0.2 5.2v2h-1.5q-1.8-0.9-3.2-1.6-1.3-0.8-2.7-0.8-2.5 0-4.3 1.4-1.7 1.4-2.9 3.6-1.2 2.2-2.1 4.9-0.9 2.7-1.6 5.3-2.1 7.4-3.6 13.1-1.5 5.6-2.6 10.1-1 4.5-1.7 8.1-0.6 3.5-1.2 6.6h5v4.2h-5.2q-0.4 3.6-0.5 6.3 0 2.6 0 4.9 0 3.2 0.2 5.4 0.2 2.1 0.5 3.5 0.3 1.4 0.5 2.3 0.2 0.8 0.2 1.4 0 0.4-0.2 1.2l-9.3 0.7q0-3.8 0.1-6.9 0.2-3.2 0.5-6.1 0.3-3 0.7-6 0.4-3.1 0.9-6.7zm63.3 0v-4.2h8.3v-61.6h-8.3v-4.2h35.7q4.5 0 6.8-0.2 2.4-0.3 3.7-0.6 1.3-0.4 2-0.6 0.8-0.3 2.2-0.3 1.7 0 2.5 1.2 0.8 1.1 0.8 2.7 0 1.6-1.1 3.7-1 2.1-1.8 5-0.5 1.8-0.6 2.7-0.1 0.9-0.2 1.6-0.1 0.7-0.2 1.6 0 0.8-0.3 2.6-0.2 0.9-0.8 1.6-0.5 0.6-1.7 0.6-1.3 0-1.8-0.6-0.5-0.7-0.8-1.5-1-3-1.8-5.7-0.7-2.8-2.3-4.9-1.6-2.1-4.5-3.4-2.9-1.3-8.2-1.3h-3.8v25.1q1.8 1.7 4.5 3.2 2.8 1.4 5.8 2.5 3 1 6 1.6 3 0.6 5.4 0.6 1.1 0 2-0.1 1-0.1 2.1-0.1 1.5 0 2.6 0.1 1.2 0.1 2 0.7 0.9 0.6 1.3 2 0.5 1.3 0.5 3.7v19.5q0 2.4-0.4 3.8-0.3 1.3-1.1 2.1-0.7 0.7-1.9 0.9-1.2 0.2-2.9 0.2zm23.8-4.2h12.3q1 0 1.8-0.1 0.9-0.2 1.4-0.9 0.6-0.7 0.9-2 0.3-1.4 0.3-3.7v-11.3q0-1.2-0.1-1.9-0.1-0.7-0.7-1.4-0.5-0.7-1.8-1.5-1.2-0.8-3.5-2.1-3.5-2-6-3.6-2.4-1.6-4.6-4.2zm97.1 4.2v-4.2h6.5q-2.9-8.7-4.5-15.4-1.6-6.8-2.8-12.6-1.1-5.9-2.1-11.3-0.9-5.4-2.5-11.4-2.4 2.9-4.8 7.1-2.4 4.1-4.3 8.7-1.9 4.6-3.1 9.2-1.2 4.5-1.2 8.1 0 1.9 0.4 4.4 0.4 2.4 0.7 3.6 0.3 1.1 1.7 2.4 1.4 1.2 2.5 3.8 0.2 0.4 0.2 3.1v3.3q0 1.2-1.1 1.8-1.1 0.5-2.5 0.5-0.8 0-1.7-0.1-0.9-0.1-1.7-0.3-0.7-0.1-1.4-0.1-0.6-0.1-1.3-0.1-0.8 0-1.6 0.1-0.8 0-1.6 0.1-0.5 0.1-0.9 0.1h-0.9q-2.3 0-3.1-1.3-0.7-1.4-0.7-4 0-3.4 0.5-6.5 0.5-3.1 1.8-6.9 1.4-3.9 3.7-8.9 2.4-5.1 6.1-12.3 1.2-2.4 3.1-5.7 1.9-3.4 3.7-6.8 1.8-3.5 3-6.6 1.3-3.1 1.3-5.1 0-1.9-1.2-2.2-1.1-0.3-2.2-0.3h-6.9v-4.2h33v4.2h-6.1q0.7 5.1 1.4 9.3 0.7 4.1 1.4 7.8 0.8 3.7 1.6 7.2 0.8 3.4 1.7 7 1.2 4.9 2 8.4 0.9 3.4 1.5 5.9 0.7 2.4 1.1 4.1 0.5 1.7 0.9 3 0.4 1.4 0.7 2.5 0.4 1 0.7 2 0.3 0.9 0.5 2 0.3 1 0.6 2.4h7.3v4.2zm58 0v-4.2h8.3v-61.6h-8.3v-4.2h30.7v4.2h-6.9v37.7l22.1-27.1v-10.6h-6.9v-4.2h30.7v4.2h-8.3v61.6h8.3v4.2h-30.7v-4.2h6.9v-44.3l-22.1 27v17.3h6.9v4.2zm100.8 0v-4.2h8.3v-61.6h-8.3v-4.2h30.7v4.2h-6.9v26.7h3.7l1.4-2.8q0.9-1.8 2-4.6 1.2-2.9 2.7-6.2 1.5-3.3 3.4-6.6 1.9-3.3 4.2-6 2.3-2.7 5.1-4.4 2.8-1.7 6.2-1.7 2.6 0 4.8 0.5 2.3 0.5 4 1.3-0.8 2.2-1.4 3.7-0.6 1.5-0.9 3-0.3 1.4-0.4 2.7-0.1 1.3-0.1 2.5v1.8h-2q-1.4-0.5-2.5-0.9-1-0.5-1.9-0.8-0.9-0.4-1.9-0.6-1-0.2-2.3-0.2-2.4 0-4.3 1.3-1.8 1.3-3.7 3.9-1.8 2.6-3.8 6.4-2 3.8-4.5 8.8 0.5 0.1 0.8 0.2 0.4 0.1 0.9 0.2 1.9 0.5 4.5 1.3 2.7 0.7 5.5 2.1 2.9 1.4 5.7 3.7 2.9 2.3 5.2 5.9 2.3 3.6 3.7 8.6 1.5 5 1.6 11.8h6v4.2h-27.2v-4.2h3.9q0.2-2.6 0.2-4.9 0-6.3-1.5-11.5-1.4-5.3-4.2-8.7-2.8-3.5-6.3-4.8-3.5-1.4-6.6-1.5v31.4h6.2v4.2zm129.7 0v-4.2h7.6l-7.5-25.9q-1.2 5.7-3.6 11.3-2.3 5.6-5.5 10.1-3.1 4.5-6.9 7.3-3.7 2.8-7.7 2.8-4.7 0-8-3-3.2-3-3.2-9 0-4 1.2-8.4 1.3-4.4 3.3-8.8 2.1-4.5 4.6-8.8 2.5-4.3 5-8.2 1.9-3 3.7-5.4 1.8-2.5 3.2-4.7 1.5-2.3 2.3-4.6 0.9-2.3 0.9-5 0-0.7-0.1-1.3 0-0.7-0.1-1.4h-7.7v-4.2h31.1v4.2h-7.9l18.4 63h6.9v4.2zm-2.8-39.6l-4.5-15.9q-3.3 4.6-6.3 9.4-3 4.8-5.4 9.4-2.3 4.6-3.7 8.8-1.4 4.2-1.4 7.6 0 1.1 0.2 2.2 0.3 1.1 1 2 0.7 0.9 1.8 1.5 1.1 0.5 2.8 0.5 2.8 0 5.4-2.7 2.6-2.7 4.7-6.6 2.1-3.9 3.5-8.3 1.4-4.4 1.9-7.9zm-984.7 179.6v-4.9h9.7v-72.1h-9.7v-4.9h41.8q5.2 0 7.9-0.2 2.8-0.4 4.4-0.7 1.5-0.5 2.3-0.7 0.9-0.4 2.6-0.4 2 0 2.9 1.4 0.9 1.3 0.9 3.2 0 1.8-1.2 4.3-1.2 2.5-2.2 5.9-0.5 2.1-0.7 3.1-0.1 1.1-0.2 1.9-0.1 0.8-0.2 1.9 0 0.9-0.4 3-0.2 1.1-0.9 1.9-0.6 0.7-2 0.7-1.5 0-2.1-0.7-0.6-0.8-0.9-1.8-1.2-3.5-2.1-6.7-0.9-3.2-2.7-5.7-1.9-2.4-5.3-4-3.4-1.5-9.6-1.5h-4.4v29.4q2.1 2 5.2 3.7 3.3 1.7 6.8 3 3.5 1.1 7 1.8 3.5 0.7 6.3 0.7 1.3 0 2.4-0.1 1.2-0.1 2.4-0.1 1.8 0 3.1 0.1 1.4 0.1 2.3 0.8 1.1 0.7 1.5 2.4 0.6 1.5 0.6 4.3v22.8q0 2.8-0.4 4.5-0.4 1.5-1.3 2.4-0.8 0.8-2.2 1.1-1.5 0.2-3.4 0.2zm27.8-4.9h14.4q1.2 0 2.1-0.1 1.1-0.3 1.6-1.1 0.7-0.8 1.1-2.3 0.3-1.7 0.3-4.4v-13.2q0-1.4-0.1-2.2-0.1-0.8-0.8-1.6-0.6-0.9-2.1-1.8-1.4-0.9-4.1-2.4-4.1-2.4-7-4.3-2.8-1.8-5.4-4.9zm143.3-31.1h-29v-4.9h4.3q-1.2-4-3.6-5.5-2.3-1.5-3.7-1.5-3.2 0-6.9 1.1-3.7 1.2-6.3 4.3 0.8 5.2 1.5 8.7 0.8 3.5 1.5 6.1 0.7 2.6 1.3 4.5 0.6 1.8 1 3.7 0.5 1.8 0.7 4 0.3 2.1 0.3 5.2 0 2.2-0.4 3.7-0.3 1.5-0.8 2.5 1.6 0.9 4.3 0.9 6.1 0 10.1-2 4-2 6.4-4.8 2.5-2.8 3.7-5.8 1.1-3 1.6-5h-5.9v-4.8h30.7v4.8h-4.3q-2.8 5-6.7 9.3-3.9 4.1-8.4 7-4.5 2.9-9.4 4.5-4.9 1.7-9.7 1.7-2.2 0-4.8-0.1-2.6-0.2-5.3-0.4-2.5-0.3-5-0.7-2.3-0.5-4.1-1 0.1-0.7 0.1-1.4 0.1-0.8 0.1-1.5 0-5-2.3-8.7-2.3-3.9-4.8-6.9-3.9-4.7-6.3-8.2-2.5-3.5-3.9-6.5-1.4-2.9-2-5.7-0.4-2.9-0.4-6.4 0-8 2-13.8 2.1-5.9 5.3-10.1 3.3-4.2 7.5-6.9 4.4-2.7 8.8-4.2 4.5-1.5 8.7-2.1 4.3-0.6 7.7-0.6 4.2 0 8.9 0.8 4.8 0.8 9.2 2.9 4.6 2 8.3 5.7 3.9 3.5 6 9h5.6v4.9h-29v-4.9h3.6q-0.3-2.3-1.4-4.6-1-2.4-2.9-4.4-1.9-2-4.6-3.2-2.7-1.3-6.5-1.3-5.8 0-9 3.3-3.3 3.2-5.1 7.7-1.6 4.5-2.1 9.4-0.4 4.9-0.4 8.3 0 0.7 0 1.4 0.1 0.7 0.2 1.4 3.7-3.3 8.5-5.3 4.8-2.1 11-2.1 3 0 6.1 0.8 3.2 0.7 6.1 2.4 3 1.6 5.4 4.2 2.4 2.6 3.7 6.2h4.8zm94.3 4h-5v-4.9h30.7v4.9h-4.8q-0.4 8.4-4.6 14.8-4.1 6.5-10.1 10.9-5.9 4.3-12.7 6.7-6.7 2.2-12.3 2.2-3.4 0-5.2-0.3-1.7-0.4-3.3-1.1v-3.3q0-3.3-1.2-6.2-1.1-2.9-2.8-5.6-1.7-2.7-3.7-5-1.8-2.5-3.6-4.8-3-4.1-4.8-7.5-1.7-3.4-2.7-6.2-0.8-2.9-1-5.3-0.1-2.4-0.1-4.5 0-7.8 2.5-14.4 2.6-6.7 7.3-11.5 4.8-4.9 11.3-7.6 6.7-2.8 14.7-2.8 8.9 0 14.7 2.7 6 2.6 9.6 6.4 3.7 3.9 5.5 8.4 1.9 4.5 2.5 8.2h4.8v4.9h-30.7v-4.9h5q0-6.9-1.3-11-1.1-4.1-3-6.3-1.9-2.2-4.1-2.8-2.2-0.7-4.2-0.7-2.7 0-5.3 1.3-2.5 1.3-4.5 4.2-1.9 2.9-3.1 7.7-1.1 4.8-1.1 12 0 7.8 1.1 14.7 1.3 6.8 3.1 14 1.4 5.9 2 9.9 0.5 3.8 0.5 7.1 0 1.6-0.4 3.2-0.4 1.5-1 3.4 0.9 0.7 2.8 0.7 2.7 0 6-2.3 3.3-2.2 6.1-5.9 2.8-3.9 4.7-9 1.8-5.3 1.8-11.3v-1.6q0-0.7-0.1-1.5zm127.6-4h-29.1v-4.9h4.4q-1.3-4-3.7-5.5-2.3-1.5-3.7-1.5-3.2 0-6.9 1.1-3.6 1.2-6.3 4.2 0.8 5.3 1.5 8.8 0.8 3.5 1.5 6.1 0.7 2.6 1.3 4.4 0.6 1.9 1.1 3.8 0.4 1.7 0.7 4 0.2 2.1 0.2 5.2 0 2.1-0.4 3.7-0.3 1.5-0.8 2.5 1.7 0.9 4.4 0.9 6 0 10-2 4-2 6.5-4.8 2.4-2.8 3.6-5.8 1.2-3 1.6-5h-5.8v-4.8h30.6v4.8h-4.3q-2.8 5-6.7 9.2-3.8 4.1-8.4 7.1-4.4 2.9-9.4 4.5-4.9 1.7-9.7 1.7-2.2 0-4.8-0.2-2.5-0.1-5.2-0.3-2.6-0.4-5.1-0.7-2.3-0.5-4.1-1.1 0.2-0.7 0.2-1.4 0.1-0.7 0.1-1.4 0-5-2.4-8.7-2.3-3.9-4.8-6.9-3.8-4.7-6.3-8.2-2.4-3.5-3.8-6.5-1.4-2.9-2-5.7-0.5-2.9-0.5-6.4 0-8 2-13.8 2.1-5.9 5.4-10.1 3.3-4.2 7.5-6.9 4.3-2.7 8.7-4.2 4.5-1.5 8.7-2.1 4.3-0.6 7.7-0.6 4.2 0 8.9 0.8 4.8 0.8 9.3 2.9 4.5 2 8.3 5.6 3.8 3.6 5.9 9.1h5.6v4.9h-29v-4.9h3.7q-0.4-2.3-1.4-4.6-1.1-2.5-3-4.5-1.8-1.9-4.5-3.1-2.7-1.3-6.6-1.3-5.7 0-9 3.3-3.3 3.1-5 7.7-1.7 4.4-2.1 9.4-0.5 4.9-0.5 8.3 0 0.7 0 1.4 0.1 0.7 0.2 1.4 3.8-3.3 8.6-5.3 4.8-2.1 11-2.1 2.9 0 6.1 0.8 3.1 0.7 6 2.4 3.1 1.6 5.4 4.2 2.5 2.6 3.8 6.2h4.8zm45.9 36v-4.9h9.8c0-2.4 0-47.8 0-50.4q0.1-4 0.3-10.2 1.5-3.9 4.2-7.1 2.8-3.3 6.5-5.8 3.6-2.4 8-3.7 4.5-1.4 9.5-1.4 6.6 0 11.9 1.6 5.5 1.7 9.4 4.7 4 3 6.1 7.4 2.2 4.3 2.2 9.7 0 4.3-1.3 8.4-1.3 4.1-3.8 7.3-2.6 3.1-6.4 5.1-3.6 1.9-8.3 1.9-2 0-3.5-0.3-1.4-0.3-2.7-0.9-1.3-0.6-2.7-1.4-1.4-0.8-3.2-1.8l-8.1 10.6v26.3h9.7v4.9zm27.8-38.2l7.5-9.5q1 0.7 2.3 1.4 1.2 0.6 2.1 0.6 1 0 2.3-0.6 1.4-0.6 2.6-2.1 1.1-1.7 1.8-4.5 0.9-2.9 0.9-7.5 0-3.1-0.4-6.3-0.2-3.3-1.3-5.8-1-2.7-3-4.4-1.9-1.7-5.2-1.7-3.4 0-5.3 1.9-1.9 1.7-2.9 5-0.9 3.2-1.1 7.7-0.3 4.6-0.3 10zm117.2 38.2v-4.9h6l-11.5-61.8h-1.2q-6 11.5-9.7 20.5-3.6 8.9-3.6 19.3 0 4.9 0.5 9.5 0.7 4.4 1.1 9.9 0.1 0.8 0.1 1.7 0 0 0 0.1 0 0 0 0.1c0 0 0 0.2 0 0.2q0 0 0 0.2 0 0 0 0.1v1q0 2.6-0.3 3.5-0.3 0.9-1.4 1.4-1.1 0.5-2.6 0.5-1.1 0-2.1-0.1-1.1-0.1-2.1-0.4-0.8-0.1-1.6-0.1-0.7-0.1-1.5-0.1-0.9 0-1.8 0.1-1 0-1.9 0.1-0.6 0.2-1.3 0.3-0.7 0-1.3 0-0.9 0-1.6-0.3-0.7-0.3-1.3-1.1-0.5-1-0.8-2.6-0.3-1.8-0.3-4.5 0-5.3 1-9.8 0.9-4.5 2.5-8.6 1.7-4.1 3.9-8 2.3-3.9 5.2-7.7 3.1-4.5 6.3-8.6 3.2-4.2 5.8-8.1 2.7-4.1 4.3-8 1.7-4 1.7-8 0-0.7-0.1-1.4 0-0.7-0.1-1.4h-8.7v-4.9h33.5v4.9h-6.6l14.9 68.7 12.9-68.7h-5.1v-4.9h31.5v4.9h-7.6l15.6 72.1h8.1v4.9h-31.3v-4.9h5.1l-12-61.8h-1.2l-11.5 61.8h6.2v4.9zm-0.6-97.4q0-3.1 2.1-5.2 2.2-2.1 5.2-2.1 2.9 0 5 2.1 2.1 2.1 2.1 5.2 0 2.9-2.1 5-2.1 2.1-5 2.1-3 0-5.2-2.1-2.1-2.1-2.1-5zm28.5 0q0-3.1 2.1-5.2 2.1-2.1 5.1-2.1 3 0 5.1 2.1 2.1 2.1 2.1 5.2 0 2.9-2.1 5-2.1 2.1-5.1 2.1-3 0-5.1-2.1-2.1-2.1-2.1-5zm152.3 61.4h-29v-4.9h4.3q-1.3-4-3.6-5.5-2.3-1.6-3.8-1.6-3.1 0-6.9 1.2-3.6 1.2-6.3 4.2 0.8 5.3 1.5 8.8 0.9 3.5 1.6 6.1 0.7 2.6 1.3 4.4 0.5 1.9 1 3.8 0.5 1.7 0.7 4 0.2 2.1 0.2 5.2 0 2.1-0.3 3.6-0.4 1.6-0.8 2.6 1.6 0.8 4.3 0.8 6.1 0 10.1-1.9 3.9-2 6.4-4.8 2.5-2.9 3.6-5.8 1.2-3 1.7-5h-5.9v-4.8h30.7v4.8h-4.4q-2.8 5-6.6 9.2-3.9 4.1-8.5 7.1-4.4 2.9-9.3 4.5-4.9 1.7-9.7 1.7-2.2 0-4.8-0.2-2.6-0.1-5.3-0.3-2.6-0.4-5-0.7-2.4-0.5-4.1-1.1 0.1-0.7 0.1-1.4 0.1-0.7 0.1-1.4 0-5-2.3-8.7-2.4-3.9-4.8-7-3.9-4.6-6.3-8.1-2.5-3.6-3.9-6.5-1.4-2.9-2-5.7-0.4-2.9-0.4-6.4 0-8 1.9-13.9 2.1-5.8 5.4-10 3.3-4.2 7.5-6.9 4.3-2.7 8.8-4.2 4.4-1.5 8.6-2.1 4.4-0.6 7.8-0.6 4.2 0 8.9 0.8 4.8 0.8 9.2 2.9 4.6 2 8.3 5.6 3.9 3.6 6 9h5.6v5h-29v-5h3.6q-0.4-2.2-1.4-4.5-1.1-2.5-2.9-4.5-1.9-1.9-4.6-3.1-2.7-1.3-6.5-1.3-5.8 0-9.1 3.3-3.2 3.1-5 7.7-1.6 4.4-2.1 9.4-0.5 4.9-0.5 8.3 0 0.7 0 1.4 0.2 0.7 0.3 1.4 3.7-3.3 8.5-5.3 4.8-2.1 11-2.1 2.9 0 6.1 0.8 3.2 0.7 6.1 2.4 3 1.6 5.4 4.2 2.4 2.5 3.7 6.2h4.8zm46.7 36v-4.9h9.7v-72.1h-9.7v-4.9h35.9v4.9h-8.1v29.6h25.9v-29.6h-8.1v-4.9h35.9v4.9h-9.7v72.1h9.7v4.9h-35.9v-4.9h8.1v-37.4h-25.9v37.4h8.1v4.9zm117.9 0v-4.9h9.8v-72.1h-9.8v-4.9h36v4.9h-8.1v44.1l25.8-31.7v-12.4h-8v-4.9h35.9v4.9h-9.7v72.1h9.7v4.9h-35.9v-4.9h8v-51.8l-25.8 31.5v20.3h8.1v4.9zm115.9 0v-4.9h5.4q0.3-9.3 3.3-16 3-6.9 7.9-11.5 5.1-4.6 11.5-6.9 6.5-2.5 13.8-2.8v-1.8q-9.1-1.1-15.7-3.8-6.5-2.7-10.9-6.3-4.2-3.8-6.3-8.2-2-4.5-2-9.2 0-3.7 1.2-5.8 1.2-2.1 3.4-3.2 2.3-1 5.6-1.3 3.4-0.2 7.8-0.2h52.7v4.9h-9.7v72.1h9.7v4.9h-33.6v-4.9h5.8v-35.8q-3.6 0-7.9 1.3-4.2 1.3-7.8 4.9-3.7 3.5-6.1 10.1-2.5 6.4-2.5 16.9v2.6h4.6v4.9zm49.8-49.4v-27.6h-13.3q-1.2 0-2.7 0.3-1.5 0.1-2.9 0.9-1.4 0.7-2.4 2.1-0.9 1.4-0.9 3.9 0 3.1 1.4 6.7 1.4 3.6 4.2 6.6 2.8 3 6.9 5 4.2 2 9.7 2.1zm-759.6-116zm0 0.1zm0 0.2zm0 0.1zm0 0.1zm-69.3 135.2zm0 0.1zm0 0.2zm0 0.2zm0 0.1z"/>
</svg>