<!-- sample rectangle -->
<svg width="900" height="600" xmlns="http://www.w3.org/2000/svg">
  <path id="Background" d="M0 0H900V600H0Z0" style="fill:#39f"></path>
  <path id="Background" d="M0 300H900V600H0Z0" style="fill:#fc0"></path>
  	<g id="12312" style="fill:white">
		<path id="354353" d="m93.9 523h-12l-21-86.9h-5.4v-5.5h35.5v5.5h-9.1l16.5 70.4q3.3-15.4 5.8-26.1 2.5-10.7 4.4-17.7 1.8-7 2.9-10.7 1.2-3.8 1.7-5.6 1.1-3.1 2.4-6.3 1.3-3.2 3.3-5.7 2-2.5 4.6-4.1 2.8-1.5 6.7-1.5 1.2 0 2.9 0.2 1.8 0.3 3.5 0.8 1.7 0.4 3 1.2 1.5 0.7 2 1.4-0.4 2.7-0.9 3.6-0.4 0.8-0.8 1.9-0.4 1-0.8 3.1-0.3 2-0.3 6.9v2.6h-2q-2.3-1.2-4.2-2.1-1.7-1-3.6-1-3.3 0-5.6 1.8-2.3 1.9-3.9 4.8-1.5 2.9-2.7 6.4-1.2 3.6-2.1 7-2.8 9.8-4.8 17.3-2 7.4-3.4 13.4-1.3 5.9-2.3 10.6-0.8 4.7-1.6 8.8h6.6v5.5h-6.8q-0.5 4.8-0.7 8.3 0 3.4 0 6.5 0 4.2 0.3 7.1 0.2 2.8 0.6 4.6 0.4 1.9 0.7 3.1 0.3 1 0.3 1.8 0 0.5-0.3 1.6l-12.3 0.9q0-5 0.2-9.1 0.2-4.2 0.6-8 0.4-4 0.9-8 0.6-4 1.2-8.8zm83.6 0v-5.5h10.9v-81.4h-10.9v-5.5h40.5v5.5h-9.1v35.3h4.9l1.8-3.7q1.2-2.4 2.7-6.1 1.6-3.8 3.5-8.2 2-4.3 4.5-8.7 2.5-4.3 5.6-7.9 3-3.6 6.7-5.8 3.7-2.2 8.2-2.2 3.4 0 6.3 0.6 3.1 0.7 5.3 1.7-1.1 2.9-1.8 4.9-0.8 2-1.2 4-0.4 1.8-0.6 3.5-0.1 1.8-0.1 3.3c0 0 0 0.2 0 0.3v2.1h-2.6q-1.9-0.6-3.3-1.2-1.4-0.6-2.5-1-1.2-0.6-2.5-0.8-1.4-0.3-3.1-0.3-3.2 0-5.7 1.7-2.3 1.7-4.8 5.2-2.4 3.4-5.1 8.4-2.6 5-5.9 11.6 0.7 0.2 1.1 0.3 0.5 0.1 1.1 0.3 2.6 0.6 6 1.7 3.5 0.9 7.2 2.8 3.9 1.8 7.6 4.8 3.8 3.1 6.8 7.8 3.1 4.8 4.9 11.4 2 6.6 2.1 15.6h7.9v5.5h-35.9v-5.5h5.2q0.3-3.5 0.3-6.5 0-8.3-2-15.2-1.9-7-5.6-11.5-3.7-4.6-8.3-6.3-4.6-1.9-8.7-2v41.5h8.2v5.5zm124.9 0v-5.5h10.9c0-2.8 0-53.9 0-56.9q0.1-4.5 0.4-11.5 1.7-4.4 4.8-8.1 3.1-3.7 7.2-6.4 4.1-2.8 9.1-4.3 5-1.5 10.7-1.5 7.4 0 13.5 1.8 6.2 1.8 10.5 5.3 4.5 3.4 6.9 8.3 2.5 4.9 2.5 11 0 4.8-1.4 9.5-1.5 4.6-4.4 8.1-2.9 3.6-7.1 5.8-4.1 2.2-9.4 2.2-2.2 0-3.9-0.3-1.6-0.4-3.1-1.1-1.4-0.6-3-1.5-1.6-1-3.7-2l-9.1 11.9v29.7h10.9v5.5zm31.4-43.2l8.5-10.7q1.1 0.8 2.5 1.6 1.5 0.7 2.4 0.7 1.2 0 2.6-0.7 1.6-0.6 2.9-2.3 1.3-1.9 2.1-5.1 1-3.3 1-8.4 0-3.6-0.4-7.1-0.3-3.7-1.5-6.6-1.2-3.1-3.4-4.9-2.1-2-5.8-2-3.9 0-6.1 2.1-2.1 2-3.2 5.7-1 3.5-1.3 8.7-0.3 5.1-0.3 11.2zm132.4 43.2v-5.6h10.1l-9.9-34.2q-1.6 7.6-4.8 15-3 7.4-7.2 13.3-4.1 5.9-9.1 9.6-4.9 3.7-10.2 3.7-6.2 0-10.6-3.9-4.2-4-4.2-11.9 0-5.3 1.6-11.1 1.7-5.8 4.3-11.6 2.8-6 6.1-11.6 3.3-5.7 6.6-10.9 2.5-3.9 4.9-7.1 2.4-3.3 4.2-6.2 2-3 3.1-6.1 1.2-3 1.2-6.6 0-0.9-0.2-1.7 0-0.9-0.1-1.8h-10.2v-5.6h41.1v5.6h-10.5l24.3 83.1h9.1v5.6zm-3.7-52.3l-5.9-21q-4.3 6.1-8.3 12.4-4 6.4-7.1 12.4-3.1 6.1-4.9 11.7-1.9 5.5-1.9 10 0 1.4 0.3 2.9 0.4 1.4 1.3 2.6 0.9 1.2 2.4 2 1.4 0.7 3.7 0.7 3.7 0 7.1-3.6 3.4-3.6 6.2-8.7 2.8-5.2 4.6-11 1.9-5.8 2.5-10.4zm81.2 52.3v-5.6h11v-81.3h-11v-5.5h42.4v5.5h-11v81.3h11v5.6zm-3-110q0-3.4 2.3-5.8 2.4-2.4 5.8-2.4 3.3 0 5.7 2.4 2.4 2.4 2.4 5.8 0 3.3-2.4 5.7-2.4 2.4-5.7 2.4-3.4 0-5.8-2.4-2.3-2.4-2.3-5.7zm32 0q0-3.4 2.4-5.8 2.4-2.4 5.8-2.4 3.3 0 5.7 2.4 2.4 2.4 2.4 5.8 0 3.3-2.4 5.7-2.4 2.4-5.7 2.4-3.4 0-5.8-2.4-2.4-2.4-2.4-5.7zm55.5 110v-5.6h10.9v-81.3h-10.9v-5.5h40.5v5.5h-9.1v33.4h29.2v-33.4h-9.1v-5.5h40.5v5.5h-11v81.3h11v5.6h-40.5v-5.6h9.1v-42.2h-29.2v42.2h9.1v5.6zm178.6 0v-5.6h10l-9.9-34.2q-1.6 7.6-4.7 15-3.1 7.4-7.3 13.3-4.1 5.9-9.1 9.6-4.9 3.7-10.2 3.7-6.2 0-10.5-3.9-4.2-4-4.2-11.9 0-5.3 1.5-11.1 1.8-5.8 4.4-11.6 2.8-6 6.1-11.6 3.3-5.7 6.6-10.9 2.5-3.9 4.9-7.1 2.3-3.3 4.2-6.2 2-3 3-6.1 1.2-3 1.2-6.6 0-0.9-0.1-1.7 0-0.9-0.2-1.8h-10.1v-5.6h41v5.6h-10.4l24.3 83.1h9.1v5.6zm-3.7-52.3l-5.9-21q-4.4 6.1-8.4 12.4-3.9 6.4-7.1 12.4-3 6.1-4.9 11.7-1.8 5.5-1.8 10 0 1.4 0.3 2.9 0.3 1.4 1.3 2.6 0.9 1.2 2.3 2 1.5 0.7 3.7 0.7 3.7 0 7.2-3.6 3.4-3.6 6.2-8.7 2.7-5.2 4.6-11 1.8-5.8 2.5-10.4z"/>
		<path id="1234" d="m33.5 107v-3.1h6.1v-45.6h-6.1v-3.1h51.5v3.1h-6.1v45.6h6.1v3.1h-22.7v-3.1h5.1v-45.6h-16.3v45.6h5.1v3.1zm74.1 0v-3.1h6.2c0-1.5 0-30.2 0-31.9q0-2.5 0.2-6.4 0.9-2.5 2.6-4.6 1.8-2 4.1-3.6 2.3-1.5 5.1-2.3 2.8-0.9 6-0.9 4.2 0 7.6 1 3.4 1 5.9 3 2.5 1.9 3.8 4.6 1.4 2.8 1.4 6.2 0 2.7-0.8 5.3-0.8 2.6-2.4 4.6-1.6 2-4 3.2-2.3 1.2-5.3 1.2-1.2 0-2.2-0.1-0.9-0.2-1.7-0.6-0.8-0.4-1.7-0.9-0.9-0.5-2.1-1.1l-5.1 6.6v16.7h6.2v3.1zm17.6-24.2l4.7-6q0.6 0.5 1.4 0.9 0.8 0.4 1.4 0.4 0.6 0 1.4-0.4 0.9-0.4 1.7-1.3 0.7-1.1 1.2-2.8 0.5-1.9 0.5-4.8 0-2-0.3-4-0.1-2.1-0.8-3.7-0.6-1.7-1.9-2.7-1.2-1.1-3.2-1.1-2.2 0-3.5 1.2-1.1 1.1-1.7 3.1-0.6 2-0.8 4.9-0.1 2.9-0.1 6.3zm90.9 1.4h-18.3v-3.1h2.7q-0.8-2.5-2.3-3.5-1.5-0.9-2.3-0.9-2 0-4.4 0.7-2.3 0.8-4 2.7 0.5 3.3 1 5.5 0.5 2.2 0.9 3.9 0.5 1.6 0.8 2.8 0.4 1.2 0.7 2.4 0.3 1.1 0.4 2.5 0.2 1.3 0.2 3.3 0 1.3-0.2 2.3-0.3 1-0.6 1.6 1.1 0.5 2.8 0.5 3.8 0 6.4-1.2 2.5-1.3 4-3.1 1.6-1.7 2.3-3.6 0.8-1.9 1.1-3.2h-3.7v-3h19.3v3h-2.7q-1.8 3.2-4.2 5.9-2.5 2.6-5.3 4.4-2.9 1.9-6 2.9-3.1 1-6.1 1-1.4 0-3 0-1.7-0.1-3.4-0.2-1.6-0.3-3.2-0.5-1.4-0.3-2.5-0.7 0-0.4 0-0.8 0.1-0.5 0.1-0.9 0-3.2-1.5-5.6-1.5-2.4-3-4.4-2.5-2.9-4-5.1-1.6-2.3-2.4-4.1-0.9-1.9-1.3-3.6-0.3-1.9-0.3-4.1 0-5 1.3-8.7 1.3-3.7 3.4-6.4 2-2.7 4.7-4.4 2.7-1.7 5.5-2.6 2.9-1 5.5-1.4 2.8-0.3 4.9-0.3 2.7 0 5.6 0.5 3.1 0.5 5.9 1.8 2.9 1.3 5.2 3.6 2.5 2.2 3.8 5.7h3.6v3.1h-18.4v-3.1h2.3q-0.2-1.4-0.9-2.9-0.7-1.5-1.8-2.8-1.2-1.3-2.9-2-1.7-0.8-4.2-0.8-3.6 0-5.7 2.1-2 2-3.1 4.8-1.1 2.9-1.4 6-0.3 3.1-0.3 5.2 0 0.5 0 0.9 0.1 0.4 0.2 0.9 2.3-2.1 5.4-3.3 3-1.4 6.9-1.4 1.9 0 3.9 0.5 2 0.5 3.8 1.5 1.9 1.1 3.4 2.7 1.6 1.6 2.4 3.9h3zm59.7 2.5h-3.2v-3.1h19.4v3.1h-3.1q-0.2 5.4-2.8 9.4-2.6 4.1-6.4 6.9-3.8 2.7-8.1 4.2-4.2 1.4-7.7 1.4-2.2 0-3.3-0.2-1.1-0.2-2.1-0.7v-2q0-2.1-0.8-4-0.6-1.8-1.8-3.5-1-1.7-2.3-3.2-1.1-1.5-2.2-3-2-2.6-3.1-4.8-1.1-2.1-1.7-3.9-0.5-1.8-0.6-3.3-0.1-1.6-0.1-2.9 0-4.9 1.6-9.1 1.6-4.2 4.6-7.2 3-3.2 7.2-4.9 4.2-1.7 9.2-1.7 5.6 0 9.3 1.7 3.8 1.6 6.1 4 2.4 2.5 3.5 5.4 1.2 2.8 1.5 5.1h3.1v3.2h-19.4v-3.2h3.2q0-4.3-0.8-6.9-0.8-2.6-2-4-1.1-1.4-2.6-1.8-1.4-0.4-2.6-0.4-1.7 0-3.3 0.8-1.7 0.8-2.9 2.7-1.2 1.8-2 4.8-0.7 3.1-0.7 7.6 0 4.9 0.7 9.3 0.9 4.3 2 8.9 0.9 3.7 1.2 6.2 0.4 2.4 0.4 4.5 0 1.1-0.3 2-0.2 1-0.6 2.2 0.5 0.4 1.8 0.4 1.7 0 3.8-1.4 2-1.4 3.8-3.8 1.8-2.4 3-5.7 1.1-3.3 1.1-7.1c0 0 0-0.2 0-0.3v-0.7q0-0.5 0-1zm52.3 20.3v-3.1h6.1v-45.6h-3.1q-2 0-3.3 0.2-1.3 0.2-2.4 1-0.9 0.7-1.7 2.3-0.8 1.5-1.5 4.1-0.5 1.6-0.8 2.9-0.3 1.3-0.6 2.2-0.3 0.9-0.7 1.4-0.4 0.4-1.3 0.4-1.3 0-1.8-1.2-0.4-0.9-0.4-2.4 0-1.5-0.3-3.2-0.3-1.4-0.9-2.7-0.5-1.4-1-2.5-0.5-1.2-0.9-2.2-0.4-1-0.4-1.6 0-1.7 0.9-2.2 0.9-0.6 2-0.6 0.7 0 1.4 0.2 0.7 0.1 1.1 0.2 0.9 0.2 1.8 0.4 0.9 0.1 2 0.1 1.1 0.1 2.8 0.1c0 0 0.4 0 0.5 0 0 0 0.4 0 0.4 0 0 0 0.4 0 0.5 0 0 0 0.2 0 0.3 0 0 0 1.5 0 1.6 0 0 0 23 0 23.1 0 0 0 0.2 0 0.2 0 0 0 0.1 0 0.1 0 0 0 0.4 0 0.5 0q0 0 0.1 0c0 0 0.5 0 0.5 0 0 0 0.2 0 0.2 0 0 0 1.5 0 1.6 0h0.3q1.7 0 2.8-0.1 1.2 0 2-0.1 0.9-0.2 1.7-0.4 0.3-0.1 1-0.2 0.7-0.2 1.5-0.2 1 0 1.9 0.6 0.9 0.5 0.9 2.2 0 0.7-0.3 1.3-0.2 0.5-0.7 1.4-0.4 0.9-1 2.4-0.5 1.4-1.1 3.9-0.4 1.7-0.5 2.6 0 0.8 0 1.8 0 1.1-0.5 1.7-0.6 0.7-1.6 0.7-0.7 0-1.2-0.4-0.4-0.3-0.7-1.1-0.2-0.9-0.6-2.2-0.3-1.3-0.8-3.2-0.7-2.5-1.4-4-0.8-1.4-1.8-2.3-1-0.8-2.4-1-1.3-0.3-3.3-0.3h-3.2v45.6h6.1v3.1zm80.9 0h-6.7l-11.8-48.7h-3v-3.1h19.9v3.1h-5.1l9.2 39.5q1.9-8.7 3.3-14.7 1.4-6 2.4-9.9 1.1-3.9 1.7-6 0.6-2.2 0.9-3.1 0.6-1.8 1.4-3.6 0.7-1.7 1.8-3.2 1.1-1.4 2.6-2.2 1.6-0.9 3.8-0.9 0.6 0 1.6 0.1 1 0.2 1.9 0.5 1 0.2 1.7 0.6 0.8 0.4 1.1 0.8-0.2 1.5-0.5 2-0.2 0.5-0.4 1.1-0.2 0.6-0.5 1.7-0.1 1.2-0.1 3.9v1.5h-1.1q-1.4-0.7-2.4-1.2-1-0.6-2-0.6-1.8 0-3.2 1-1.2 1.1-2.1 2.7-0.9 1.6-1.6 3.6-0.6 2-1.2 3.9-1.5 5.5-2.6 9.7-1.1 4.2-1.9 7.5-0.8 3.3-1.3 6-0.4 2.6-0.9 4.9h3.7v3.1h-3.8q-0.3 2.7-0.4 4.7 0 1.9 0 3.6 0 2.4 0.1 4 0.2 1.5 0.4 2.6 0.2 1 0.4 1.7 0.1 0.6 0.1 1 0 0.3-0.1 0.9l-6.9 0.5q0-2.8 0.1-5.1 0.1-2.4 0.3-4.5 0.3-2.2 0.6-4.4 0.3-2.3 0.6-5zm46.9 0v-3.1h6.1v-45.6h-6.1v-3.1h51.5v3.1h-6.1v45.6h6.1v3.1h-22.7v-3.1h5.1v-45.6h-16.3v45.6h5.1v3.1zm98 0v-3.1h4.8q-2.1-6.4-3.3-11.4-1.2-5-2.1-9.3-0.8-4.4-1.5-8.4-0.7-4-1.9-8.4-1.7 2.1-3.5 5.2-1.8 3.1-3.2 6.5-1.4 3.4-2.3 6.8-0.9 3.3-0.9 6 0 1.4 0.3 3.2 0.3 1.8 0.5 2.7 0.3 0.8 1.3 1.8 1 0.9 1.8 2.8 0.2 0.3 0.2 2.3c0 0 0 0.2 0 0.3 0 0 0 0.6 0 0.6 0 0 0 0.7 0 0.7v0.8q0 0.9-0.8 1.3-0.8 0.4-1.9 0.4-0.6 0-1.2-0.1-0.7 0-1.3-0.2-0.5-0.1-1-0.1-0.5 0-1 0-0.6 0-1.2 0-0.6 0-1.1 0.1-0.4 0.1-0.7 0.1h-0.7q-1.7 0-2.3-1-0.5-1-0.5-2.9 0-2.5 0.4-4.8 0.3-2.3 1.3-5.1 1-2.9 2.7-6.6 1.8-3.8 4.6-9.1 0.8-1.8 2.3-4.2 1.4-2.6 2.7-5.1 1.3-2.6 2.2-4.9 1-2.3 1-3.7 0-1.4-0.9-1.7-0.8-0.2-1.6-0.2h-5.1v-3.1h24.4v3.1h-4.5q0.5 3.8 1 6.9 0.5 3 1 5.8 0.6 2.7 1.2 5.3 0.6 2.5 1.3 5.2 0.9 3.6 1.5 6.2 0.6 2.5 1.1 4.4 0.5 1.7 0.8 3 0.3 1.2 0.6 2.2 0.3 1 0.6 1.9 0.3 0.7 0.5 1.4 0.2 0.7 0.3 1.5 0.3 0.8 0.5 1.8h5.4v3.1zm85.2-22.8h-18.4v-3.1h2.8q-0.9-2.5-2.3-3.5-1.5-0.9-2.4-0.9-2 0-4.4 0.7-2.3 0.7-4 2.7 0.5 3.3 1 5.5 0.5 2.2 1 3.9 0.4 1.6 0.8 2.8 0.3 1.2 0.6 2.3 0.3 1.2 0.5 2.6 0.1 1.3 0.1 3.3 0 1.3-0.2 2.3-0.2 0.9-0.5 1.6 1 0.5 2.7 0.5 3.9 0 6.4-1.2 2.5-1.3 4.1-3.1 1.5-1.7 2.3-3.6 0.7-1.9 1-3.2h-3.7v-3h19.4v3h-2.8q-1.7 3.2-4.2 5.9-2.4 2.6-5.3 4.4-2.8 1.9-5.9 2.9-3.1 1-6.2 1-1.4 0-3 0-1.6-0.1-3.3-0.3-1.7-0.2-3.2-0.4-1.5-0.3-2.6-0.7 0.1-0.4 0.1-0.9 0-0.4 0-0.8 0-3.2-1.4-5.6-1.5-2.4-3.1-4.4-2.4-2.9-4-5.1-1.5-2.3-2.4-4.1-0.9-1.9-1.3-3.6-0.3-1.9-0.3-4.1 0-5 1.3-8.7 1.3-3.7 3.4-6.4 2.1-2.7 4.7-4.4 2.8-1.7 5.6-2.6 2.8-1 5.5-1.4 2.7-0.3 4.8-0.3 2.7 0 5.7 0.5 3 0.5 5.8 1.8 2.9 1.3 5.3 3.6 2.4 2.2 3.7 5.7h3.6v3.1h-18.4v-3.1h2.3q-0.2-1.4-0.9-2.9-0.6-1.6-1.8-2.8-1.2-1.3-2.9-2-1.7-0.8-4.1-0.8-3.7 0-5.7 2-2.1 2-3.2 4.9-1 2.8-1.3 6-0.3 3.1-0.3 5.2 0 0.4 0 0.9 0 0.4 0.1 0.9 2.4-2.1 5.4-3.3 3-1.4 7-1.4 1.8 0 3.8 0.5 2 0.5 3.9 1.5 1.9 1.1 3.4 2.7 1.5 1.6 2.3 3.9h3.1zm29.5 22.8v-3.1h6.1v-45.6h-6.1v-3.1h22.7v3.1h-5.1v18.7h16.4v-18.7h-5.1v-3.1h22.7v3.1h-6.2v45.6h6.2v3.1h-22.7v-3.1h5.1v-23.7h-16.4v23.7h5.1v3.1zm74.6 0v-3.1h6.1v-45.6h-6.1v-3.1h22.7v3.1h-5.1v27.9l16.4-20.1v-7.8h-5.1v-3.1h22.7v3.1h-6.2v45.6h6.2v3.1h-22.7v-3.1h5.1v-32.8l-16.4 20v12.8h5.1v3.1zm116.9-22.8h-18.4v-3.1h2.8q-0.9-2.5-2.3-3.5-1.5-0.9-2.4-0.9-2 0-4.4 0.7-2.3 0.7-4 2.7 0.5 3.3 1 5.5 0.5 2.2 1 3.9 0.4 1.6 0.8 2.8 0.3 1.2 0.6 2.3 0.3 1.1 0.5 2.6 0.1 1.3 0.1 3.3 0 1.3-0.2 2.3-0.2 0.9-0.5 1.6 1 0.5 2.7 0.5 3.9 0 6.4-1.2 2.5-1.3 4.1-3.1 1.5-1.7 2.3-3.6 0.7-1.9 1-3.2h-3.7v-3h19.4v3h-2.8q-1.7 3.2-4.2 5.9-2.4 2.6-5.3 4.4-2.8 1.9-5.9 2.9-3.1 1-6.2 1-1.4 0-3 0-1.6-0.1-3.3-0.3-1.7-0.2-3.2-0.4-1.5-0.3-2.6-0.7 0.1-0.4 0.1-0.9 0-0.4 0-0.9 0-3.1-1.4-5.5-1.5-2.4-3.1-4.4-2.4-2.9-4-5.1-1.5-2.3-2.4-4.1-0.9-1.9-1.3-3.6-0.3-1.9-0.3-4.1 0-5 1.3-8.7 1.3-3.7 3.4-6.4 2.1-2.7 4.7-4.4 2.8-1.7 5.6-2.6 2.8-1 5.5-1.4 2.7-0.3 4.8-0.3 2.7 0 5.7 0.5 3 0.5 5.8 1.8 2.9 1.3 5.3 3.6 2.4 2.2 3.7 5.7h3.6v3.1h-18.4v-3.1h2.3q-0.2-1.4-0.9-2.9-0.6-1.6-1.8-2.8-1.2-1.3-2.9-2-1.7-0.8-4.1-0.8-3.7 0-5.7 2-2.1 2-3.2 4.9-1 2.8-1.3 5.9-0.3 3.2-0.3 5.3 0 0.4 0 0.9 0 0.4 0.1 0.9 2.4-2.1 5.4-3.4 3-1.3 7-1.3 1.8 0 3.8 0.5 2 0.5 3.9 1.5 1.9 1 3.4 2.7 1.5 1.6 2.3 3.9h3.1zm-584.2 4zm0 0.1zm0 0.1zm0 0.1zm0 0.1z"/>
	</g>
</svg>