<!-- Photopea (www.photopea.com) Text SVG -->
<svg width="1200" height="600" xmlns="http://www.w3.org/2000/svg">
<title>Flag Belarus</title>
<rect id="Line1" width="1200" height="600" style="fill:#c00"></rect>
<rect id="Line2" y="450" width="1200" height="150" style="fill:#f03"></rect>
<rect id="Line3" width="132" height="600" style="fill:white"></rect>
<path id="Ornament" style="fill:#c00" d="m 39.528,453.45649 0,-13.82396 -5.88,0 0,-13.82395 -5.884,0 0,-13.82595 -5.884,0 0,-11.05797 0,-2.76599 -5.88,0 0,-13.82395 5.88,0 0,-13.82195 5.882,0 0,-13.82796 5.884,0 0,-13.82395 5.88,0 0,13.82395 5.884,0 0,13.82796 5.88,0 0,13.82195 -5.88,0 0,16.58994 5.88,0 0,-11.05996 5.882,0 0,-22.11993 2.942,0 0.046,-13.69795 -8.87,-0.126 0,-11.06196 -5.88,0 0,-8.29197 -5.884,0 0,-13.82396 -5.88,0 0,13.82396 -5.884,0 0,8.29197 -5.882,0 0,8.29197 -5.88,0 0,-24.88192 5.88,0 0,-11.05796 5.882,0 0,-9.67597 5.884,0 0,-11.05996 -5.884,0 0,-9.67797 -5.882,0 0,-11.05996 -5.88,0 0,-24.88392 5.88,0 0,8.29397 5.882,0 0,8.29598 5.884,0 0,13.82395 5.88,0 0,-13.82395 5.884,0 0,-8.29598 5.88,0 0,-11.05996 8.87,-0.13 -0.046,-13.69395 -2.942,0 0,-22.11993 -5.882,0 0,-11.06396 -5.88,0 0,16.58994 5.88,0 0,13.82396 -5.88,0 0,13.82595 -5.884,0 0,13.82395 -5.88,0 0,-13.82395 -5.884,0 0,-13.82595 -5.882,0 0,-13.82396 -5.88,0 0,-13.82595 5.88,0 0,-13.82396 5.882,0 0,-13.82595 5.884,0 0,-13.82395 5.88,0 0,-13.82596 5.884,0 0,13.82596 5.88,0 0,13.82395 5.882,0 0,13.82595 5.884,0 0,13.82596 5.88,0 0,-13.82596 5.88,0 0,-13.82595 5.884,0 0,-13.82395 5.882,0 0,-13.82596 5.88,0 0,13.82596 5.884,0 0,13.82395 5.882,0 0,13.82595 5.882,0 0,13.82596 5.89,0 0,13.82595 -5.89,0 0,13.82396 -5.882,0 0,13.82595 -5.882,0 0,13.82395 -5.884,0 0,-13.82395 -5.884,0 0,-13.82595 -5.88,0 0,-13.82396 5.88,0 0,-16.59194 -5.88,0 0,11.05596 -5.884,0 0,22.12193 -2.94,0 0,13.82395 8.83,0 0,11.05996 5.882,0 0,8.29598 5.88,0 0,13.82395 5.884,0 0,-13.82395 5.882,0 0,-8.29598 5.882,0 0,-8.29197 5.886,0 0,24.88392 -5.886,0 0,11.05996 -5.882,0 0,9.67797 -5.882,0 0,11.05996 5.882,0 0,9.67597 5.882,0 0,11.05796 5.886,0 0,24.88392 -5.886,0 0,-8.29397 -5.882,0 0,-8.29197 -5.882,0 0,-13.82396 -5.884,0 0,13.82396 -5.884,0 0,8.29197 -5.88,0 0,11.05996 -8.826,0 0,13.82395 2.94,0 0,22.11993 5.884,0 0,11.05996 5.882,0 0,-16.58994 -5.882,0 0,-13.82195 5.882,0 0,-13.82796 5.88,0 0,-13.82395 5.884,0 0,13.82395 5.882,0 0,13.82796 5.884,0 0,13.82195 5.888,0 0,13.82395 -5.888,0 0,13.82396 -5.884,0 0,13.82595 -5.882,0 0,13.82395 -5.884,0 0,13.82396 -5.878,0 0,-13.82396 -5.88,0 0,-13.82395 -5.884,0 0,-13.82595 -5.88,0 0,-13.82396 -5.882,0 0,13.82396 -5.884,0 0,13.82595 -5.882,0 0,13.82395 -5.878,0 0,13.82396 -5.884,0 0,0.006 -0.002,0 z m 0,-147.92551 5.884,0 0,9.67597 5.88,0 0,11.05996 8.824,0 0,13.00596 2.942,0 0,6.34798 5.884,0 0,-6.21798 2.942,0 0,-13.13196 8.824,0 0,-5.53198 0,-5.53198 5.88,0 0,-9.67597 5.882,0 0,-11.05996 -5.886,0 0,-9.67797 -5.88,0 0,-5.52998 0,-5.52998 -8.824,0 0,-13.13396 -2.94,0 0,-6.21998 -5.884,0 0,6.34998 -2.942,0 0,13.00396 -8.824,0 0,11.05996 -5.876,0 0,9.67797 -5.884,0 -0.002,11.05996 z m -17.644,-13.82595 -5.884,0 0,16.58794 5.884,0 0,-16.58794 z M 16,27.64991 l 5.882,0 0,-16.58995 -5.882,0 0,16.58995 z m 94.112,0 5.888,0 0,-16.58995 -5.888,0 0,16.58995 z m -47.056,0 5.884,0 0,-16.58995 -5.884,0 0,16.58995 z m -23.526,41.47586 5.884,0 0,-13.82595 -5.884,0 0,13.82595 z m 47.054,0 5.882,0 0,-13.82595 -5.882,0 0,13.82595 z M 16,107.83364 l 5.884,0 0,-16.58994 -5.884,0 0,16.58994 z m 94.112,0 5.888,0 0,-16.58994 -5.888,0 0,16.58994 z m -47.056,0 5.884,0 0,-16.58994 -5.884,0 0,16.58994 z m -23.528,-94.00769 -5.882,0 0,13.82396 -5.88,0 0,13.82395 -5.884,0 0,13.82596 -5.882,0 0,13.82795 5.88,0 0,13.82395 5.884,0 0,13.82596 5.88,0 0,13.82195 5.882,0 0,13.82396 5.884,0 0,-13.82396 5.88,0 0,-13.82395 5.882,0 0,-13.82596 5.884,0 0,-13.82395 5.88,0 0,13.82395 5.88,0 0,13.82596 5.884,0 0,13.82395 5.882,0 0,13.82396 5.884,0 0,-13.82396 5.882,0 0,-13.82395 5.884,0 0,-13.82596 5.88,0 0,-13.82395 5.888,0 0,-13.82795 -5.884,0 0,-13.82596 -5.88,0 0,-13.82395 -5.884,0 0,-13.82196 -5.882,0 0,-13.82595 -5.886,0 0,13.82595 -5.88,0 0,13.82396 -5.884,0 0,13.82395 -5.88,0 0,13.82596 -5.882,0 0,-13.82596 -5.884,0 0,-13.82395 -5.88,0 0,-13.82396 -5.878,0 0,-13.82595 -5.888,0 0,13.82595 z m 0,13.82396 5.884,0 0,13.82395 5.88,0 0,13.82596 5.882,0 0,13.82595 -5.882,0 0,13.82395 -5.88,0 0,13.82596 -5.884,0 0,-13.82596 -5.882,0 0,-13.82395 -5.88,0 0,-13.82595 5.88,0 0,-13.82596 5.882,0 0,-13.82395 z m 47.056,0 5.884,0 0,13.82395 5.882,0 0,13.82596 5.884,0 0,13.82595 -5.884,0 0,13.82395 -5.882,0 0,13.82596 -5.884,0 0,-13.82596 -5.88,0 0,-13.82395 -5.884,0 0,-13.82595 5.884,0 0,-13.82596 5.88,0 0,-13.82395 z m -64.7,85.71571 0,8.29397 -2.942,0 0,8.29598 -2.942,0 0,11.05796 2.942,0 0,8.29597 2.942,0 0,8.29397 8.822,0 0,-8.29397 2.942,0 0,-8.29597 2.942,0 0,-11.05796 -2.942,0 0,-8.29598 -2.942,0 0,-8.29197 -8.822,-0.002 0,0 z m 2.942,13.82396 2.94,0 0,5.52998 2.942,0 0,5.52998 -2.942,0 0,5.52998 -2.94,0 0,-5.52998 -2.942,0 0,-5.52998 2.942,0 0,-5.52998 0,0 z m 29.406,-13.82396 0,8.29397 -2.942,0 0,8.29598 -2.942,0 0,11.05796 2.942,0 0,8.29597 2.942,0 0,8.29397 8.824,0 0,-8.29397 5.882,0 0,8.29397 8.822,0 0,-8.29397 2.942,0 0,-8.29597 2.942,0 0,-11.05796 -2.942,0 0,-8.29598 -2.942,0 0,-8.29197 -8.822,0 0,8.29197 -5.882,0 0,-8.29197 -8.824,-0.002 0,0 z m 2.942,13.82396 2.942,0 0,5.52998 2.942,0 0,5.52998 -2.942,0 0,5.52998 -2.942,0 0,-5.52998 -2.942,0 0,-5.52998 2.942,0 0,-5.52998 0,0 0,0 z m 14.704,0 2.942,0 0,5.52998 2.942,0 0,5.52998 -2.942,0 0,5.52998 -2.942,0 0,-5.52998 -2.942,0 0,-5.52998 2.942,0 0,-5.52998 0,0 z m 38.234,52.53382 5.888,0 0,-16.58994 -5.888,0 0,16.58994 z m -47.056,0 5.884,0 0,-16.58994 -5.884,0 0,16.58994 z m -47.056,0 5.884,0 0,-16.58994 -5.884,0 0,16.58994 z m 0,63.59379 5.884,0 0,-11.05996 -5.884,0 0,11.05996 z m 94.112,0 5.888,0 0,-11.05996 -5.888,0 0,11.05996 z m 5.888,48.38784 -5.89,0 0,16.58994 5.89,0 0,-16.58994 z m -32.356,0 -5.882,0 0,16.58994 5.882,0 0,-16.58994 z m -29.412,0 -5.88,0 0,16.58994 5.88,0 0,-16.58994 z m 0,-9.67797 0,8.29197 2.942,0 0,4.14799 2.942,0 0,11.06196 -2.942,0 0,4.14399 -2.942,0 0,8.29197 5.884,0 0,-5.52998 2.942,0 0,-4.14599 5.88,0 0,4.14599 2.942,0 0,5.52998 5.884,0 0,-8.29197 -2.942,0 0,-4.14399 -2.942,0 0,-11.06196 2.942,0 0,-4.14799 2.942,0 0,-8.29197 -5.884,0 0,5.52998 -2.94,0 0,4.14799 -5.88,0 0,-4.14799 -2.942,0 0,-5.52998 -5.886,0 z m 8.824,2.76399 5.884,0 0,-13.82395 -5.884,0 0,13.82395 z M 16,572.35009 l 5.884,0 0,16.58995 -5.884,0 0,-16.58995 z m 94.112,0 5.888,0 0,16.58995 -5.888,0 0,-16.58995 z m -47.056,0 5.884,0 0,16.58995 -5.884,0 0,-16.58995 z m -23.524,-41.47586 5.88,0 0,13.82395 -5.88,0 0,-13.82395 z m 47.052,0 5.88,0 0,13.82395 -5.88,0 0,-13.82395 z M 16,492.16636 l 5.884,0 0,16.58994 -5.884,0 0,-16.58994 z m 94.112,0 5.888,0 0,16.58994 -5.888,0 0,-16.58994 z m -47.056,0 5.88,0 0,16.58994 -5.88,0 0,-16.58994 0,0 z m -23.528,94.00769 -5.882,0 0,-13.82396 -5.88,0 0,-13.82395 -5.884,0 0,-13.82396 -5.882,0 0,-13.82595 5.88,0 0,-13.82195 5.884,0 0,-13.82796 5.88,0 0,-13.82395 5.882,0 0,-13.82196 5.884,0 0,13.82196 5.882,0 0,13.82395 5.88,0 0,13.82796 5.884,0 0,13.82195 5.88,0 0,-13.82195 5.88,0 0,-13.82796 5.884,0 0,-13.82395 5.882,0 0,-13.82196 5.884,0 0,13.82196 5.88,0 0,13.82395 5.884,0 0,13.82796 5.88,0 0,13.82195 5.89,0 0,13.82595 -5.884,0 0,13.82396 -5.88,0 0,13.82395 -5.884,0 0,13.82396 -5.88,0 0,13.82595 -5.886,0 0,-13.82595 -5.88,0 0,-13.82396 -5.884,0 0,-13.82395 -5.88,0 0,-13.82396 -5.882,0 0,13.82396 -5.884,0 0,13.82395 -5.88,0 0,13.82396 -5.878,0 0,13.82595 -5.89,0 0,-13.82595 z m -17.646,-99.53967 0,-8.29197 -2.942,0 0,-8.29598 -2.94,0 0,-11.05796 2.94,0 0,-8.29397 2.942,0 0,-8.29197 8.824,0 0,8.29197 2.942,0 0,8.29397 2.942,0 0,11.05796 -2.942,0 0,8.29598 -2.942,0 0,8.29197 -8.824,0 z m 32.352,0 0,-8.29197 -2.942,0 0,-8.29598 -2.942,0 0,-11.05796 2.942,0 0,-8.29397 2.942,0 0,-8.29197 8.822,0 0,8.29197 5.882,0 0,-8.29197 8.824,0 0,8.29197 2.942,0 0,8.29397 2.938,0 0,11.05796 -2.938,0 0,8.29598 -2.944,0 0,8.29197 -8.824,0 0,-8.29197 -5.882,0 0,8.29197 -8.82,0 z m 55.878,-66.35778 5.888,0 0,16.58994 -5.888,0 0,-16.58994 z m -47.056,0 5.884,0 0,16.58994 -5.884,0 0,-16.58994 z m -47.056,0 5.884,0 0,16.58994 -5.884,0 0,-16.58994 z m 0,-63.59379 5.884,0 0,11.05796 -5.884,0 0,-11.05796 z m 94.112,0 5.888,0 0,11.05796 -5.888,0 0,-11.05796 z m -47.056,-41.47586 5.884,0 0,13.82595 -5.884,0 0,-13.82595 z m 38.158,171.49143 0,-8.29197 -2.942,0 0,-8.29398 -2.942,0 0,-11.05796 2.942,0 0,-8.29397 2.942,0 0,-8.29197 8.824,0 0,8.29197 2.942,0 0,8.29397 3.02,0 0,11.05796 -3.02,0 0,8.29398 -2.94,0 0,8.29197 -8.826,0 z m 0,-373.39476 0,8.29197 -2.942,0 0,8.29398 -2.942,0 0,11.05996 2.942,0 0,8.29397 2.942,0 0,8.29597 8.824,0 0,-8.29597 2.942,0 0,-8.29397 3.02,0 0,-11.05996 -3.02,0 0,-8.29398 -2.94,0 0,-8.29197 -8.826,0 z m 2.942,13.82396 2.942,0 0,5.52998 2.942,0 0,5.52998 -2.942,0 0,5.53198 -2.942,0 0,-5.53198 -2.94,0 0,-5.52998 2.942,0 -0.002,-5.52998 0,0 z m 0,345.74684 2.942,0 0,-5.53198 2.942,0 0,-5.53198 -2.942,0 0,-5.52998 -2.942,0 0,5.52998 -2.94,0 0,5.53198 2.942,0 -0.002,5.53198 0,0 z m -46.98,-0.064 2.942,0 0,-5.53198 2.942,0 0,-5.53198 -2.942,0 0,-5.53198 -2.942,0 0,5.53198 -2.942,0 0,5.53198 2.942,0 0,5.53198 0,0 z m 14.702,0 2.942,0 0,-5.53198 2.942,0 0,-5.53198 -2.942,0 0,-5.53198 -2.942,0 0,5.53198 -2.942,0 0,5.53198 2.942,0 0,5.53198 z m -47.05,0 2.94,0 0,-5.53198 2.942,0 0,-5.53198 -2.942,0 0,-5.53198 -2.94,0 0,5.53198 -2.942,0 0,5.53198 2.942,0 0,5.53198 z m 14.7,99.53967 5.884,0 0,-13.82395 5.88,0 0,-13.82396 5.882,0 0,-13.82595 -5.882,0 0,-13.82395 -5.88,0 0,-13.82596 -5.884,0 0,13.82596 -5.88,0 0,13.82395 -5.884,0 0,13.82595 5.884,0 0,13.82396 5.88,0 0,13.82395 z m 47.056,0 5.882,0 0,-13.82395 5.884,0 0,-13.82396 5.88,0 0,-13.82595 -5.88,0 0,-13.82395 -5.884,0 0,-13.82596 -5.882,0 0,13.82596 -5.88,0 0,13.82395 -5.884,0 0,13.82595 5.884,0 0,13.82396 5.88,0 0,13.82395 z"></path>
	<g id="g2900" style="fill:white" transform="scale(0.497), translate(100, -10)">
		<path id="path11728" d="m444.6 135.3h58.2l-47.1 34.1 18 55.3-47-34.1-47.1 34.1 18-55.3-47-34.1h58.1l18-55.3zm-29.5 8.9h-37.2l30.1 21.9-11.5 35.3 30.1-21.8 30.1 21.8-11.5-35.3 30.1-21.9h-37.2l-11.5-35.4z"/>
		<path id="rect4165-6" d="m377.9 290.6l70.3 9.7-50.6 50.1c60.9 57.5 121.9 115.2 182.7 172.4 8.5 8.6 8.5 22.4-0.1 30.9-8.6 8.5-22.4 8.4-30.9-0.1-56.7-61.4-116.6-120.3-173.7-181.3l-37.6 37.1-39.8-39.9z"/>
		<path id="Layer" d="m360.8 444.2c0.4 1 1 5.3 1.5 9.6 1.1 9.9 3 19.6 5.6 27.4 1.9 5.9 4.9 13.4 5.7 14.1 0.3 0.3 1.4-0.6 4.4-3.7 2.3-2.3 15.4-15.8 29.3-30 36.5-37.3 44.6-46 56.8-60.8 15.7-19.2 26.7-31.5 39.2-44 14.4-14.3 26.3-24.4 58.5-49.9 17.9-14.2 48.2-37 56.1-42.3 6.3-4.1 27.9-16.4 27.9-15.8-0.1 0.5-9.7 17.3-13.1 23-4.3 6.9-15.2 21.6-35.2 47.2-17.9 23.1-27.1 34.3-44.7 54.9-5.5 6.5-25.6 26.6-33.3 33.2-9.6 8.4-17.9 15.5-27 23-14.9 12.3-29 25.5-67.2 62.8-8.8 8.6-18.6 18.2-21.8 21.2-5.1 4.7-5.7 5.5-5.4 5.8 0.9 0.9 10 4.5 15.6 6.3 7.4 2.4 16.5 4.2 26.1 5.2 10.3 1.1 13 2.1 12.9 4.8q-0.2 3.6-17.1 10.8c-5.7 2.4-10.5 3.7-13.6 3.7-2.9 0-3.7-0.2-14.8-5-12.4-5.4-16.8-7.4-21.4-10-1.6-0.9-3.1-1.7-3.4-1.9-0.3-0.1-0.9 0.6-2.1 2.6-3.4 5.7-5.6 8.2-27.7 30.3-17.1 17.2-22.3 22.6-26.3 27.3-12.6 15.1-18.4 23.3-20 28.3-0.4 1-0.7 3-0.8 4.4-0.2 3.5-0.9 4.9-3.5 7.5-3.7 3.7-8.9 4.9-14.1 3.2-10.4-3.4-23.2-15.1-29.8-27.2-3.3-5.9-3.7-11.3-1.1-16 2.2-4.2 5.2-6.1 9.8-6.3 1.4-0.1 3.1-0.4 3.9-0.6 3.7-1.2 10.7-5.7 18.9-12.2 12.9-10.2 22.4-19 42.7-39.4 18.1-18.3 19.9-19.9 25.8-23 1.5-0.8 1.8-1.2 1.7-1.5-0.2-0.3-1.2-2.1-2.3-4.1-2.3-4.2-4.1-8.1-9.7-21.1-4.5-10.5-5.1-12.2-4.9-15.4 0.2-3.9 3.2-12.2 7.9-21.5 4.5-8.9 8.1-10.7 10-4.9z"/>
	</g>
 	<path id="1" style="fill:white" transform="translate(0, 20)" d="m254.7 537v-4.7h9.2v-68.3h-4.8q-2.9 0-4.9 0.3-2 0.2-3.5 1.4-1.5 1.1-2.7 3.5-1.1 2.2-2.2 6.1-0.8 2.4-1.2 4.4-0.3 1.9-0.8 3.2-0.4 1.4-1.1 2.2-0.7 0.6-1.9 0.6-2 0-2.8-1.9-0.5-1.3-0.5-3.5 0-2.2-0.6-4.8-0.4-2.1-1.2-4.1-0.8-2.1-1.5-3.8-0.8-1.8-1.4-3.2-0.5-1.4-0.5-2.4 0-2.6 1.3-3.4 1.3-0.7 2.9-0.7 1.1 0 2.1 0.2 1.1 0.1 1.7 0.3 1.4 0.3 2.7 0.6 1.4 0.1 3 0.2 1.7 0.1 4.1 0.1c0 0 0.7 0 0.8 0 0 0 0.6 0 0.7 0 0 0 0.6 0 0.6 0 0 0 0.4 0 0.5 0 0 0 2.4 0 2.4 0 0 0 34.6 0 34.7 0 0 0 0.2 0 0.3 0 0.1 0 0.2 0 0.2 0 0 0 0.6 0 0.7 0q0 0 0.1 0c0.1 0 0.8 0 0.8 0 0 0 0.2 0 0.3 0 0 0 2.3 0 2.3 0h0.6q2.4 0 4.1-0.1 1.8-0.1 3-0.2 1.3-0.3 2.5-0.6 0.6-0.2 1.6-0.3 1.1-0.2 2.2-0.2 1.6 0 2.9 0.7 1.3 0.8 1.3 3.4 0 1.1-0.4 2-0.3 0.7-1 2.1-0.7 1.3-1.6 3.5-0.7 2.1-1.6 5.9-0.6 2.6-0.7 3.9-0.1 1.2-0.1 2.8 0 1.5-0.8 2.5-0.8 1-2.3 1-1.1 0-1.8-0.5-0.5-0.6-1-1.8-0.4-1.2-1-3.2-0.4-2-1.2-4.9-1-3.7-2.1-5.9-1.1-2.2-2.7-3.4-1.4-1.3-3.5-1.6-2-0.4-5-0.4h-4.8v68.3h9.2v4.7zm90.4 0v-4.7h9.2c0-2.3 0-45.3 0-47.8q0.1-3.8 0.3-9.7 1.5-3.6 4-6.7 2.7-3.1 6.1-5.5 3.5-2.3 7.7-3.5 4.2-1.4 9-1.4 6.2 0 11.3 1.6 5.2 1.6 8.9 4.4 3.7 2.9 5.7 7 2.2 4.1 2.2 9.2 0 4.2-1.3 8-1.2 3.9-3.6 6.9-2.5 3-6 4.9-3.5 1.8-7.9 1.8-1.9 0-3.3-0.2-1.4-0.4-2.6-0.9-1.2-0.6-2.5-1.4-1.4-0.7-3.1-1.6l-7.7 10v24.9h9.2v4.7zm26.4-36.3l7.1-9q0.9 0.7 2.1 1.3 1.3 0.6 2 0.6 1 0 2.3-0.6 1.3-0.5 2.4-2 1.1-1.5 1.8-4.2 0.7-2.7 0.7-7.1 0-3-0.3-6-0.2-3.1-1.2-5.5-1-2.6-2.9-4.1-1.8-1.7-4.9-1.7-3.2 0-5.1 1.8-1.8 1.6-2.6 4.8-0.9 3-1.2 7.3-0.2 4.3-0.2 9.4zm104.3 39.3q-0.6 0-1.3-0.2-0.6-0.3-1.7-1-1-0.8-2.7-2-1.6-1.3-3.9-3.3-4.9-4.3-8.9-7.9-4-3.7-6.7-7.5-2.8-3.8-4.4-8.3-1.4-4.5-1.4-10.4 0-6.5 2.1-11.9 2.1-5.5 5.3-10.1 3.2-4.5 7-8.1 3.9-3.7 7.3-6.3 3.4-2.6 5.4-4.6 2-2.1 4.4-2.1 1.6 0 3.1 2 1.6 1.9 4.1 4.3 3.2 3.3 7.1 6.5 4 3.2 7.5 7.2 3.5 4 5.8 9.2 2.5 5.1 2.5 12.1 0 5.6-1.5 9.9-1.4 4.3-4.2 8.3-2.6 4-6.6 8.1-4 4-9.1 9-2.1 2-3.6 3.4-1.3 1.4-2.4 2.3-1 0.7-1.8 1.1-0.7 0.3-1.4 0.3zm5.5-14.3q2.8-1.1 5.3-2.9 2.6-1.9 4.5-4.1 2-2.3 3.1-4.9 1.2-2.6 1.2-5.3 0-2.7-1.2-5.2-1.1-2.7-3.2-5.4-2-2.7-4.8-5.7-2.7-3-5.8-6.5-3.2-3.4-5.2-5.6-1.9-2.2-3.2-3.8-1.2-1.6-1.9-2.7-0.7-1.2-1.1-2.6-3.3 0.4-5.9 2.2-2.6 1.8-4.2 4.2-1.7 2.3-2.6 5-0.8 2.7-0.8 4.9 0 5 3.2 9.9 3.2 4.9 7.8 9.8 4 4.4 6.7 6.9 2.7 2.6 4.3 4.5 1.8 1.7 2.7 3.4 0.9 1.6 1.1 3.9zm123.2-22.9h-27.5v-4.6h4.1q-1.2-3.8-3.5-5.3-2.2-1.4-3.5-1.4-3 0-6.6 1.1-3.4 1.1-5.9 4 0.7 5 1.4 8.3 0.8 3.4 1.4 5.8 0.7 2.5 1.3 4.2 0.5 1.8 1 3.6 0.4 1.6 0.6 3.8 0.2 2 0.2 4.9 0 2-0.3 3.5-0.3 1.4-0.8 2.4 1.6 0.8 4.1 0.8 5.8 0 9.6-1.9 3.8-1.9 6.1-4.5 2.3-2.7 3.4-5.5 1.1-2.9 1.6-4.7h-5.6v-4.6h29.1v4.6h-4.1q-2.6 4.7-6.3 8.7-3.7 3.9-8 6.7-4.2 2.8-8.9 4.3-4.6 1.6-9.2 1.6-2.1 0-4.5-0.1-2.5-0.2-5-0.4-2.5-0.3-4.8-0.6-2.2-0.5-3.9-1 0.1-0.7 0.1-1.4 0.1-0.6 0.1-1.3 0-4.8-2.2-8.3-2.2-3.7-4.5-6.6-3.7-4.4-6-7.7-2.4-3.4-3.7-6.2-1.3-2.7-1.9-5.4-0.4-2.8-0.4-6.1 0-7.5 1.9-13.1 1.9-5.5 5.1-9.5 3.1-4 7.1-6.6 4.1-2.5 8.3-4 4.2-1.4 8.2-2 4.1-0.5 7.3-0.5 4 0 8.5 0.7 4.5 0.8 8.7 2.8 4.4 1.9 7.9 5.3 3.7 3.4 5.7 8.6h5.3v4.7h-27.5v-4.7h3.4q-0.3-2.1-1.3-4.3-1-2.4-2.8-4.3-1.8-1.8-4.3-3-2.6-1.2-6.2-1.2-5.5 0-8.6 3.1-3.1 3-4.8 7.4-1.5 4.2-2 8.8-0.4 4.7-0.4 7.9 0 0.7 0 1.4 0.1 0.6 0.2 1.3 3.6-3.1 8.1-5 4.6-2 10.5-2 2.7 0 5.7 0.8 3 0.6 5.8 2.2 2.9 1.5 5.1 4 2.3 2.4 3.6 5.9h4.5zm44.3 34.2v-4.7h9.2v-68.4h-9.2v-4.6h34.1v4.6h-7.7v68.4h22.4v-68.4h-7.6v-4.6h32.5v4.6h-7.7v68.4h22.5v-68.4h-7.7v-4.6h34.1v4.6h-9.2v68.4h3.7q3.7 0 5.7-0.5 2.1-0.5 4-0.5 0.7 0 1.4 0.3 0.9 0.2 1.7 0.9 0.9 0.7 1.5 1.9 0.5 1.1 0.5 2.9 0 1.5-0.4 3-0.4 1.3-0.9 3.1-0.6 1.7-1.5 4-0.7 2.3-1.5 5.8-0.9 3.8-1.1 5.5-0.1 1.6-0.6 2.8-0.8 1.9-2.8 1.9-0.8 0-1.5-0.5-0.6-0.5-1.1-1.7-0.5-1.3-1.1-3.4-0.6-2.1-1.5-5.4-0.9-3.3-1.9-6.1-1-2.8-2.6-4.9-1.7-2.1-4.5-3.2-2.7-1.2-7.1-1.2zm155.7 0v-4.7h9.2v-68.4h-9.2v-4.6h34v4.6h-7.6v41.9l24.5-30.1v-11.8h-7.7v-4.6h34.1v4.6h-9.2v68.4h9.2v4.7h-34.1v-4.7h7.7v-49.2l-24.5 30v19.2h7.6v4.7zm111.9 0v-4.7h9.2v-68.4h-9.2v-4.6h34.1v4.6h-7.7v28.1h24.6v-28.1h-7.7v-4.6h34.1v4.6h-9.2v68.4h9.2v4.7h-34.1v-4.7h7.7v-35.5h-24.6v35.5h7.7v4.7zm150.2 0v-4.7h8.4l-8.3-28.8q-1.3 6.4-4 12.6-2.6 6.2-6.1 11.2-3.5 5-7.7 8.1-4.1 3.1-8.5 3.1-5.2 0-8.9-3.3-3.6-3.4-3.6-10 0-4.5 1.4-9.3 1.4-4.9 3.6-9.8 2.4-5 5.1-9.8 2.8-4.7 5.6-9.1 2.1-3.3 4.1-6 2-2.7 3.6-5.2 1.6-2.5 2.5-5.1 1-2.5 1-5.5 0-0.8-0.1-1.5 0-0.8-0.1-1.5h-8.6v-4.7h34.6v4.7h-8.8l20.4 69.9h7.7v4.7zm-3.1-44l-5-17.7q-3.7 5.2-7 10.5-3.4 5.3-6 10.4-2.6 5.1-4.1 9.8-1.6 4.6-1.6 8.4 0 1.2 0.2 2.5 0.4 1.2 1.2 2.2 0.7 1 2 1.6 1.2 0.6 3.1 0.6 3.1 0 6-3 2.8-3 5.2-7.3 2.3-4.3 3.9-9.2 1.5-4.9 2.1-8.8z"/> 
</svg>