<svg width="1200" height="600" xmlns="http://www.w3.org/2000/svg">
  <title>Flag Svitoshyn</title>
  <path id="Background" d="M0 0H1200V600H0Z0" style="fill:#010e73"></path>
  <path id="Line1" d="M400 0H1200V600H400Z0" style="fill:#d5ed46"></path>
  <path id="Line2" d="M800 0H1200V600H800Z0" style="fill:#1b93cf"></path>
<g id="Text" style="fill:white">
	<path id="1" d="m125.7 412q-12.3 0-20.6-8.4-8.1-8.3-8.1-20.4v-0.2q0-12.2 8.2-20.6 8.2-8.4 21-8.4 13.4 0 22 8.7l-7.8 9q-7.1-6.3-14.3-6.3-7 0-11.6 5.1-4.7 5.1-4.7 12.3v0.2q0 7.4 4.6 12.5 4.6 5.1 11.7 5.1 4.5 0 7.7-1.6 3.4-1.6 7-5l7.8 8q-4.6 5-10 7.5-5.2 2.5-12.9 2.5zm83.4-1h-26.6v-56h26q9.7 0 14.6 5 3.9 3.8 3.9 9.5v0.1q0 8.3-7.4 12.1 5.2 2 7.8 5.2 2.7 3.2 2.7 8.6v0.1q0 7.6-5.6 11.5-5.6 3.9-15.4 3.9zm5.6-39.3v-0.1q0-5.8-8.1-5.8h-12.1v11.8h11.3q8.9 0 8.9-5.9zm3.1 22.4v-0.1q0-6.1-9.1-6.1h-14.2v12.3h14.6q8.7 0 8.7-6.1zm96.2-39.1v56h-12.3v-36.6l-26.6 36.6h-10.9v-56h12.4v35.4l25.6-35.4zm62.8 56h-12.3v-44.6h-17v-11.4h46.4v11.4h-17.1zm48-27.9v-0.1q0-12.1 8.5-20.5 8.6-8.5 21.4-8.5 12.8 0 21.2 8.4 8.5 8.3 8.5 20.4v0.2q0 12-8.6 20.5-8.5 8.4-21.3 8.4-12.8 0-21.3-8.3-8.4-8.4-8.4-20.5zm46.7 0v-0.1q0-7.4-4.8-12.5-4.8-5.1-12.2-5.1-7.3 0-12.1 5-4.7 5-4.7 12.4v0.2q0 7.3 4.8 12.4 4.8 5.2 12.2 5.2 7.3 0 12.1-5.1 4.7-5 4.7-12.4zm124.6 27.9h-76.8v-56h12.3v44.8h20v-44.8h12.3v44.8h19.9v-44.8h12.3zm87.2-56v56h-12.3v-36.6l-26.6 36.6h-10.8v-56h12.3v35.4l25.7-35.4zm49.7 56h-12.3v-56h12.3v22.1h22.7v-22.1h12.4v56h-12.4v-22.5h-22.7zm98.7 0.9q-12.3 0-20.5-8.3-8.2-8.3-8.2-20.5v-0.1q0-12.2 8.3-20.6 8.2-8.4 20.9-8.4 13.5 0 22.1 8.7l-7.8 9q-7.2-6.3-14.4-6.3-6.9 0-11.6 5.1-4.6 5-4.6 12.3v0.2q0 7.3 4.6 12.5 4.6 5.1 11.6 5.1 4.5 0 7.8-1.6 3.4-1.6 7-5l7.8 7.9q-4.6 5.1-10 7.6-5.3 2.4-13 2.4zm69.2-0.9h-12.4v-56h12.4v22.9l22.5-22.9h15.1l-22.8 22.1 23.8 33.9h-14.8l-17.4-25.5-6.4 6.8zm77.8 0h-12.6l24-56.4h11.4l24 56.4h-12.9l-5.1-12.6h-23.7zm17-41.6l-7.5 18.2h14.9zm83.6-14.4h23.3v56h-12.3v-18h-9l-12.5 18h-14.6l14.2-19.9q-5.8-2-9.2-6.2-3.3-4.3-3.3-10.6v-0.1q0-9.6 6.1-14.4 6.3-4.8 17.3-4.8zm11 27.2v-16.1h-12.3q-9.6 0-9.6 8.1 0 3.7 2.4 5.9 2.4 2.1 6.7 2.1 0.1 0 0.3 0z"/>
	<path id="2" d="m273 538h-43.6v-91.7h42.6q15.8 0 24 8.1 6.3 6.3 6.3 15.6v0.3q0 13.5-12.1 19.8 8.5 3.2 12.8 8.5 4.4 5.2 4.4 14v0.2q0 12.4-9.2 18.8-9.2 6.4-25.2 6.4zm9.2-64.3v-0.3q0-9.4-13.2-9.4h-19.9v19.4h18.6q14.5 0 14.5-9.7zm5.1 36.7v-0.3q0-10-14.9-10h-23.3v20.2h23.9q14.3 0 14.3-9.9zm106.5-64.8h17.8l38.4 92.4h-22.2l-25.5-64.1-25.1 64.1h-21.8zm122.4 92.4h-20.6l39.3-92.4h18.6l39.3 92.4h-21.1l-8.3-20.6h-38.8zm27.8-68.1l-12.2 29.7h24.3zm145.3 69.7q-20.2 0-33.7-13.6-13.3-13.7-13.3-33.6v-0.2q0-19.9 13.5-33.7 13.5-13.7 34.3-13.7 22 0 36.2 14.1l-12.9 14.8q-11.6-10.3-23.4-10.3-11.4 0-19 8.3-7.6 8.3-7.6 20.2v0.3q0 12 7.4 20.4 7.6 8.4 19.2 8.4 7.3 0 12.7-2.6 5.5-2.6 11.4-8.1l12.8 12.9q-7.6 8.3-16.4 12.3-8.6 4.1-21.2 4.1zm134.5-1.6h-20.1v-73.1h-27.9v-18.6h76v18.6h-28zm118.3 0h-35.6v-91.7h20.2v28.8h16.2q16.9 0 26.5 8 9.7 7.9 9.7 23v0.1q0 14.8-9.7 23.3-9.6 8.5-27.3 8.5zm-15.4-44.9v26.7h15.8q7.6 0 11.8-3.4 4.3-3.4 4.3-9.9v-0.2q0-6.3-4-9.7-4.1-3.5-11.9-3.5z"/>
</g>
<g style="fill:white;fill-opacity:1" id="SerpMolot" transform="translate(-16, 0)">
  <path
     id="path11728"
     d="m 200.0005,37.5 -8.41933,25.911886 H 164.336 L 186.37777,79.426122 177.95844,105.338 200.0005,89.323465 222.04257,105.338 213.62324,79.426122 235.665,63.411886 h -27.24516 z m 0,13.499987 5.38828,16.583473 h 17.43718 l -14.107,10.249496 5.38827,16.583472 L 200.0005,84.167224 185.89378,94.416428 191.28205,77.832956 177.17504,67.58346 h 17.43718 z"
     style="fill-opacity:1;stroke:none;stroke-width:0.14999977px;stroke-linecap:butt;stroke-linejoin:miter;stroke-opacity:1" />
    <path
       id="rect4165-6"
       d="m 137.43744,171.69421 18.86296,18.9937 17.78834,-17.66589 c 27.05847,29.021 55.43807,56.99501 82.28704,86.12782 4.03444,4.06233 10.59815,4.085 14.66056,0.0506 4.06232,-4.03445 4.08499,-10.59815 0.0506,-14.66056 -28.81871,-27.1901 -57.72545,-54.60143 -86.55328,-81.89095 l 23.96499,-23.80003 -33.34026,-4.61605 z"
       style="fill-opacity:1;stroke:none;stroke-width:0.48919073;stroke-miterlimit:4;stroke-dasharray:none;stroke-dashoffset:0;stroke-opacity:1" />
    <path
       id="path4179-3"
       d="m321.5 155.5c-1.2 3-3.3 7.1-5.2 10.1-4.6 7.2-10.5 13.3-18.4 18.6-1.7 1.2-4.3 2.7-4.4 2.7-0.1 0-1-1.1-1.8-2.4-1.1-1.4-2.7-3.5-3.9-4.9-1.2-1.5-2.7-3.4-3.4-4.4-1.7-2.4-2.4-3-4.5-5.5-0.9-1-2.7-2.9-3.9-4.1-2.3-2.7-8-8.7-8.2-8.7 0 0-0.7 1-1.6 1.9-7.8 9.9-28.1 32.6-43 48.2-2 2-8.8 8.8-15.2 15.4-23.8 24-34.9 35.7-45.6 48.2-7.1 8.1-11.5 13.6-14.4 18-1.8 3.1-1.8 3.1-2.7 3.1-0.5 0-1-0.1-1.7-0.6-3.3-1.6-9-7.7-10.1-10.8l-0.4-0.6 0.9-1.4c2.5-3.7 6.3-8.7 10.5-13.5 5.9-6.8 9.2-10.1 33.6-34.6 29.6-29.5 36.9-37.3 46.2-49.1 5.7-6.9 9-11.8 14.5-21.3 6.3-10.7 8.4-13.9 11.4-16.8 0.8-0.6 1.3-1.3 1.3-1.4 0 0-1.2-0.9-2.5-2-1.5-1.1-4-3.3-5.9-4.9-1.8-1.4-3.4-2.6-3.4-2.7 0-0.4 21.8-24.7 22-24.7 0.2 0 4.4 3.6 9.8 8.4 8.9 7.9 20.9 17.8 29 23.9 1.3 1 3.4 2.5 4.6 3.5 2.2 1.7 4.2 3.1 5.6 3.9 0.4 0.2 2 1.2 3.8 2.3 1.7 1.1 4 2.6 5 3.1 1.2 0.7 2.2 1.2 2.4 1.3 0.2 0.2 0.2 0.4-0.4 1.8z"
       style="fill-opacity:1;stroke:none;stroke-width:0.50003481;stroke-miterlimit:4;stroke-dasharray:none;stroke-dashoffset:0;stroke-opacity:1" />
  </g>
</svg>
