<!-- Photopea.com -->
<svg width="1200" height="600" xmlns="http://www.w3.org/2000/svg">
<title>Flag Deregozhyn</title>
<path id="Background" d="M0 0H1200V600H0Z0" style="fill:white"></path>
<path id="Background" d="M0 600V0H1000Z" style="fill:#006c37"></path>
<path id="Background" d="M1200 0H1200V600H200Z0" style="fill:#b39f3e"></path>
	<g id="g2900" style="fill:white" transform="scale(0.497), translate(-37, -10)">
		<path id="path11728" d="m444.6 135.3h58.2l-47.1 34.1 18 55.3-47-34.1-47.1 34.1 18-55.3-47-34.1h58.1l18-55.3zm-29.5 8.9h-37.2l30.1 21.9-11.5 35.3 30.1-21.8 30.1 21.8-11.5-35.3 30.1-21.9h-37.2l-11.5-35.4z"/>
		<path id="rect4165-6" d="m377.9 290.6l70.3 9.7-50.6 50.1c60.9 57.5 121.9 115.2 182.7 172.4 8.5 8.6 8.5 22.4-0.1 30.9-8.6 8.5-22.4 8.4-30.9-0.1-56.7-61.4-116.6-120.3-173.7-181.3l-37.6 37.1-39.8-39.9z"/>
		<path id="Layer" d="m360.8 444.2c0.4 1 1 5.3 1.5 9.6 1.1 9.9 3 19.6 5.6 27.4 1.9 5.9 4.9 13.4 5.7 14.1 0.3 0.3 1.4-0.6 4.4-3.7 2.3-2.3 15.4-15.8 29.3-30 36.5-37.3 44.6-46 56.8-60.8 15.7-19.2 26.7-31.5 39.2-44 14.4-14.3 26.3-24.4 58.5-49.9 17.9-14.2 48.2-37 56.1-42.3 6.3-4.1 27.9-16.4 27.9-15.8-0.1 0.5-9.7 17.3-13.1 23-4.3 6.9-15.2 21.6-35.2 47.2-17.9 23.1-27.1 34.3-44.7 54.9-5.5 6.5-25.6 26.6-33.3 33.2-9.6 8.4-17.9 15.5-27 23-14.9 12.3-29 25.5-67.2 62.8-8.8 8.6-18.6 18.2-21.8 21.2-5.1 4.7-5.7 5.5-5.4 5.8 0.9 0.9 10 4.5 15.6 6.3 7.4 2.4 16.5 4.2 26.1 5.2 10.3 1.1 13 2.1 12.9 4.8q-0.2 3.6-17.1 10.8c-5.7 2.4-10.5 3.7-13.6 3.7-2.9 0-3.7-0.2-14.8-5-12.4-5.4-16.8-7.4-21.4-10-1.6-0.9-3.1-1.7-3.4-1.9-0.3-0.1-0.9 0.6-2.1 2.6-3.4 5.7-5.6 8.2-27.7 30.3-17.1 17.2-22.3 22.6-26.3 27.3-12.6 15.1-18.4 23.3-20 28.3-0.4 1-0.7 3-0.8 4.4-0.2 3.5-0.9 4.9-3.5 7.5-3.7 3.7-8.9 4.9-14.1 3.2-10.4-3.4-23.2-15.1-29.8-27.2-3.3-5.9-3.7-11.3-1.1-16 2.2-4.2 5.2-6.1 9.8-6.3 1.4-0.1 3.1-0.4 3.9-0.6 3.7-1.2 10.7-5.7 18.9-12.2 12.9-10.2 22.4-19 42.7-39.4 18.1-18.3 19.9-19.9 25.8-23 1.5-0.8 1.8-1.2 1.7-1.5-0.2-0.3-1.2-2.1-2.3-4.1-2.3-4.2-4.1-8.1-9.7-21.1-4.5-10.5-5.1-12.2-4.9-15.4 0.2-3.9 3.2-12.2 7.9-21.5 4.5-8.9 8.1-10.7 10-4.9z"/>
	</g>
</svg>