<svg width="1200" height="600" xmlns="http://www.w3.org/2000/svg">
  <title>Flag Svitoshyn</title>
  <path id="Background" d="M0 0H1200V600H0Z0" style="fill:#010e73"></path>
  <path id="Line1" d="M400 0H1200V600H400Z0" style="fill:#d5ed46"></path>
  <path id="Line2" d="M800 0H1200V600H800Z0" style="fill:#1b93cf"></path>
<g id="Text" style="fill:white">
	<path id="1" d="m125.7 412q-12.3 0-20.6-8.4-8.1-8.3-8.1-20.4v-0.2q0-12.2 8.2-20.6 8.2-8.4 21-8.4 13.4 0 22 8.7l-7.8 9q-7.1-6.3-14.3-6.3-7 0-11.6 5.1-4.7 5.1-4.7 12.3v0.2q0 7.4 4.6 12.5 4.6 5.1 11.7 5.1 4.5 0 7.7-1.6 3.4-1.6 7-5l7.8 8q-4.6 5-10 7.5-5.2 2.5-12.9 2.5zm83.4-1h-26.6v-56h26q9.7 0 14.6 5 3.9 3.8 3.9 9.5v0.1q0 8.3-7.4 12.1 5.2 2 7.8 5.2 2.7 3.2 2.7 8.6v0.1q0 7.6-5.6 11.5-5.6 3.9-15.4 3.9zm5.6-39.3v-0.1q0-5.8-8.1-5.8h-12.1v11.8h11.3q8.9 0 8.9-5.9zm3.1 22.4v-0.1q0-6.1-9.1-6.1h-14.2v12.3h14.6q8.7 0 8.7-6.1zm96.2-39.1v56h-12.3v-36.6l-26.6 36.6h-10.9v-56h12.4v35.4l25.6-35.4zm62.8 56h-12.3v-44.6h-17v-11.4h46.4v11.4h-17.1zm48-27.9v-0.1q0-12.1 8.5-20.5 8.6-8.5 21.4-8.5 12.8 0 21.2 8.4 8.5 8.3 8.5 20.4v0.2q0 12-8.6 20.5-8.5 8.4-21.3 8.4-12.8 0-21.3-8.3-8.4-8.4-8.4-20.5zm46.7 0v-0.1q0-7.4-4.8-12.5-4.8-5.1-12.2-5.1-7.3 0-12.1 5-4.7 5-4.7 12.4v0.2q0 7.3 4.8 12.4 4.8 5.2 12.2 5.2 7.3 0 12.1-5.1 4.7-5 4.7-12.4zm124.6 27.9h-76.8v-56h12.3v44.8h20v-44.8h12.3v44.8h19.9v-44.8h12.3zm87.2-56v56h-12.3v-36.6l-26.6 36.6h-10.8v-56h12.3v35.4l25.7-35.4zm49.7 56h-12.3v-56h12.3v22.1h22.7v-22.1h12.4v56h-12.4v-22.5h-22.7zm98.7 0.9q-12.3 0-20.5-8.3-8.2-8.3-8.2-20.5v-0.1q0-12.2 8.3-20.6 8.2-8.4 20.9-8.4 13.5 0 22.1 8.7l-7.8 9q-7.2-6.3-14.4-6.3-6.9 0-11.6 5.1-4.6 5-4.6 12.3v0.2q0 7.3 4.6 12.5 4.6 5.1 11.6 5.1 4.5 0 7.8-1.6 3.4-1.6 7-5l7.8 7.9q-4.6 5.1-10 7.6-5.3 2.4-13 2.4zm69.2-0.9h-12.4v-56h12.4v22.9l22.5-22.9h15.1l-22.8 22.1 23.8 33.9h-14.8l-17.4-25.5-6.4 6.8zm77.8 0h-12.6l24-56.4h11.4l24 56.4h-12.9l-5.1-12.6h-23.7zm17-41.6l-7.5 18.2h14.9zm83.6-14.4h23.3v56h-12.3v-18h-9l-12.5 18h-14.6l14.2-19.9q-5.8-2-9.2-6.2-3.3-4.3-3.3-10.6v-0.1q0-9.6 6.1-14.4 6.3-4.8 17.3-4.8zm11 27.2v-16.1h-12.3q-9.6 0-9.6 8.1 0 3.7 2.4 5.9 2.4 2.1 6.7 2.1 0.1 0 0.3 0z"/>
	<path id="2" d="m273 538h-43.6v-91.7h42.6q15.8 0 24 8.1 6.3 6.3 6.3 15.6v0.3q0 13.5-12.1 19.8 8.5 3.2 12.8 8.5 4.4 5.2 4.4 14v0.2q0 12.4-9.2 18.8-9.2 6.4-25.2 6.4zm9.2-64.3v-0.3q0-9.4-13.2-9.4h-19.9v19.4h18.6q14.5 0 14.5-9.7zm5.1 36.7v-0.3q0-10-14.9-10h-23.3v20.2h23.9q14.3 0 14.3-9.9zm106.5-64.8h17.8l38.4 92.4h-22.2l-25.5-64.1-25.1 64.1h-21.8zm122.4 92.4h-20.6l39.3-92.4h18.6l39.3 92.4h-21.1l-8.3-20.6h-38.8zm27.8-68.1l-12.2 29.7h24.3zm145.3 69.7q-20.2 0-33.7-13.6-13.3-13.7-13.3-33.6v-0.2q0-19.9 13.5-33.7 13.5-13.7 34.3-13.7 22 0 36.2 14.1l-12.9 14.8q-11.6-10.3-23.4-10.3-11.4 0-19 8.3-7.6 8.3-7.6 20.2v0.3q0 12 7.4 20.4 7.6 8.4 19.2 8.4 7.3 0 12.7-2.6 5.5-2.6 11.4-8.1l12.8 12.9q-7.6 8.3-16.4 12.3-8.6 4.1-21.2 4.1zm134.5-1.6h-20.1v-73.1h-27.9v-18.6h76v18.6h-28zm118.3 0h-35.6v-91.7h20.2v28.8h16.2q16.9 0 26.5 8 9.7 7.9 9.7 23v0.1q0 14.8-9.7 23.3-9.6 8.5-27.3 8.5zm-15.4-44.9v26.7h15.8q7.6 0 11.8-3.4 4.3-3.4 4.3-9.9v-0.2q0-6.3-4-9.7-4.1-3.5-11.9-3.5z"/>
</g>
</svg>
