<svg xmlns="http://www.w3.org/2000/svg" viewBox="0 0 1200 600" width="1200" height="600">
  <title>Flag Svitoshyn</title>
<g id="Flag">
<rect style="fill:#009" width="1200" height="600"/>
</g>
	<g id="TV" transform="translate(0,-30)">
		<path id="5" style="fill:rgb(165,170,170)" d="m355.4 88h490v301.7h-490z"/>
		<path id="4" style="fill:black" d="m369.4 99.2h462v279.3h-462z"/>
		<path id="3" style="fill:rgb(118,120,120)" d="m485.6 413.5h-28.7l-10.5-23.8h28.7zm240.1-23.8h28.7l-10.5 23.8h-28.7zm-300.3 45.5h350v9.8h-350zm47.6-29.4h261.8v7.7h-261.8z"/>
		<path id="2" style="fill:rgb(162,169,170)" d="m454.1 435.2h-28.7l31.5-21.7h28.7zm261.1-21.7h28.7l31.5 21.7h-28.7z"/>
		<path id="1" style="fill:rgb(48, 56, 56)" d="m369.4 239.9v-140.7h167.3z"/>
	</g>
	<g id="USSR">
		<path id="1" style="fill:white" d="m176.4 60.3h29.6l-23.1 17.6 8.3 27.8-23.2-17.6-24.1 17.6 9.3-27.8-24.1-17.6h29.7l9.2-27.8zm-14.8 4.6h-18.5l14.8 11.1-5.6 17.6 15.8-11.1 14.8 11.1-5.5-17.6 14.8-11.1h-18.5l-5.6-18.6z"/>
		<path id="2" style="fill:white" d="m100.4 177.1l20.4 20.4 18.5-18.6c29.7 31.5 60.3 61.2 89 92.7 4.6 4.7 12 4.7 16.7 0 3.7-3.7 3.7-11.1 0-15.7-31.5-28.8-63.1-58.4-93.7-88.1l26-26-36.2-4.6z"/>
		<path id="3" style="fill:white" d="m298.7 159.5c1-1 1-1 1-1.9 0 0-1.9 0-2.8-0.9-0.9-1-3.7-2.8-5.6-3.7-1.8-1-3.7-1.9-3.7-2.8-1.8 0-3.7-1.9-6.5-3.7-0.9-0.9-3.7-2.8-4.6-3.7-9.3-6.5-22.3-17.6-31.5-26-5.6-5.5-10.2-9.3-10.2-9.3-0.9 0-24.1 26.9-24.1 26.9 0 0 1.8 1.9 3.7 2.8 1.8 1.9 4.6 4.6 6.5 5.6 0.9 0.9 2.8 1.8 2.8 1.8 0 0-1 1-1.9 1.9-2.8 2.8-5.6 6.5-12.1 17.6-5.5 11.1-9.2 15.8-15.7 23.2-10.2 12.9-17.6 21.3-50.1 53.7-25.9 26-29.6 29.7-36.1 37.1-4.7 5.6-8.4 10.2-11.1 14.9l-1 0.9v0.9c1 3.7 7.4 10.2 11.1 12.1 1 0 1 0 1.9 0 0.9 0 0.9 0 2.8-2.8 2.8-4.7 8.3-11.1 15.7-19.5 11.2-13.9 23.2-26.9 49.2-52.8 6.5-6.5 13.9-13.9 16.7-16.7 15.7-16.7 38-40.8 46.3-51.9 0.9-1 1.9-1.9 1.9-1.9 0 0 6.5 6.5 8.3 9.3 1.9 1.8 3.7 3.7 4.6 4.6 1.9 2.8 2.8 3.7 4.7 5.6 0.9 1.8 2.8 3.7 3.7 5.5 1.8 1 2.8 3.8 4.6 4.7 1 1.8 1.9 2.8 1.9 2.8 0 0 2.8-1.9 4.6-2.8 8.4-5.6 14.8-12.1 19.5-20.4 2.8-2.8 4.6-7.4 5.5-11.1z"/>
	</g>
<path id="Text" style="fill:white" d="m166 535.4q-18.5 0-30.8-12.4-12.3-12.5-12.3-30.8v-0.2q0-18.2 12.4-30.8 12.4-12.6 31.4-12.6 20.2 0 33.2 12.9l-11.8 13.6q-9.5-9.5-20.3-9.5-11.6 0-18.6 7.7-6.9 7.5-6.9 18.5v0.2q0 11 6.8 18.7 7 7.7 18.7 7.7 11.5 0 20.9-9.8l11.8 11.8q-14 15-34.5 15zm77.2-1.4v-84h39q14.5 0 21.9 7.4 5.8 5.8 5.8 14.3v0.3q0 12.3-11 18.1 15.7 6 15.7 20.6v0.3q0 11.2-8.4 17.1-8.4 5.9-23.1 5.9zm48.4-58.9v-0.3q0-8.6-12.1-8.6h-18.3v17.8h17.1q13.3 0 13.3-8.9zm4.7 33.6v-0.3q0-9.1-13.7-9.1h-21.4v18.5h22q13.1 0 13.1-9.1zm136.2-58.7v84h-18.5v-54.8l-39.8 54.8h-16.4v-84h18.5v53.2l38.5-53.2zm86.2 84h-18.5v-67h-25.5v-17h69.6v17h-25.6zm64-41.7v-0.3q0-18.1 12.7-30.7 12.8-12.7 32-12.7 19.2 0 31.8 12.6 12.7 12.5 12.7 30.6v0.2q0 18.2-12.8 30.9-12.7 12.6-31.9 12.6-19.2 0-31.9-12.5-12.6-12.6-12.6-30.7zm69.9 0v-0.3q0-11-7.2-18.7-7.2-7.7-18.2-7.7-11.1 0-18.1 7.6-7.1 7.6-7.1 18.6v0.2q0 11.1 7.2 18.8 7.2 7.6 18.2 7.6 11.1 0 18.1-7.5 7.1-7.6 7.1-18.6zm178.9 41.7h-115.2v-84h18.5v67.2h29.9v-67.2h18.5v67.2h29.9v-67.2h18.4zm122.8-84v84h-18.5v-54.8l-39.8 54.8h-16.3v-84h18.4v53.2l38.6-53.2zm66.6 84h-18.5v-84h18.5v33.3h34v-33.3h18.5v84h-18.5v-33.7h-34z"/>
</svg>