<svg xmlns="http://www.w3.org/2000/svg" width="900" height="600">
<title>Flag Smolensk Republik</title>
<g id="Flag">
<rect width="900" height="600" style="fill:#C00"/>
<rect width="900" height="200" y="200" style="fill:#009"/>
</g>
<g id="Text">
<path id="2" style="fill:white" d="m93.8 544.9v-38.9q0-3.3-1.5-4.3-1.4-1.1-6.1-1.1v-4.6h3.2q2.5 0 4.3 0.2 1.7 0 2.9 0.4 1.2 0.3 2 1 0.8 0.6 1.5 1.6 4.3-3.9 13.3-3.9 4.8 0 8.7 1.3 3.8 1.1 6.2 3.5 4.5 4.3 4.5 12.2 0 8.1-5.8 12.4-5.7 4-13.3 4-2.5 0-7.1-0.5v16.7q0 3.3 1.5 4.4 1.6 1.1 6.2 1.1v4.6h-3.1q-2.7 0-4.5-0.1-1.7-0.1-3-0.5-1.1-0.4-2-1.1-0.8-0.6-1.6-1.6-0.7 1-1.5 1.6-0.8 0.7-2 1.1-1.2 0.4-2.9 0.5-1.8 0.1-4.3 0.1h-3.2v-4.6q4.7 0 6.1-1.1 1.5-1.1 1.5-4.4zm12.8-39v15.8q1.1 0.2 2 0.3 1 0 1.8 0 4.9 0 6.9-1.7 2.1-1.8 2.1-6v-5.9q0-3.6-1.9-5.7-1.8-2.1-5.2-2.1-5.7 0-5.7 5.3zm73 20.8h-2.3v16.8q0 3.8 3 5.4 3.1 1.5 6.1 1.5 1.9 0 3.6-0.9 1.9-0.8 3.6-2.4-2.7-3-2.7-5.4 0-2.8 2-5 2.2-2.2 5.1-2.2 3.1 0 5.5 1.7 2.5 1.5 2.5 5.5 0 1.4-0.9 3.1-0.7 1.6-0.7 3.1 0 3.2 3.2 5.9l-3 1.8q-1.6-1-3.1-2-1.4-1-2.8-2.1-3.7 2.4-6.4 3.3-2.7 0.8-6.3 0.8-7.7 0-15.2-3.9-0.8 1-1.6 1.6-0.7 0.7-2 1.1-1.2 0.4-2.9 0.5-1.7 0.1-4.3 0.1h-3.2v-4.6q4.8 0 6.2-1.1 1.5-1.1 1.5-4.4v-38.9q0-3.3-1.4-4.3-1.5-1.1-6.3-1.1v-4.6h3.2q2.6 0 4.3 0.2 1.7 0 2.9 0.4 1.3 0.3 2 1 0.8 0.6 1.6 1.6 7-3.9 15.7-3.9 7.4 0 13 3.4 1.2-0.7 2.4-1.6 1.3-0.9 2.7-1.8l3 1.8q-3.2 3-3.2 5.9 0 1.8 0.5 2.9 0.6 1.1 0.6 3 0 3.5-2.3 5.1-2.1 1.6-5.2 1.6-2.8 0-4.9-2.1-2-2.1-2-4.4 0-2.7 3.5-6.4-3.4-2.1-6.6-2.1-3.7 0-7.3 1.4-3.4 1.2-3.4 4.4v14.3h2.3q3.3 0 4.3-2.7 1.1-2.8 1.2-4.9h4.6l-0.1 21.2h-4.6q0-2.1-1.1-4.9-1-2.7-4.3-2.7zm95.7 27.2l-3.2 1.8q-1.6-1-3-1.9-1.3-1-2.5-1.8-4.2 3.7-9.5 3.7-5.6 0-9.8-2.3-4.1-2.4-6.7-6.5-2.7-4-4-9.5-1.2-5.6-1.2-11.9 0-6.4 1.2-11.8 1.3-5.5 4-9.6 2.7-4.1 6.8-6.5 4.1-2.3 9.7-2.3 5.4 0 9.5 3.8 1.2-0.8 2.5-1.7 1.4-1 3-2.1l3.2 1.8q-1.6 1.5-2.3 3-0.6 1.4-0.6 2.9 0 2.4 0.4 3.7 0.4 1.3 0.4 2.3 0 3-1.8 5.1-1.9 2-5.4 2-3.6 0-5.4-2.4-1.8-2.3-1.8-4.6 0-2.5 2.7-5.6-1.8-2.9-5.3-2.9-3.3 0-5 2.1-1.7 2-1.7 5.7v34.2q0 3.8 1.7 5.8 1.7 2 5 2 3.5 0 5.3-2.8-2.7-3.1-2.7-5.6 0-2.4 2-4.4 1.9-2.1 4.8-2.1 3.9 0 5.7 1.8 1.9 1.8 1.9 4.8 0 1-0.4 2.4-0.4 1.2-0.4 3.5 0 1.6 0.6 3.1 0.7 1.4 2.3 2.8zm46.2-47.9v38.9q0 2.9 0.9 4 1 1 4.1 1.5v4.6h-0.5q-2.7 0-4.4-0.1-1.8-0.1-3-0.5-1.2-0.4-2-1.1-0.8-0.6-1.6-1.6-0.7 1-1.5 1.6-0.8 0.7-2 1.1-1.2 0.4-2.9 0.5-1.8 0.1-4.4 0.1h-3.1v-4.6q4.6 0 6.1-1.1 1.5-1.1 1.5-4.4v-38.9q0-3.3-1.5-4.3-1.4-1.1-6.1-1.1v-4.6h3.1q2.6 0 4.4 0.2 1.7 0 2.9 0.4 1.2 0.3 2 1 0.8 0.6 1.5 1.6 0.8-1 1.6-1.6 0.8-0.7 2-1 1.2-0.4 3-0.4 1.7-0.2 4.4-0.2h3.8q2.6 0 4.3 0.2 1.8 0 2.9 0.4 1.3 0.3 2.1 1 0.8 0.6 1.6 1.6 1.4-2.1 3.5-2.6 2.2-0.6 7.3-0.6h3.1v4.6q-4.7 0-6.2 1.1-1.4 1-1.4 4.3v38.9q0 3.3 1.5 4.4 1.6 1.1 6.1 1.1v4.6h-3.1q-5.1 0-7.3-0.6-2.1-0.6-3.5-2.7-0.8 1-1.6 1.6-0.8 0.7-2.1 1.1-1.1 0.4-2.9 0.5-1.7 0.1-4.3 0.1h-0.7v-4.6q3.1-0.5 4.1-1.5 1.1-1.1 1.1-4v-38.9q0-2.6-1.1-4-1-1.4-4.1-1.4h-2.6q-3.1 0-4.1 1.4-0.9 1.4-0.9 4zm108.2-10h2.9v4.6q-4.7 0-6.2 1.1-1.4 1-1.4 4.3v36.1q0 6.7-4.5 10.4-4.5 3.7-13.8 3.7-7.2 0-12.5-4.5-1.1 1.1-2.8 2.2-1.7 1.1-3.6 2.3l-2.9-1.8q3.3-3 3.3-6 0-1.5-0.5-3.4-0.6-2-0.6-3.3 0-3.2 2.1-5.2 2.3-2 5.3-2 3.5 0 5.4 2.1 1.9 2 1.9 5.5 0 1.4-0.9 3-0.9 1.6-2.1 2.9 3.1 2.9 6.8 2.9 3.1 0 5-2.1 2-2.2 2-6.7v-14.1q-4.9 0.7-7.3 0.7-3.9 0-7.3-0.5-3.4-0.5-5.9-2-2.4-1.5-3.7-4.2-1.3-2.9-1.3-7.4v-8.6q0-3.3-1.6-4.3-1.6-1.1-3.2-1.1h-1.9v-4.6h3.6q4.1 0 5.9 0.7 1.9 0.6 3.3 2.7 1.7-2.2 3.7-2.7 2-0.7 6.5-0.7h1v4.6h-1q-1.5 0-2.7 1.1-1.3 1-1.3 4.3v8.3q0 4.2 2 6 2.1 1.7 7 1.7 0.9 0 1.9 0 1.1-0.1 2.3-0.3v-16.1q0-2.6-1.2-3.7-1.2-1.3-3-1.3h-0.9v-4.6h0.7q2.4 0 4 0.2 1.7 0.1 2.8 0.5 1.3 0.4 2.1 1 0.9 0.7 1.7 1.7 0.9-1 1.7-1.7 0.9-0.6 2.1-1 1.2-0.4 2.9-0.5 1.7-0.2 4.2-0.2zm71.5-0.7l2.5 2.3q-1.3 1.1-2.6 2.5-1.2 1.4-1.2 2.9 0 0.9 0.6 2.7 0.5 1.8 0.5 3.6 0 2.5-1.9 4.4-1.8 1.9-5 1.9-2.8 0-4.5-2.1-1.8-2.1-1.8-4.4 0-1.4 1-2.9 0.9-1.5 2.6-3.3-1.6-1-3.4-1.6-1.8-0.7-3.6-0.7-3.2 0-4.4 1.3-1.3 1.1-1.3 4v15.9q1.8-0.6 4.2-0.9 2.4-0.4 5.4-0.4 3.1 0 5.8 1 2.9 0.9 5 3 2.2 2 3.4 5.4 1.4 3.3 1.4 7.9 0 3.6-1.2 6.8-1.1 3.3-3.5 5.8-2.3 2.4-6 3.9-3.7 1.4-8.8 1.4-3.4 0-7.2-1.1-3.6-1.1-5-2.9-0.7 1-1.5 1.6-0.8 0.7-2 1.1-1.2 0.4-2.9 0.5-1.8 0.1-4.4 0.1h-3.1v-4.6q4.6 0 6.1-1.1 1.5-1.1 1.5-4.4v-38.9q0-3.3-1.5-4.3-1.5-1.1-6.1-1.1v-4.6h3.1q2.6 0 4.4 0.2 1.7 0 2.9 0.4 1.2 0.3 2 1 0.8 0.6 1.5 1.6 1.5-2 4.8-2.9 3.3-1 7.4-1 3.8 0 6.3 0.9 2.5 0.9 5.4 2.5 1-0.7 2.4-1.6 1.3-0.9 2.7-1.8zm-22.5 32.6v17.2q0 5.3 5.7 5.3 1.8 0 2.9-0.4 1.3-0.3 1.9-1.2 0.6-1 0.9-2.8 0.2-1.7 0.2-4.5v-5q0-3.1-0.4-4.9-0.3-1.9-1.1-2.9-0.6-1.1-1.8-1.4-1.1-0.4-2.6-0.4-1.3 0-3 0.3-1.5 0.2-2.7 0.7zm62.5-27.3v-4.6h4q8.9 0 11.4 3.2 1.4-1.8 4-2.5 2.7-0.7 7.1-0.7h2.9v4.6h-0.6q-2.5 0-4 0.5-1.4 0.3-1.4 1.9 0 0.5 0.2 1.6 0.2 1.1 0.4 1.8l9.8 40.1q0.6 2 1.7 2.9 1.3 1 4 1h0.8v4.6h-1.5q-5.6 0-7.9-0.7-2.3-0.8-3.7-2.6-1.1 1.8-3.5 2.6-2.3 0.7-6.2 0.7h-2.6v-4.6q3.1 0 4.4-0.6 1.4-0.6 1.4-2.3 0-0.7-0.2-1.6-0.1-0.9-0.4-2.4l-7.8-35.2-9.6 35.8q-0.5 2-0.5 3.3 0 1.6 1.3 2.3 1.3 0.7 3.8 0.7v4.6h-3q-3.2 0-4.9-0.7-1.5-0.8-2.6-2.6-1.3 1.8-2.9 2.6-1.5 0.7-5.7 0.7h-3.4v-4.6q4.3 0 6.2-1.4 1.9-1.4 3-5.3l10.7-37.3q0.5-1.9 0.6-2.5 0.2-0.8 0.2-1.4 0-1.9-4.4-1.9zm66.1 54.4h-3.1v-4.6q4.6 0 6.1-1.1 1.5-1.1 1.5-4.4v-38.9q0-3.3-1.5-4.3-1.4-1.1-6.1-1.1v-4.6h3.1q2.6 0 4.4 0.2 1.7 0 2.9 0.4 1.2 0.3 2 1 0.8 0.6 1.5 1.6 0.8-1 1.6-1.6 0.8-0.7 2-1 1.2-0.4 3-0.4 1.7-0.2 4.4-0.2h0.5v4.6q-2.8 0-3.9 1.4-1.1 1.2-1.1 4v26.2l15.2-26.2q0-2.8-1.2-4-1-1.4-3.8-1.4v-4.6h0.5q2.6 0 4.3 0.2 1.8 0 2.9 0.4 1.3 0.3 2.1 1 0.9 0.6 1.7 1.6 0.7-1 1.5-1.6 0.8-0.7 2-1 1.2-0.4 2.9-0.4 1.7-0.2 4.3-0.2h3.2v4.6q-4.7 0-6.2 1.1-1.5 1-1.5 4.3v38.9q0 3.3 1.5 4.4 1.6 1.1 6.2 1.1v4.6h-3.2q-2.6 0-4.3-0.1-1.7-0.1-2.9-0.5-1.2-0.4-2-1.1-0.8-0.6-1.5-1.6-0.8 1-1.7 1.6-0.8 0.7-2.1 1.1-1.1 0.4-2.9 0.5-1.7 0.1-4.3 0.1h-0.5v-4.6q2.8 0 3.8-1.3 1.2-1.3 1.2-4.2v-26.1l-15.2 26.1q0 2.9 1.1 4.2 1.1 1.3 3.9 1.3v4.6h-0.5q-2.7 0-4.4-0.1-1.8-0.1-3-0.5-1.2-0.4-2-1.1-0.8-0.6-1.6-1.6-0.7 1-1.5 1.6-0.8 0.7-2 1.1-1.2 0.4-2.9 0.5-1.8 0.1-4.4 0.1zm113.3 0l-11.3-26.8-3 4v12.7q0 3.1 1.3 4.3 1.4 1.2 5.5 1.2v4.6h-2.3q-2.6 0-4.4-0.1-1.8-0.1-3-0.5-1.2-0.4-2-1.1-0.9-0.6-1.6-1.6-0.7 1-1.6 1.6-0.7 0.7-2 1.1-1.1 0.4-2.9 0.5-1.7 0.1-4.3 0.1h-3.1v-4.6q4.7 0 6.1-1.1 1.5-1.1 1.5-4.4v-38.9q0-3.3-1.5-4.3-1.4-1.1-6.1-1.1v-4.6h3.1q2.6 0 4.3 0.2 1.8 0 2.9 0.4 1.3 0.3 2 1 0.9 0.6 1.6 1.6 0.7-1 1.6-1.6 0.8-0.7 2-1 1.2-0.4 3-0.4 1.8-0.2 4.4-0.2h2.3v4.6q-4.1 0-5.5 1.1-1.3 1.1-1.3 4.3v16.8l13.1-17.3q1.2-1.7 1.2-2.8 0-2.1-3.3-2.1v-4.6h1.2q4 0 5.8 0.5 1.7 0.4 2.6 2.1 2-2.6 6-2.6h2.9v4.6q-2.6 0-4.1 0.9-1.5 0.7-3.1 2.8l-10.1 13.8 12.6 28q1.1 2.4 2.2 3.3 1.2 1 4.1 1v4.6h-2.2q-3.9 0-5.9-0.5-1.8-0.5-3-1.9-2.3 2.2-5.7 2.4zm52.9-54.4h-1.1v-4.6h4q8.9 0 11.5 3.2 1.3-1.8 3.9-2.5 2.7-0.7 7.1-0.7h2.9v4.6h-0.6q-2.5 0-4 0.5-1.4 0.3-1.4 1.9 0 0.5 0.2 1.6 0.2 1.1 0.4 1.8l9.8 40.1q0.6 2 1.7 2.9 1.3 1 4 1h0.8v4.6h-1.5q-5.6 0-7.9-0.7-2.3-0.8-3.7-2.6-1.1 1.8-3.4 2.6-2.4 0.7-6.3 0.7h-2.6v-4.6q3.1 0 4.5-0.6 1.3-0.6 1.3-2.3 0-0.7-0.2-1.6-0.1-0.9-0.4-2.4l-1.6-7.3h-13.8l-2 7.9q-0.5 2-0.5 3.3 0 1.6 1.3 2.3 1.3 0.7 3.8 0.7v4.6h-3q-3.2 0-4.9-0.7-1.5-0.8-2.6-2.6-1.3 1.8-2.8 2.6-1.6 0.7-5.8 0.7h-3.4v-4.6q4.3 0 6.2-1.4 1.9-1.4 3-5.3l10.7-37.3q0.6-1.9 0.6-2.5 0.2-0.8 0.2-1.4 0-1.9-4.4-1.9zm11.2 7.7l-5.8 21.9h10.6z"/>
<path id="1" style="fill:white" d="m116.6 94.9l-3.1 1.8q-1.6-1-3-1.9-1.3-1-2.6-1.8-4.1 3.7-9.5 3.7-5.6 0-9.7-2.3-4.1-2.4-6.8-6.5-2.6-4-4-9.5-1.2-5.6-1.2-11.9 0-6.4 1.2-11.8 1.4-5.5 4-9.6 2.8-4.1 6.8-6.5 4.1-2.3 9.7-2.3 5.4 0 9.5 3.8 1.3-0.8 2.6-1.7 1.4-1 3-2.1l3.1 1.8q-1.6 1.5-2.2 3-0.7 1.4-0.7 2.9 0 2.4 0.4 3.7 0.5 1.3 0.5 2.3 0 3-1.9 5.1-1.8 2-5.4 2-3.5 0-5.4-2.4-1.7-2.3-1.7-4.6 0-2.5 2.6-5.6-1.8-2.9-5.3-2.9-3.2 0-4.9 2.1-1.7 2-1.7 5.7v34.2q0 3.8 1.7 5.8 1.7 2 4.9 2 3.5 0 5.3-2.8-2.6-3.1-2.6-5.6 0-2.4 1.9-4.4 2-2.1 4.8-2.1 3.9 0 5.7 1.8 2 1.8 2 4.8 0 1-0.5 2.4-0.4 1.2-0.4 3.5 0 1.6 0.7 3.1 0.6 1.4 2.2 2.8zm84.9-9v-41.4h-1l-16.6 51.5q-1 0-2.3-1.1-1.2-1.1-1.9-2.4-0.6 1.4-1.9 2.5-1.2 1-2.7 1l-14.6-51.5h-1v41.4q0 3.5 1.8 4.5 1.8 1 6.2 1v4.6h-1.4q-5.2 0-6.9-0.6-1.7-0.6-3-2.7-1.5 2.1-3.1 2.7-1.7 0.6-6.8 0.6h-1.4v-4.6q2.6 0 5.3-1.1 2.7-1.1 2.7-4.4v-38.9q0-3.3-2.7-4.3-2.7-1.1-5.3-1.1v-4.6h1.4q5.1 0 7.3 0.6 2.1 0.5 3.6 2.6 1.3-2.1 2.3-2.6 1-0.6 6.1-0.6h5.6l12.3 41.5 12.7-41.5h1.4q5.2 0 7.2 0.6 2 0.5 3.5 2.6 1.4-2.1 3.5-2.6 2.2-0.6 7.3-0.6h3.2v4.6q-4.8 0-6.3 1.1-1.5 1-1.5 4.3v38.9q0 3.3 1.6 4.4 1.6 1.1 6.2 1.1v4.6h-3.2q-5.1 0-7.3-0.6-2.1-0.6-3.5-2.7-1.5 2.1-3.9 2.7-2.4 0.6-7.7 0.6h-3v-4.6q4.6 0 6.2-1.1 1.6-1.1 1.6-4.4zm50.3-19.4q0-6.5 1.4-12.2 1.4-5.6 4-9.8 2.7-4.1 7.4-6.4 4.8-2.4 10.1-2.4 5.2 0 9.9 2.4 4.8 2.3 7.5 6.4 2.6 4.2 4 9.8 1.3 5.7 1.3 12.2 0 6.6-1.3 12.2-1.4 5.7-4 9.8-2.7 4.1-7.5 6.4-4.7 2.3-9.9 2.3-5.3 0-10.1-2.3-4.7-2.3-7.4-6.4-2.6-4.1-4-9.8-1.4-5.6-1.4-12.2zm14.2-15.1v30.1q0 5.6 2.4 7.8 2.4 2.1 6.3 2.1 3.7 0 6.1-2.1 2.4-2.2 2.4-7.8v-30.1q0-5.5-2.4-7.6-2.4-2.2-6.1-2.2-3.9 0-6.3 2.2-2.4 2.1-2.4 7.6zm71.4-9.8v-4.6h4q8.9 0 11.4 3.2 1.4-1.8 4-2.5 2.7-0.7 7.1-0.7h2.9v4.6h-0.6q-2.5 0-4 0.4-1.4 0.4-1.4 2 0 0.5 0.2 1.6 0.2 1.1 0.4 1.8l9.8 40.1q0.6 2 1.7 2.9 1.3 1 4 1h0.8v4.6h-1.5q-5.6 0-7.9-0.7-2.3-0.8-3.7-2.6-1.1 1.8-3.5 2.6-2.3 0.7-6.2 0.7h-2.6v-4.6q3.1 0 4.4-0.6 1.4-0.6 1.4-2.3 0-0.7-0.2-1.6-0.1-0.9-0.4-2.4l-7.8-35.2-9.6 35.8q-0.5 2-0.5 3.3 0 1.6 1.3 2.3 1.3 0.7 3.8 0.7v4.6h-3q-3.2 0-4.9-0.7-1.6-0.8-2.6-2.6-1.3 1.8-2.9 2.6-1.5 0.7-5.7 0.7h-3.4v-4.6q4.3 0 6.2-1.4 1.9-1.4 3-5.3l10.7-37.3q0.5-1.9 0.6-2.5 0.2-0.8 0.2-1.4 0-1.9-4.4-1.9zm85.7 26.1h-2.3v16.8q0 3.8 3.1 5.4 3 1.5 6 1.5 1.9 0 3.7-0.9 1.8-0.8 3.6-2.4-2.8-3-2.8-5.4 0-2.8 2.1-5 2.1-2.2 5.1-2.2 3 0 5.4 1.7 2.5 1.5 2.5 5.5 0 1.4-0.8 3.1-0.8 1.6-0.8 3.1 0 3.2 3.3 5.9l-3 1.8q-1.7-1-3.2-2-1.4-1-2.8-2.1-3.6 2.4-6.4 3.3-2.6 0.8-6.3 0.8-7.6 0-15.2-3.9-0.7 1-1.6 1.6-0.7 0.7-1.9 1.1-1.2 0.4-2.9 0.5-1.8 0.1-4.4 0.1h-3.1v-4.6q4.7 0 6.1-1.1 1.5-1.1 1.5-4.4v-38.9q0-3.3-1.4-4.3-1.4-1.1-6.2-1.1v-4.6h3.1q2.6 0 4.4 0.2 1.7 0 2.9 0.4 1.2 0.3 1.9 1 0.9 0.6 1.6 1.6 7-3.9 15.8-3.9 7.4 0 12.9 3.4 1.2-0.7 2.5-1.6 1.3-0.9 2.7-1.8l3 1.8q-3.3 3-3.3 5.9 0 1.8 0.5 2.9 0.6 1.1 0.6 3 0 3.5-2.2 5.1-2.2 1.6-5.2 1.6-2.9 0-4.9-2.1-2-2.1-2-4.4 0-2.7 3.4-6.4-3.4-2.1-6.6-2.1-3.6 0-7.2 1.4-3.5 1.2-3.5 4.4v14.3h2.3q3.3 0 4.3-2.7 1.1-2.8 1.2-4.9h4.7l-0.1 21.2h-4.7q0-2.1-1.1-4.9-1-2.7-4.3-2.7zm61.3 18.2v-38.9q0-3.3-1.5-4.3-1.4-1.1-6.2-1.1v-4.6h3.2q2.6 0 4.3 0.2 1.8 0 2.9 0.4 1.3 0.3 2 1 0.8 0.6 1.6 1.6 0.7-1 1.6-1.6 0.8-0.7 2-1 1.2-0.4 2.9-0.4 1.8-0.2 4.4-0.2h0.5v4.6q-3 0.4-4 1.5-0.9 1.1-0.9 3.9v14.7h12.7v-14.7q0-2.8-1-3.9-1-1.1-4.1-1.5v-4.6h0.7q2.5 0 4.3 0.2 1.7 0 2.9 0.4 1.2 0.3 2.1 1 0.8 0.6 1.5 1.6 1.4-2.1 3.6-2.6 2.2-0.6 7.2-0.6h3.2v4.6q-4.8 0-6.2 1.1-1.5 1-1.5 4.3v38.9q0 3.3 1.5 4.4 1.6 1.1 6.2 1.1v4.6h-3.2q-5 0-7.2-0.6-2.2-0.6-3.6-2.7-0.7 1-1.5 1.6-0.9 0.7-2.1 1.1-1.2 0.4-2.9 0.5-1.8 0.1-4.3 0.1h-0.7v-4.6q3.1-0.5 4.1-1.5 1-1.1 1-4v-18.2h-12.7v18.2q0 2.9 0.9 4 1 1 4 1.5v4.6h-0.5q-2.6 0-4.4-0.1-1.7-0.1-2.9-0.5-1.2-0.4-2-1.1-0.9-0.6-1.6-1.6-0.8 1-1.6 1.6-0.7 0.7-2 1.1-1.1 0.4-2.9 0.5-1.7 0.1-4.3 0.1h-3.2v-4.6q4.7 0 6.2-1.1 1.5-1.1 1.5-4.4zm113.6 9l-3.1 1.8q-1.6-1-3-1.9-1.4-1-2.6-1.8-4.2 3.7-9.5 3.7-5.6 0-9.8-2.3-4-2.4-6.7-6.5-2.6-4-4-9.5-1.2-5.6-1.2-11.9 0-6.4 1.2-11.8 1.4-5.5 4-9.6 2.8-4.1 6.8-6.5 4.1-2.3 9.7-2.3 5.4 0 9.5 3.8 1.2-0.8 2.6-1.7 1.4-1 3-2.1l3.1 1.8q-1.6 1.5-2.2 3-0.7 1.4-0.7 2.9 0 2.4 0.4 3.7 0.4 1.3 0.4 2.3 0 3-1.8 5.1-1.8 2-5.4 2-3.6 0-5.4-2.4-1.7-2.3-1.7-4.6 0-2.5 2.6-5.6-1.8-2.9-5.3-2.9-3.2 0-5 2.1-1.6 2-1.6 5.7v34.2q0 3.8 1.6 5.8 1.8 2 5 2 3.5 0 5.3-2.8-2.6-3.1-2.6-5.6 0-2.4 1.9-4.4 2-2.1 4.8-2.1 3.9 0 5.7 1.8 1.9 1.8 1.9 4.8 0 1-0.4 2.4-0.4 1.2-0.4 3.5 0 1.6 0.7 3.1 0.6 1.4 2.2 2.8zm60.6 1.1l-11.4-26.8-3 4v12.7q0 3.1 1.4 4.3 1.4 1.2 5.4 1.2v4.6h-2.2q-2.7 0-4.5-0.1-1.7-0.1-3-0.5-1.1-0.4-2-1.1-0.8-0.6-1.5-1.6-0.8 1-1.6 1.6-0.8 0.7-2 1.1-1.2 0.4-2.9 0.5-1.8 0.1-4.3 0.1h-3.2v-4.6q4.7 0 6.2-1.1 1.5-1.1 1.5-4.4v-38.9q0-3.3-1.5-4.3-1.5-1.1-6.2-1.1v-4.6h3.2q2.5 0 4.3 0.2 1.7 0 2.9 0.4 1.2 0.3 2 1 0.8 0.6 1.6 1.6 0.7-1 1.5-1.6 0.9-0.7 2-1 1.3-0.4 3-0.4 1.8-0.2 4.5-0.2h2.2v4.6q-4 0-5.4 1.1-1.4 1.1-1.4 4.3v16.8l13.2-17.3q1.2-1.7 1.2-2.8 0-2.1-3.3-2.1v-4.6h1.1q4.1 0 5.8 0.5 1.8 0.4 2.6 2.1 2-2.6 6.1-2.6h2.9v4.6q-2.6 0-4.2 0.9-1.5 0.7-3 2.8l-10.2 13.8 12.7 28q1 2.4 2.2 3.3 1.2 1 4.1 1v4.6h-2.2q-4 0-5.9-0.5-1.8-0.5-3.1-1.9-2.2 2.2-5.6 2.4zm52.9-54.4h-1.1v-4.6h4q8.9 0 11.4 3.2 1.4-1.8 4-2.5 2.7-0.7 7.1-0.7h2.9v4.6h-0.6q-2.5 0-4 0.4-1.4 0.4-1.4 2 0 0.5 0.2 1.6 0.2 1.1 0.4 1.8l9.8 40.1q0.5 2 1.7 2.9 1.3 1 4 1h0.7v4.6h-1.5q-5.5 0-7.8-0.7-2.4-0.8-3.7-2.6-1.2 1.8-3.5 2.6-2.3 0.7-6.2 0.7h-2.7v-4.6q3.2 0 4.5-0.6 1.4-0.6 1.4-2.3 0-0.7-0.2-1.6-0.1-0.9-0.4-2.4l-1.6-7.3h-13.9l-2 7.9q-0.5 2-0.5 3.3 0 1.6 1.4 2.3 1.3 0.7 3.8 0.7v4.6h-3q-3.2 0-4.9-0.7-1.6-0.8-2.6-2.6-1.3 1.8-2.9 2.6-1.5 0.7-5.7 0.7h-3.4v-4.6q4.2 0 6.1-1.4 1.9-1.4 3.1-5.3l10.6-37.3q0.6-1.9 0.7-2.5 0.2-0.8 0.2-1.4 0-1.9-4.4-1.9zm11.2 7.7l-5.8 21.9h10.6zm100.7 42.1v4.6h-3.2q-5.1 0-7.3-0.6-2.1-0.6-3.5-2.7-0.7 1-1.6 1.7-0.9 0.6-2.1 1-1.2 0.4-2.9 0.5-1.7 0.1-4.3 0.1h-3.3v-4.6q4.8 0 6.3-1.1 1.5-1.1 1.5-4.4v-18.2h-3.7q-4.7 0-6.8 3.2-2 3.2-2 9.4v15.7q-4.4-0.2-6.7-3.3-1.1 1.9-3.2 2.6-2.1 0.7-6.4 0.7h-2.3v-4.6h0.5q3.3 0 4.5-1.3 1.2-1.3 1.2-5v-6.4q0-5.3 1.7-8.5 1.6-3.2 6.5-5.3-4.9-1.7-7-4.8-2.1-3.3-2.1-8.6 0-3.1 1.2-5.9 1.2-2.7 3.6-4.8 2.4-2.1 5.9-3.2 3.6-1.3 8.2-1.3 4.7 0 8.2 1.1 3.5 1 5.1 2.8 1.4-2 3.5-2.6 2.2-0.6 7.3-0.6h3.2v4.6q-4.8 0-6.3 1.1-1.5 1-1.5 4.3v38.9q0 3.3 1.5 4.4 1.6 1.1 6.3 1.1zm-20.4-29.7v-14.2q0-3.3-1.3-4.5-1.2-1.4-4.6-1.4-3.4 0-5 1.8-1.6 1.7-1.6 5.6v4.8q0 4.4 1.9 6.2 1.9 1.7 6.7 1.7z"/>
</g>
</svg>