<svg xmlns="http://www.w3.org/2000/svg" width="1200" height="600">
	<title>Новый проект</title>
	<style>
		.s0 { fill: #000099 } 
		.s1 { fill: #ffffff } 
		.s2 { fill: #afb6bb } 
		.s3 { fill: #e7eced } 
		.s4 { fill: #38454f } 
		.s5 { fill: #839caa } 
		.s6 { fill: #99cccc } 
		.s7 { fill: #cccccc } 
	</style>
	<path id="Background" style="fill:#009" d="m0 0h1200v600h-1200z"/>
	<path id="L" style="fill:white" d="m172.5 61.4h28.7l-22.4 17.1 8.1 26.9-22.5-17.1-23.3 17.1 9-26.9-23.3-17.1h28.7l8.9-26.8zm-14.3 4.4h-17.9l14.3 10.8-5.4 17 15.3-10.7 14.3 10.7-5.4-17 14.4-10.8h-17.9l-5.4-17.9zm127.3 102.2c-4.5 8.1-10.8 14.3-18.9 19.7-1.8 0.9-4.4 2.7-4.4 2.7 0 0-0.9-0.9-1.8-2.7-1.8-0.9-2.7-3.6-4.5-4.5-0.9-1.8-2.7-3.6-3.6-5.3-1.8-1.8-2.7-2.7-4.5-5.4-0.9-0.9-2.7-2.7-4.5-4.5-1.8-2.7-8-9-8-9 0 0-0.9 0.9-1.8 1.8-7.5 10-26.4 30.6-41.3 46.4 15.5 14.6 31.1 29 46.6 43.3 3.6 4.4 3.6 11.6 0 15.2-4.4 4.5-11.6 4.5-16.1 0-14.1-15.5-28.6-30.5-43.3-45.5-2.2 2.3-4.6 4.7-6.9 6.9-25.1 25.1-36.7 37.7-47.5 51.1-7.2 8.1-12.5 14.4-15.2 18.9-1.8 2.6-1.8 2.6-2.7 2.6-0.9 0-0.9 0-1.8 0-3.6-1.7-9.9-8-10.8-11.6v-0.9l0.9-0.9c2.7-4.5 6.3-9 10.8-14.3 6.3-7.2 9.9-10.8 35-35.9 12-12 20.5-20.7 26.9-27.4-10.5-10.8-21-21.6-31.4-32.6l-18 17.9-19.7-19.7 39.5-38.6 34.9 4.5-25.1 25.1q15.7 15.2 31.7 30.4c3.5-4 6.4-7.6 9.6-11.6 6.2-7.1 9.8-11.6 15.2-22.4 6.3-10.7 9-14.3 11.6-17 0.9-0.9 1.8-1.8 1.8-1.8 0 0-1.8-0.9-2.7-1.8-1.7-0.9-4.4-3.6-6.2-5.4-1.8-0.9-3.6-2.7-3.6-2.7 0 0 22.4-26 23.3-26 0 0 4.5 3.6 9.8 9 9 8.1 21.6 18.8 30.5 25.1 0.9 0.9 3.6 2.7 4.5 3.6 2.7 1.8 4.5 3.6 6.3 3.6 0 0.9 1.8 1.8 3.6 2.7 1.8 0.9 4.4 2.7 5.3 3.5 0.9 0.9 2.7 0.9 2.7 0.9 0 0.9 0 0.9-0.9 1.8-0.9 3.6-2.7 8.1-5.3 10.8z"/>
	<g id="Computer">
		<path id="E" style="fill: #afb6bb" d="m683.4 489.4h-166.8c-1.9 0-2.5-2.6-1.2-3.9l14.1-9.6c15.4-10.9 22.4-30.1 17.9-48.7h105.2c-4.5 18.6 2.5 38.5 17.9 48.7l14.1 9.6c1.3 1.3 0.7 3.9-1.2 3.9z"/>
		<path id="E" style="fill: #e7eced" d="m797.5 427.2h-395c-14.7 0-26.9-12.2-26.9-26.9v-286.6c0-14.8 12.2-27 26.9-27h395c14.7 0 26.9 12.2 26.9 27v286.6c0 14.7-12.2 26.9-26.9 26.9zm-108.4 85.3h-178.2c-6.4 0-11.6-5.2-11.6-11.6 0-6.4 5.2-11.5 11.6-11.5h178.2c6.4 0 11.6 5.1 11.6 11.5 0 6.4-5.2 11.6-11.6 11.6z"/>
		<path id="E" style="fill: #38454f" d="m824.4 357.9h-448.8v-244.2c0-14.8 12.2-27 26.9-27h395c14.7 0 26.9 12.2 26.9 27z"/>
		<path id="E" style="fill: #839caa" d="m406.4 156.6c-2 0-3.9-0.6-5.2-2.6-3.2-3.2-3.2-7.6 0-10.9l30.8-30.7c3.2-3.2 7.7-3.2 10.9 0 3.2 3.2 3.2 7.7 0 10.9l-30.8 30.7c-1.9 2-3.8 2.6-5.7 2.6zm64.1-5.8c3.2-3.2 8.3-3.2 10.9 0 3.2 3.2 3.2 8.4 0 10.9l-69.3 69.9q-2.8 2-5.7 2c-2 0-3.9-0.7-5.2-2-3.2-3.2-3.2-7.7 0-10.9zm-27.5 0c1.3 1.3 2.5 3.9 2.5 5.8 0 1.9-1.2 3.8-2.5 5.1-1.3 1.3-3.2 2.6-5.2 2.6-2.5 0-4.4-1.3-5.7-2.6-1.3-1.3-2.6-3.2-2.6-5.1 0-1.9 1.3-4.5 2.6-5.8 3.2-2.5 8.3-2.5 10.9 0zm4.5-4.5c-3.2-3.2-3.2-7.7 0-10.9l23-23c3.2-3.2 8.4-3.2 10.9 0 3.2 3.2 3.2 7.7 0 10.9l-23 23c-1.3 1.3-3.2 2.6-5.2 2.6-1.9 0-3.8-1.3-5.7-2.6zm-41.1 48.8c-1.9 0-3.8-0.7-5.1-2-3.2-3.2-3.2-8.3 0-11.5l15.4-15.4c3.2-2.5 7.7-2.5 10.9 0 3.2 3.2 3.2 8.4 0 10.9l-15.4 16q-2.9 2-5.8 2zm91.1-59.7q1.9 2 1.9 5.8c0 1.9-0.6 3.9-1.9 5.1-2 1.3-3.9 2.6-5.8 2.6-1.9 0-3.8-1.3-5.8-2.6-1.3-1.2-1.9-3.2-1.9-5.1q0-3.8 1.9-5.8c3.2-2.5 8.4-2.5 11.6 0zm23-12.1l-7.6 7.7c-2 1.2-3.9 2.5-5.8 2.5-1.9 0-3.9-1.3-5.1-2.5-3.2-3.3-3.2-7.7 0-10.9l7.6-7.7c2.6-3.2 7.7-3.2 10.9 0 2.6 3.2 2.6 7.7 0 10.9z"/>
	</g>
	<g id="Phone">
		<path id="U" style="fill: #99cccc" d="m547.6 327.3h103.5v-174.8h-103.5z"/>
		<path id="U" style="fill: #ccc" d="m618.2 132.6c9.3 0.3 17.7 0.3 18.6 0.6 6.3 0.7 10.9 3.1 13.7 6.9 1.3 1.5 1.9 3.1 2.5 5.6l0.6 1.8 0.3 19.9c0 16.8 0 19.6 0.4 19.6 0.3 0.7 0.3 14 0 14.3-0.4 0.4-0.4 8.1-0.4 65l-0.3 64.7-0.3 1.6c-1.8 6.5-6.2 10.2-13.7 11.8-1.2 0.3-1.8 0.6-1.8 0.6 0.3 0.3 0 0.3-0.3 0.3-0.4 0.3-17.8 0.3-38.6 0.3-29.9 0-37.9 0-38.3-0.3 0 0 0-0.3 0.4-0.3 0.3 0-0.7-0.3-1.9-0.6-1.3-0.3-2.8-0.6-3.7-0.9-5-2.2-8.4-5.9-9.7-10.9l-0.6-1.9v-63.4c0-56-0.3-63.8-0.3-64.1-0.6-0.6-0.6-13.4 0-14 0.3-0.6 0.3-7.8 0-8.4-0.6-0.6-0.6-13 0-13.7 0-0.3 0.3-1.8 0.3-8.4 0-10.9 0-12.7 1.9-16.4 1.8-3.2 4-5.6 7.7-7.2 2.2-0.9 4.4-1.6 7.5-1.9 0.9-0.3 7.8-0.3 15.9-0.3 20.5-0.3 21.7-0.3 40.1-0.3zm31.4 22.4h-50.1c-27.7-0.3-50.4 0-50.4 0-0.3 0-0.3 17.1-0.3 84.9l0.3 84.6h100.5z"/>
	</g>
</svg>