<svg width="1200" height="600" xmlns="http://www.w3.org/2000/svg">
<title>Flag Soviet Anti-Alkogolj</title>
  <rect
     width="1200"
     height="600"
     style="fill:#c00"
     id="Flag" />
  <path
     id="Text"
     style="fill:#F93;stroke:#ffffff;stroke-width:0.8"
     transform="translate(0,-10)"
     d="m 86.4,459 v -3.5 h 6.9 v -51.1 h -6.9 v -3.5 h 25.5 v 3.5 h -5.8 v 22.1 h 3.1 l 1.2,-2.3 c 0.46667,-1 1,-2.26667 1.6,-3.8 0.66667,-1.6 1.43333,-3.3 2.3,-5.1 0.8,-1.86667 1.73333,-3.7 2.8,-5.5 1.06667,-1.86667 2.23333,-3.53333 3.5,-5 1.26667,-1.46667 2.66667,-2.7 4.2,-3.7 1.53333,-0.93333 3.26667,-1.4 5.2,-1.4 1.4,0 2.73333,0.16667 4,0.5 1.26667,0.26667 2.36667,0.6 3.3,1 -0.46667,1.26667 -0.86667,2.3 -1.2,3.1 -0.33333,0.8 -0.56667,1.63333 -0.7,2.5 -0.2,0.8 -0.33333,1.53333 -0.4,2.2 v 2.1 1.5 h -1.7 l -2.1,-0.7 c -0.53333,-0.33333 -1.06667,-0.56667 -1.6,-0.7 -0.46667,-0.2 -0.96667,-0.36667 -1.5,-0.5 -0.6,-0.13333 -1.23333,-0.2 -1.9,-0.2 -1.33333,0 -2.53333,0.36667 -3.6,1.1 -1,0.73333 -2.03333,1.8 -3.1,3.2 -1,1.46667 -2.03333,3.26667 -3.1,5.4 -1.13333,2.06667 -2.4,4.5 -3.8,7.3 0.26667,0 0.5,0.0333 0.7,0.1 0.2,0.0667 0.43333,0.13333 0.7,0.2 1.06667,0.26667 2.33333,0.63333 3.8,1.1 1.46667,0.4 2.96667,0.96667 4.5,1.7 1.6,0.8 3.2,1.83333 4.8,3.1 1.6,1.26667 3.03333,2.9 4.3,4.9 1.26667,2 2.3,4.36667 3.1,7.1 0.8,2.8 1.23333,6.06667 1.3,9.8 h 5 v 3.5 h -22.6 v -3.5 h 3.2 c 0.13333,-1.4 0.2,-2.76667 0.2,-4.1 0,-3.46667 -0.43333,-6.63333 -1.3,-9.5 -0.73333,-2.93333 -1.86667,-5.33333 -3.4,-7.2 -1.6,-1.93333 -3.36667,-3.26667 -5.3,-4 -1.93333,-0.8 -3.76667,-1.2 -5.5,-1.2 v 26 h 5.2 v 3.5 z m 83,2.2 c -0.26667,0 -0.56667,-0.0333 -0.9,-0.1 -0.33333,-0.2 -0.76667,-0.46667 -1.3,-0.8 l -2,-1.5 c -0.8,-0.66667 -1.76667,-1.5 -2.9,-2.5 -2.46667,-2.06667 -4.7,-4 -6.7,-5.8 -2,-1.86667 -3.66667,-3.73333 -5,-5.6 -1.4,-1.93333 -2.5,-4 -3.3,-6.2 -0.73333,-2.26667 -1.1,-4.86667 -1.1,-7.8 0,-3.26667 0.53333,-6.23333 1.6,-8.9 1.06667,-2.8 2.4,-5.33333 4,-7.6 1.6,-2.26667 3.33333,-4.26667 5.2,-6 1.93333,-1.86667 3.76667,-3.46667 5.5,-4.8 1.66667,-1.26667 3,-2.4 4,-3.4 1,-1 2.1,-1.5 3.3,-1.5 0.8,0 1.56667,0.5 2.3,1.5 0.8,0.93333 1.83333,2 3.1,3.2 1.6,1.6 3.36667,3.2 5.3,4.8 2,1.6 3.86667,3.4 5.6,5.4 1.73333,2 3.2,4.3 4.4,6.9 1.2,2.53333 1.8,5.53333 1.8,9 0,2.8 -0.36667,5.26667 -1.1,7.4 -0.73333,2.2 -1.76667,4.26667 -3.1,6.2 -1.33333,2 -3,4.03333 -5,6.1 -2,2 -4.26667,4.23333 -6.8,6.7 -1.06667,1 -1.96667,1.86667 -2.7,2.6 -0.66667,0.66667 -1.26667,1.23333 -1.8,1.7 -0.46667,0.33333 -0.9,0.6 -1.3,0.8 -0.33333,0.13333 -0.7,0.2 -1.1,0.2 z m 4.1,-10.7 c 1.4,-0.53333 2.73333,-1.23333 4,-2.1 1.26667,-0.93333 2.36667,-1.96667 3.3,-3.1 1,-1.13333 1.8,-2.33333 2.4,-3.6 0.6,-1.33333 0.9,-2.66667 0.9,-4 0,-1.33333 -0.3,-2.63333 -0.9,-3.9 -0.6,-1.33333 -1.4,-2.66667 -2.4,-4 -1,-1.4 -2.2,-2.83333 -3.6,-4.3 -1.33333,-1.53333 -2.76667,-3.13333 -4.3,-4.8 -1.6,-1.73333 -2.9,-3.16667 -3.9,-4.3 -0.93333,-1.06667 -1.73333,-2 -2.4,-2.8 -0.6,-0.8 -1.06667,-1.46667 -1.4,-2 -0.33333,-0.6 -0.63333,-1.26667 -0.9,-2 -1.66667,0.2 -3.13333,0.76667 -4.4,1.7 -1.26667,0.86667 -2.3,1.9 -3.1,3.1 -0.86667,1.2 -1.5,2.46667 -1.9,3.8 -0.4,1.33333 -0.6,2.53333 -0.6,3.6 0,2.53333 0.76667,5 2.3,7.4 1.6,2.46667 3.56667,4.93333 5.9,7.4 2,2.13333 3.66667,3.83333 5,5.1 1.33333,1.26667 2.4,2.4 3.2,3.4 0.93333,0.86667 1.6,1.7 2,2.5 0.46667,0.8 0.73333,1.76667 0.8,2.9 z m 53.9,8.5 v -3.5 h 4.3 l -8.2,-43.8 h -0.8 c -2.86667,5.4 -5.16667,10.23333 -6.9,14.5 -1.73333,4.2 -2.6,8.76667 -2.6,13.7 0,2.33333 0.13333,4.56667 0.4,6.7 0.33333,2.13333 0.6,4.5 0.8,7.1 0.0667,0.4 0.1,0.8 0.1,1.2 v 0 0.1 0.2 0.1 0 0.8 c 0,1.2 -0.1,2.03333 -0.3,2.5 -0.13333,0.4 -0.46667,0.73333 -1,1 -0.46667,0.2 -1.06667,0.3 -1.8,0.3 -0.53333,0 -1.03333,-0.0333 -1.5,-0.1 -0.46667,-0.0667 -0.96667,-0.13333 -1.5,-0.2 -0.4,-0.0667 -0.76667,-0.1 -1.1,-0.1 -0.33333,-0.0667 -0.7,-0.1 -1.1,-0.1 -0.4,0 -0.83333,0.0333 -1.3,0.1 -0.4,0 -0.83333,0.0333 -1.3,0.1 -0.26667,0.0667 -0.56667,0.1 -0.9,0.1 h -0.9 c -0.46667,0 -0.86667,-0.0333 -1.2,-0.1 -0.33333,-0.2 -0.63333,-0.46667 -0.9,-0.8 -0.2,-0.46667 -0.4,-1.1 -0.6,-1.9 -0.13333,-0.8 -0.2,-1.83333 -0.2,-3.1 0,-2.53333 0.23333,-4.86667 0.7,-7 0.46667,-2.13333 1.06667,-4.16667 1.8,-6.1 0.8,-1.93333 1.73333,-3.83333 2.8,-5.7 1.06667,-1.8 2.26667,-3.63333 3.6,-5.5 1.53333,-2.06667 3.03333,-4.06667 4.5,-6 1.53333,-2 2.93333,-3.93333 4.2,-5.8 1.26667,-1.93333 2.26667,-3.83333 3,-5.7 0.8,-1.86667 1.2,-3.73333 1.2,-5.6 0,-0.33333 -0.0333,-0.66667 -0.1,-1 0,-0.33333 -0.0333,-0.66667 -0.1,-1 h -6.1 v -3.5 h 23.7 v 3.5 h -4.6 l 10.5,48.7 9.2,-48.7 h -3.6 v -3.5 h 22.3 v 3.5 h -5.4 l 11.1,51.1 h 5.8 v 3.5 h -22.3 v -3.5 h 3.7 l -8.6,-43.8 h -0.8 l -8.2,43.8 h 4.4 v 3.5 z m 89.6,0 v -3.5 h 4.3 l -8.2,-43.8 h -0.8 c -2.86667,5.4 -5.16667,10.23333 -6.9,14.5 -1.73333,4.2 -2.6,8.76667 -2.6,13.7 0,2.33333 0.13333,4.56667 0.4,6.7 0.33333,2.13333 0.6,4.5 0.8,7.1 0.0667,0.4 0.1,0.8 0.1,1.2 v 0 0.1 0.2 0.1 0 0.8 c 0,1.2 -0.1,2.03333 -0.3,2.5 -0.13333,0.4 -0.46667,0.73333 -1,1 -0.46667,0.2 -1.06667,0.3 -1.8,0.3 -0.53333,0 -1.03333,-0.0333 -1.5,-0.1 -0.53333,-0.0667 -1.03333,-0.13333 -1.5,-0.2 -0.4,-0.0667 -0.76667,-0.1 -1.1,-0.1 -0.33333,-0.0667 -0.7,-0.1 -1.1,-0.1 -0.4,0 -0.83333,0.0333 -1.3,0.1 -0.46667,0 -0.9,0.0333 -1.3,0.1 -0.26667,0.0667 -0.56667,0.1 -0.9,0.1 h -0.9 c -0.46667,0 -0.86667,-0.0333 -1.2,-0.1 -0.33333,-0.2 -0.63333,-0.46667 -0.9,-0.8 -0.2,-0.46667 -0.4,-1.1 -0.6,-1.9 -0.13333,-0.8 -0.2,-1.83333 -0.2,-3.1 0,-2.53333 0.23333,-4.86667 0.7,-7 0.46667,-2.13333 1.06667,-4.16667 1.8,-6.1 0.8,-1.93333 1.73333,-3.83333 2.8,-5.7 1.06667,-1.8 2.26667,-3.63333 3.6,-5.5 1.53333,-2.06667 3.03333,-4.06667 4.5,-6 1.53333,-2 2.9,-3.93333 4.1,-5.8 1.33333,-1.93333 2.36667,-3.83333 3.1,-5.7 0.8,-1.86667 1.2,-3.73333 1.2,-5.6 0,-0.33333 -0.0333,-0.66667 -0.1,-1 0,-0.33333 -0.0333,-0.66667 -0.1,-1 H 304 v -3.5 h 23.7 v 3.5 h -4.6 l 10.5,48.7 9.2,-48.7 h -3.6 v -3.5 h 22.3 v 3.5 h -5.4 l 11.1,51.1 h 5.7 v 3.5 h -22.2 v -3.5 h 3.7 l -8.6,-43.8 H 345 l -8.2,43.8 h 4.4 v 3.5 z m 83.8,0 h -7.6 L 380,404.4 h -3.4 v -3.5 H 399 v 3.5 h -5.8 l 10.4,44.2 c 1.4,-6.46667 2.63333,-11.93333 3.7,-16.4 1,-4.46667 1.9,-8.16667 2.7,-11.1 0.8,-2.93333 1.4,-5.2 1.8,-6.8 0.53333,-1.6 0.9,-2.73333 1.1,-3.4 0.46667,-1.33333 0.96667,-2.66667 1.5,-4 0.53333,-1.33333 1.23333,-2.53333 2.1,-3.6 0.8,-1.06667 1.76667,-1.93333 2.9,-2.6 1.13333,-0.66667 2.53333,-1 4.2,-1 0.53333,0 1.13333,0.0667 1.8,0.2 0.73333,0.13333 1.46667,0.3 2.2,0.5 0.73333,0.2 1.36667,0.43333 1.9,0.7 0.6,0.33333 1.03333,0.66667 1.3,1 -0.2,1.06667 -0.4,1.8 -0.6,2.2 -0.2,0.33333 -0.36667,0.73333 -0.5,1.2 -0.2,0.4 -0.36667,1.06667 -0.5,2 -0.13333,0.8 -0.2,2.23333 -0.2,4.3 v 1.6 h -1.2 c -1,-0.46667 -1.9,-0.9 -2.7,-1.3 -0.73333,-0.46667 -1.46667,-0.7 -2.2,-0.7 -1.4,0 -2.6,0.4 -3.6,1.2 -0.93333,0.8 -1.73333,1.8 -2.4,3 -0.66667,1.2 -1.26667,2.56667 -1.8,4.1 -0.46667,1.46667 -0.9,2.93333 -1.3,4.4 -1.13333,4.06667 -2.13333,7.66667 -3,10.8 -0.8,3.13333 -1.5,5.93333 -2.1,8.4 -0.6,2.46667 -1.06667,4.7 -1.4,6.7 -0.33333,1.93333 -0.66667,3.76667 -1,5.5 h 4.1 v 3.5 h -4.3 c -0.2,2 -0.33333,3.73333 -0.4,5.2 v 4.1 c 0,1.8 0.0667,3.3 0.2,4.5 0.0667,1.13333 0.2,2.1 0.4,2.9 0.13333,0.73333 0.26667,1.36667 0.4,1.9 0.0667,0.46667 0.1,0.86667 0.1,1.2 0,0.2 -0.0333,0.5 -0.1,0.9 l -7.7,0.6 v -5.7 c 0.13333,-1.8 0.3,-3.5 0.5,-5.1 0.13333,-1.6 0.3,-3.23333 0.5,-4.9 0.26667,-1.73333 0.53333,-3.6 0.8,-5.6 z m 33.2,0 v -3.5 h 6.9 V 404.4 H 434 v -3.5 h 25.5 v 3.5 h -5.8 v 21 h 18.4 v -21 h -5.7 v -3.5 h 25.4 v 3.5 H 485 v 51.1 h 6.8 v 3.5 h -25.4 v -3.5 h 5.7 V 429 h -18.4 v 26.5 h 5.8 v 3.5 z m 64.3,0 v -3.5 h 6.9 v -51.1 h -6.9 v -3.5 h 25.5 v 3.5 H 518 v 31.3 l 18.4,-22.5 v -8.8 h -5.7 v -3.5 h 25.4 v 3.5 h -6.8 v 51.1 h 6.8 v 3.5 h -25.4 v -3.5 h 5.7 V 418.7 L 518,441.2 v 14.3 h 5.8 v 3.5 z m 98.1,-22.7 h -3.6 v -3.5 h 21.8 v 3.5 h -3.4 c -0.2,3.93333 -1.3,7.43333 -3.3,10.5 -1.93333,3.06667 -4.3,5.63333 -7.1,7.7 -2.86667,2.06667 -5.9,3.63333 -9.1,4.7 -3.13333,1.06667 -6.03333,1.6 -8.7,1.6 -1.6,0 -2.8,-0.0667 -3.6,-0.2 -0.86667,-0.2 -1.66667,-0.46667 -2.4,-0.8 v -2.3 c 0,-1.53333 -0.3,-3 -0.9,-4.4 -0.46667,-1.4 -1.13333,-2.73333 -2,-4 -0.73333,-1.26667 -1.56667,-2.43333 -2.5,-3.5 -0.93333,-1.2 -1.8,-2.33333 -2.6,-3.4 -1.46667,-2 -2.6,-3.8 -3.4,-5.4 -0.86667,-1.6 -1.5,-3.06667 -1.9,-4.4 -0.4,-1.33333 -0.66667,-2.56667 -0.8,-3.7 -0.0667,-1.13333 -0.1,-2.2 -0.1,-3.2 0.0667,-3.66667 0.7,-7.06667 1.9,-10.2 1.2,-3.2 2.9,-5.93333 5.1,-8.2 2.26667,-2.33333 4.96667,-4.13333 8.1,-5.4 3.13333,-1.33333 6.56667,-2 10.3,-2 4.26667,0 7.76667,0.63333 10.5,1.9 2.8,1.26667 5.06667,2.8 6.8,4.6 1.8,1.86667 3.1,3.86667 3.9,6 0.86667,2.06667 1.46667,4 1.8,5.8 h 3.4 v 3.5 H 592.8 V 418 h 3.6 c 0,-3.26667 -0.3,-5.86667 -0.9,-7.8 -0.6,-1.93333 -1.33333,-3.43333 -2.2,-4.5 -0.86667,-1.06667 -1.83333,-1.73333 -2.9,-2 -1.06667,-0.33333 -2.06667,-0.5 -3,-0.5 -1.26667,0 -2.5,0.3 -3.7,0.9 -1.2,0.6 -2.3,1.6 -3.3,3 -0.86667,1.4 -1.56667,3.23333 -2.1,5.5 -0.53333,2.26667 -0.8,5.1 -0.8,8.5 0,3.66667 0.26667,7.13333 0.8,10.4 0.6,3.2 1.3,6.53333 2.1,10 0.66667,2.73333 1.16667,5.06667 1.5,7 0.26667,1.8 0.4,3.46667 0.4,5 0,0.8 -0.13333,1.56667 -0.4,2.3 -0.13333,0.66667 -0.33333,1.46667 -0.6,2.4 0.4,0.33333 1.06667,0.5 2,0.5 1.26667,0 2.66667,-0.53333 4.2,-1.6 1.53333,-1.06667 2.96667,-2.46667 4.3,-4.2 1.33333,-1.86667 2.43333,-4 3.3,-6.4 0.93333,-2.53333 1.4,-5.2 1.4,-8 v -1.2 c 0,-0.33333 -0.0333,-0.66667 -0.1,-1 z m 39.3,22.7 v -3.5 h 6.9 V 404.4 H 639 c -1.4,0 -2.6,0.0667 -3.6,0.2 -1,0.13333 -1.9,0.5 -2.7,1.1 -0.66667,0.53333 -1.33333,1.4 -2,2.6 -0.53333,1.06667 -1.06667,2.6 -1.6,4.6 -0.4,1.2 -0.7,2.3 -0.9,3.3 -0.2,0.93333 -0.4,1.73333 -0.6,2.4 -0.2,0.66667 -0.46667,1.2 -0.8,1.6 -0.33333,0.33333 -0.83333,0.5 -1.5,0.5 -0.93333,0 -1.6,-0.5 -2,-1.5 -0.26667,-0.66667 -0.4,-1.53333 -0.4,-2.6 0,-1.13333 -0.16667,-2.33333 -0.5,-3.6 -0.2,-1.06667 -0.5,-2.1 -0.9,-3.1 -0.4,-1 -0.76667,-1.93333 -1.1,-2.8 -0.4,-0.86667 -0.73333,-1.66667 -1,-2.4 -0.26667,-0.73333 -0.4,-1.33333 -0.4,-1.8 0,-1.26667 0.33333,-2.1 1,-2.5 0.6,-0.4 1.3,-0.6 2.1,-0.6 0.53333,0 1.06667,0.0667 1.6,0.2 0.53333,0.0667 0.93333,0.13333 1.2,0.2 0.73333,0.2 1.43333,0.36667 2.1,0.5 0.66667,0 1.4,0.0333 2.2,0.1 0.86667,0.0667 1.9,0.1 3.1,0.1 h 0.6 0.5 0.5 0.3 1.9 25.9 0.2 0.2 0.5 v 0 h 0.6 0.3 1.7 0.4 c 1.26667,0 2.3,-0.0333 3.1,-0.1 0.86667,-0.0667 1.6,-0.1 2.2,-0.1 0.66667,-0.13333 1.33333,-0.3 2,-0.5 0.26667,-0.0667 0.63333,-0.13333 1.1,-0.2 0.53333,-0.13333 1.1,-0.2 1.7,-0.2 0.73333,0 1.43333,0.2 2.1,0.6 0.66667,0.4 1,1.23333 1,2.5 0,0.53333 -0.1,1.03333 -0.3,1.5 -0.13333,0.4 -0.36667,0.93333 -0.7,1.6 -0.33333,0.66667 -0.73333,1.53333 -1.2,2.6 -0.4,1.06667 -0.83333,2.53333 -1.3,4.4 -0.26667,1.26667 -0.43333,2.23333 -0.5,2.9 v 2.1 c 0,0.8 -0.2,1.43333 -0.6,1.9 -0.4,0.53333 -1,0.8 -1.8,0.8 -0.53333,0 -0.96667,-0.16667 -1.3,-0.5 -0.26667,-0.26667 -0.5,-0.7 -0.7,-1.3 -0.26667,-0.6 -0.53333,-1.4 -0.8,-2.4 -0.2,-1 -0.5,-2.2 -0.9,-3.6 -0.46667,-1.86667 -1,-3.33333 -1.6,-4.4 -0.53333,-1.13333 -1.2,-2 -2,-2.6 -0.66667,-0.6 -1.53333,-1 -2.6,-1.2 -1,-0.2 -2.26667,-0.3 -3.8,-0.3 h -3.5 v 51.1 h 6.9 v 3.5 z m 48.7,0 v -3.5 h 6.9 v -51.1 h -6.9 v -3.5 h 25.5 v 3.5 h -5.8 v 31.3 l 18.4,-22.5 v -8.8 h -5.7 v -3.5 h 25.4 v 3.5 h -6.8 v 51.1 h 6.8 v 3.5 h -25.4 v -3.5 h 5.7 v -36.8 l -18.4,22.5 v 14.3 h 5.8 v 3.5 z m 96.7,0 v -3.5 h 5.7 v -22.1 c -2.13333,0 -4.3,-0.0667 -6.5,-0.2 -2.06667,-0.2 -4.13333,-0.46667 -6.2,-0.8 -2,-0.33333 -3.9,-0.76667 -5.7,-1.3 -1.86667,-0.6 -3.53333,-1.4 -5,-2.4 -1.86667,-1.13333 -3.4,-2.53333 -4.6,-4.2 -1.13333,-1.66667 -2.1,-3.53333 -2.9,-5.6 -0.73333,-2.06667 -1.26667,-4.33333 -1.6,-6.8 -0.33333,-2.4 -0.53333,-4.96667 -0.6,-7.7 h -5 v -3.5 h 24.9 v 3.5 H 768 c 0,4.33333 0.2,8.1 0.6,11.3 0.46667,3.13333 1.33333,5.76667 2.6,7.9 1.33333,2.13333 3.2,3.73333 5.6,4.8 2.53333,1 5.86667,1.5 10,1.5 v -25.5 h -5.2 v -3.5 h 24.9 v 3.5 h -6.8 v 51.1 h 6.8 v 3.5 z m 79.4,-25.6 h -20.6 v -3.5 h 3.1 c -0.6,-1.86667 -1.46667,-3.16667 -2.6,-3.9 -1.13333,-0.66667 -2,-1 -2.6,-1 -1.53333,0 -3.16667,0.26667 -4.9,0.8 -1.73333,0.53333 -3.23333,1.53333 -4.5,3 0.4,2.46667 0.76667,4.53333 1.1,6.2 0.33333,1.66667 0.66667,3.1 1,4.3 0.33333,1.26667 0.63333,2.33333 0.9,3.2 0.33333,0.86667 0.6,1.73333 0.8,2.6 0.2,0.86667 0.36667,1.83333 0.5,2.9 0.13333,1 0.2,2.23333 0.2,3.7 0,1 -0.1,1.86667 -0.3,2.6 -0.13333,0.66667 -0.33333,1.26667 -0.6,1.8 0.8,0.4 1.83333,0.6 3.1,0.6 2.86667,0 5.23333,-0.46667 7.1,-1.4 1.93333,-0.93333 3.46667,-2.06667 4.6,-3.4 1.13333,-1.33333 2,-2.7 2.6,-4.1 0.53333,-1.46667 0.9,-2.66667 1.1,-3.6 h -4.1 v -3.4 h 21.7 v 3.4 h -3 c -1.33333,2.4 -2.93333,4.6 -4.8,6.6 -1.8,1.93333 -3.76667,3.6 -5.9,5 -2.13333,1.33333 -4.36667,2.4 -6.7,3.2 -2.33333,0.8 -4.63333,1.2 -6.9,1.2 -1.06667,0 -2.2,-0.0333 -3.4,-0.1 -1.2,-0.0667 -2.43333,-0.16667 -3.7,-0.3 -1.2,-0.13333 -2.4,-0.3 -3.6,-0.5 -1.06667,-0.2 -2.03333,-0.43333 -2.9,-0.7 0.0667,-0.33333 0.1,-0.66667 0.1,-1 0.0667,-0.33333 0.1,-0.66667 0.1,-1 0,-2.4 -0.56667,-4.46667 -1.7,-6.2 -1.06667,-1.86667 -2.2,-3.5 -3.4,-4.9 -1.8,-2.2 -3.3,-4.13333 -4.5,-5.8 -1.13333,-1.66667 -2.03333,-3.2 -2.7,-4.6 -0.66667,-1.4 -1.13333,-2.76667 -1.4,-4.1 -0.26667,-1.33333 -0.4,-2.83333 -0.4,-4.5 0,-3.8 0.5,-7.06667 1.5,-9.8 1,-2.8 2.26667,-5.2 3.8,-7.2 1.53333,-2 3.3,-3.63333 5.3,-4.9 2.06667,-1.26667 4.13333,-2.26667 6.2,-3 2.13333,-0.66667 4.2,-1.13333 6.2,-1.4 2,-0.33333 3.8,-0.5 5.4,-0.5 2,0 4.1,0.2 6.3,0.6 2.26667,0.4 4.46667,1.1 6.6,2.1 2.13333,0.93333 4.1,2.26667 5.9,4 1.8,1.66667 3.2,3.8 4.2,6.4 h 4 v 3.5 h -20.6 v -3.5 h 2.6 c -0.2,-1.06667 -0.53333,-2.16667 -1,-3.3 -0.46667,-1.13333 -1.16667,-2.16667 -2.1,-3.1 -0.86667,-0.93333 -1.93333,-1.7 -3.2,-2.3 -1.26667,-0.6 -2.83333,-0.9 -4.7,-0.9 -2.66667,0 -4.76667,0.76667 -6.3,2.3 -1.6,1.53333 -2.8,3.36667 -3.6,5.5 -0.8,2.13333 -1.3,4.36667 -1.5,6.7 -0.2,2.33333 -0.3,4.3 -0.3,5.9 v 1 c 0,0.33333 0.0333,0.66667 0.1,1 1.8,-1.6 3.83333,-2.86667 6.1,-3.8 2.26667,-1 4.86667,-1.5 7.8,-1.5 1.4,0 2.83333,0.2 4.3,0.6 1.46667,0.33333 2.9,0.9 4.3,1.7 1.46667,0.73333 2.73333,1.73333 3.8,3 1.2,1.2 2.1,2.63333 2.7,4.3 h 3.4 z m 47.6,2.9 h -3.6 v -3.5 h 21.7 v 3.5 h -3.4 c -0.13333,3.93333 -1.2,7.43333 -3.2,10.5 -1.93333,3.06667 -4.3,5.63333 -7.1,7.7 -2.86667,2.06667 -5.9,3.66667 -9.1,4.8 -3.13333,1 -6.03333,1.5 -8.7,1.5 -1.6,0 -2.83333,-0.0667 -3.7,-0.2 -0.8,-0.2 -1.6,-0.46667 -2.4,-0.8 v -2.3 c 0,-1.53333 -0.26667,-3 -0.8,-4.4 -0.46667,-1.4 -1.13333,-2.73333 -2,-4 -0.8,-1.26667 -1.66667,-2.43333 -2.6,-3.5 -0.86667,-1.2 -1.7,-2.33333 -2.5,-3.4 -1.46667,-1.93333 -2.6,-3.7 -3.4,-5.3 -0.86667,-1.66667 -1.5,-3.13333 -1.9,-4.4 -0.4,-1.4 -0.66667,-2.66667 -0.8,-3.8 -0.0667,-1.13333 -0.1,-2.2 -0.1,-3.2 0,-3.66667 0.6,-7.06667 1.8,-10.2 1.26667,-3.2 3,-5.93333 5.2,-8.2 2.26667,-2.26667 4.93333,-4.06667 8,-5.4 3.2,-1.26667 6.66667,-1.9 10.4,-1.9 4.2,0 7.7,0.63333 10.5,1.9 2.8,1.2 5.06667,2.7 6.8,4.5 1.73333,1.86667 3.03333,3.86667 3.9,6 0.86667,2.13333 1.43333,4.06667 1.7,5.8 h 3.4 v 3.5 H 904.5 V 418 h 3.6 c 0,-3.26667 -0.33333,-5.86667 -1,-7.8 -0.53333,-1.93333 -1.23333,-3.43333 -2.1,-4.5 -0.86667,-1 -1.83333,-1.66667 -2.9,-2 -1.06667,-0.33333 -2.06667,-0.5 -3,-0.5 -1.26667,0 -2.5,0.33333 -3.7,1 -1.26667,0.6 -2.36667,1.56667 -3.3,2.9 -0.86667,1.4 -1.56667,3.23333 -2.1,5.5 -0.6,2.26667 -0.9,5.1 -0.9,8.5 0,3.66667 0.3,7.13333 0.9,10.4 0.6,3.26667 1.3,6.6 2.1,10 0.66667,2.8 1.13333,5.13333 1.4,7 0.26667,1.8 0.4,3.46667 0.4,5 0,0.8 -0.1,1.56667 -0.3,2.3 -0.13333,0.73333 -0.36667,1.53333 -0.7,2.4 0.4,0.33333 1.06667,0.5 2,0.5 1.26667,0 2.7,-0.53333 4.3,-1.6 1.53333,-1.06667 2.96667,-2.46667 4.3,-4.2 1.33333,-1.86667 2.43333,-4 3.3,-6.4 0.86667,-2.53333 1.3,-5.2 1.3,-8 v -1.1 z m 23.7,22.7 v -3.5 h 6.9 v -51.1 h -6.9 v -3.5 h 25.5 v 3.5 h -5.8 v 22.2 h 3.1 l 1.2,-2.4 c 0.46667,-1 1,-2.26667 1.6,-3.8 0.66667,-1.6 1.43333,-3.3 2.3,-5.1 0.8,-1.86667 1.73333,-3.7 2.8,-5.5 1.06667,-1.8 2.23333,-3.46667 3.5,-5 1.26667,-1.46667 2.66667,-2.66667 4.2,-3.6 1.53333,-0.93333 3.26667,-1.4 5.2,-1.4 1.4,0 2.7,0.13333 3.9,0.4 1.33333,0.26667 2.46667,0.6 3.4,1 -0.46667,1.26667 -0.86667,2.3 -1.2,3.1 -0.33333,0.86667 -0.56667,1.7 -0.7,2.5 -0.2,0.8 -0.33333,1.53333 -0.4,2.2 -0.0667,0.73333 -0.1,1.43333 -0.1,2.1 v 1.5 h -1.6 l -2.1,-0.7 c -0.53333,-0.26667 -1.06667,-0.5 -1.6,-0.7 -0.46667,-0.2 -0.96667,-0.36667 -1.5,-0.5 -0.6,-0.13333 -1.26667,-0.2 -2,-0.2 -1.26667,0 -2.43333,0.36667 -3.5,1.1 -1,0.73333 -2.03333,1.83333 -3.1,3.3 -1,1.4 -2.03333,3.16667 -3.1,5.3 -1.13333,2.06667 -2.4,4.5 -3.8,7.3 0.26667,0.0667 0.5,0.1 0.7,0.1 0.2,0.0667 0.43333,0.13333 0.7,0.2 1.06667,0.26667 2.33333,0.63333 3.8,1.1 1.46667,0.4 2.96667,0.96667 4.5,1.7 1.6,0.8 3.2,1.83333 4.8,3.1 1.6,1.26667 3.03333,2.9 4.3,4.9 1.26667,2 2.26667,4.36667 3,7.1 0.86667,2.8 1.33333,6.06667 1.4,9.8 h 5 v 3.5 h -22.6 v -3.5 h 3.2 c 0.13333,-1.4 0.2,-2.73333 0.2,-4 0,-3.53333 -0.43333,-6.73333 -1.3,-9.6 -0.73333,-2.93333 -1.86667,-5.33333 -3.4,-7.2 -1.6,-1.93333 -3.36667,-3.26667 -5.3,-4 -1.93333,-0.8 -3.76667,-1.2 -5.5,-1.2 v 26 h 5.2 v 3.5 z m 59.7,0 v -3.5 h 6.9 v -51.1 h -6.9 v -3.5 h 25.4 v 3.5 h -5.7 v 31.3 l 18.4,-22.5 v -8.8 h -5.8 v -3.5 h 25.5 v 3.5 h -6.9 v 51.1 h 6.9 v 3.5 h -25.5 v -3.5 h 5.8 v -36.7 l -18.4,22.4 v 14.3 h 5.7 v 3.5 z m 103.1,-74 3.7,1.3 c -0.7333,1.8 -1.6,3.46667 -2.6,5 -1,1.46667 -2.1,2.76667 -3.3,3.9 -1.1333,1.06667 -2.3667,1.9 -3.7,2.5 -1.3333,0.53333 -2.6333,0.8 -3.9,0.8 -1.4667,0 -2.8667,-0.33333 -4.2,-1 -1.2667,-0.66667 -2.4,-1.6 -3.4,-2.8 -1,-1.2 -1.8667,-2.6 -2.6,-4.2 -0.6667,-1.66667 -1.1667,-3.46667 -1.5,-5.4 l 3.3,-1 c 0.067,0.33333 0.2667,0.9 0.6,1.7 0.3333,0.8 0.8,1.56667 1.4,2.3 0.6667,0.73333 1.4667,1.4 2.4,2 0.9333,0.6 2.1,0.9 3.5,0.9 1.5333,0 2.8667,-0.23333 4,-0.7 1.2667,-0.53333 2.3,-1.1 3.1,-1.7 0.8667,-0.66667 1.5667,-1.33333 2.1,-2 0.5333,-0.66667 0.9,-1.2 1.1,-1.6 z m -38.7,74 v -3.5 h 6.9 v -51.1 h -6.9 v -3.5 h 24.5 v 3.5 h -4.8 v 31.3 l 18.4,-22.5 v -8.8 h -4.8 v -3.5 h 24.5 v 3.5 h -6.9 v 51.1 h 6.9 v 3.5 h -25.5 v -3.5 h 5.8 v -36.7 l -18.4,22.4 v 14.3 h 5.8 V 459 Z M 202.5,559 v -3.5 h 6.9 v -51.1 h -6.9 v -3.5 h 29.7 c 2.46667,0 4.33333,-0.0667 5.6,-0.2 1.33333,-0.13333 2.36667,-0.3 3.1,-0.5 0.73333,-0.2 1.26667,-0.33333 1.6,-0.4 0.46667,-0.2 1.1,-0.3 1.9,-0.3 0.93333,0 1.6,0.33333 2,1 0.46667,0.6 0.7,1.33333 0.7,2.2 0,0.93333 -0.3,1.96667 -0.9,3.1 -0.53333,1.2 -1.03333,2.6 -1.5,4.2 -0.26667,1 -0.43333,1.73333 -0.5,2.2 -0.0667,0.46667 -0.13333,0.9 -0.2,1.3 -0.0667,0.4 -0.1,0.86667 -0.1,1.4 0,0.4 -0.1,1.1 -0.3,2.1 -0.13333,0.53333 -0.33333,0.96667 -0.6,1.3 -0.33333,0.33333 -0.83333,0.5 -1.5,0.5 -0.66667,0 -1.16667,-0.16667 -1.5,-0.5 -0.26667,-0.33333 -0.46667,-0.73333 -0.6,-1.2 -0.53333,-1.66667 -1.03333,-3.23333 -1.5,-4.7 -0.4,-1.6 -1.03333,-2.96667 -1.9,-4.1 -0.86667,-1.13333 -2.13333,-2.06667 -3.8,-2.8 -1.6,-0.73333 -3.86667,-1.1 -6.8,-1.1 h -3.1 v 20.8 c 1,0.93333 2.23333,1.83333 3.7,2.7 1.53333,0.8 3.13333,1.5 4.8,2.1 1.66667,0.53333 3.33333,0.96667 5,1.3 1.66667,0.33333 3.16667,0.5 4.5,0.5 0.6,0 1.16667,-0.0333 1.7,-0.1 0.53333,-0.0667 1.1,-0.1 1.7,-0.1 0.8,0 1.53333,0.0333 2.2,0.1 0.66667,0.0667 1.2,0.26667 1.6,0.6 0.53333,0.33333 0.9,0.86667 1.1,1.6 0.26667,0.73333 0.4,1.76667 0.4,3.1 v 16.2 c 0,1.33333 -0.1,2.4 -0.3,3.2 -0.2,0.66667 -0.5,1.23333 -0.9,1.7 -0.4,0.4 -0.93333,0.63333 -1.6,0.7 -0.66667,0.13333 -1.46667,0.2 -2.4,0.2 z m 19.7,-3.5 h 10.2 c 0.6,0 1.1,-0.0333 1.5,-0.1 0.53333,-0.0667 0.93333,-0.3 1.2,-0.7 0.33333,-0.4 0.56667,-0.96667 0.7,-1.7 0.2,-0.73333 0.3,-1.73333 0.3,-3 v -9.4 c 0,-0.66667 -0.0333,-1.2 -0.1,-1.6 -0.0667,-0.4 -0.26667,-0.8 -0.6,-1.2 -0.26667,-0.33333 -0.76667,-0.73333 -1.5,-1.2 -0.66667,-0.46667 -1.63333,-1.03333 -2.9,-1.7 -1.93333,-1.13333 -3.56667,-2.13333 -4.9,-3 -1.33333,-0.93333 -2.63333,-2.1 -3.9,-3.5 z m 101.7,-22.1 h -20.6 v -3.5 h 3.1 c -0.6,-1.86667 -1.46667,-3.16667 -2.6,-3.9 -1.06667,-0.73333 -1.93333,-1.1 -2.6,-1.1 -1.53333,0 -3.16667,0.3 -4.9,0.9 -1.73333,0.53333 -3.23333,1.53333 -4.5,3 0.4,2.46667 0.76667,4.53333 1.1,6.2 0.33333,1.66667 0.66667,3.1 1,4.3 0.33333,1.2 0.66667,2.26667 1,3.2 0.26667,0.86667 0.5,1.73333 0.7,2.6 0.2,0.86667 0.36667,1.8 0.5,2.8 0.13333,1 0.2,2.26667 0.2,3.8 0,1 -0.1,1.83333 -0.3,2.5 -0.13333,0.73333 -0.33333,1.36667 -0.6,1.9 0.8,0.33333 1.83333,0.5 3.1,0.5 2.86667,0 5.26667,-0.46667 7.2,-1.4 1.86667,-0.93333 3.36667,-2.06667 4.5,-3.4 1.2,-1.33333 2.06667,-2.66667 2.6,-4 0.53333,-1.46667 0.93333,-2.66667 1.2,-3.6 h -4.2 v -3.4 h 21.7 v 3.4 h -3 c -1.33333,2.4 -2.93333,4.6 -4.8,6.6 -1.8,1.93333 -3.76667,3.56667 -5.9,4.9 -2.13333,1.4 -4.36667,2.5 -6.7,3.3 -2.33333,0.73333 -4.63333,1.1 -6.9,1.1 h -3.4 c -1.2,-0.0667 -2.43333,-0.16667 -3.7,-0.3 -1.2,-0.13333 -2.4,-0.3 -3.6,-0.5 -1.06667,-0.2 -2.03333,-0.43333 -2.9,-0.7 0.0667,-0.33333 0.1,-0.66667 0.1,-1 0.0667,-0.33333 0.1,-0.66667 0.1,-1 0,-2.4 -0.56667,-4.5 -1.7,-6.3 -1.06667,-1.8 -2.2,-3.43333 -3.4,-4.9 -1.8,-2.2 -3.3,-4.13333 -4.5,-5.8 -1.13333,-1.66667 -2.03333,-3.16667 -2.7,-4.5 -0.66667,-1.4 -1.13333,-2.76667 -1.4,-4.1 -0.2,-1.4 -0.3,-2.93333 -0.3,-4.6 0,-3.73333 0.46667,-7 1.4,-9.8 1,-2.73333 2.26667,-5.1 3.8,-7.1 1.53333,-2 3.3,-3.63333 5.3,-4.9 2.06667,-1.26667 4.13333,-2.26667 6.2,-3 2.13333,-0.73333 4.2,-1.23333 6.2,-1.5 2,-0.26667 3.83333,-0.4 5.5,-0.4 1.93333,0 4.03333,0.2 6.3,0.6 2.26667,0.4 4.43333,1.1 6.5,2.1 2.2,0.93333 4.16667,2.26667 5.9,4 1.8,1.6 3.2,3.7 4.2,6.3 h 4 v 3.5 h -20.6 v -3.5 h 2.6 c -0.13333,-1 -0.46667,-2.06667 -1,-3.2 -0.46667,-1.13333 -1.16667,-2.16667 -2.1,-3.1 -0.86667,-1 -1.93333,-1.76667 -3.2,-2.3 -1.26667,-0.6 -2.8,-0.9 -4.6,-0.9 -2.73333,0 -4.86667,0.76667 -6.4,2.3 -1.6,1.53333 -2.8,3.36667 -3.6,5.5 -0.8,2.13333 -1.3,4.33333 -1.5,6.6 -0.2,2.33333 -0.3,4.3 -0.3,5.9 v 1 c 0.0667,0.33333 0.1,0.66667 0.1,1 1.8,-1.53333 3.83333,-2.76667 6.1,-3.7 2.26667,-1 4.86667,-1.5 7.8,-1.5 1.4,0 2.83333,0.2 4.3,0.6 1.53333,0.33333 2.96667,0.86667 4.3,1.6 1.46667,0.8 2.76667,1.8 3.9,3 1.13333,1.2 2,2.66667 2.6,4.4 h 3.4 z m 47.9,-1 -0.2,-4.8 c 0.46667,0 0.9,0.0333 1.3,0.1 h 1.2 c 2.73333,0 4.93333,-0.23333 6.6,-0.7 1.66667,-0.46667 2.93333,-1.13333 3.8,-2 0.93333,-0.93333 1.53333,-2.03333 1.8,-3.3 0.26667,-1.26667 0.4,-2.73333 0.4,-4.4 0,-2.2 -0.0667,-4.16667 -0.2,-5.9 -0.2,-1.73333 -0.53333,-3.23333 -1,-4.5 -0.53333,-1.2 -1.26667,-2.1 -2.2,-2.7 -1,-0.66667 -2.26667,-1 -3.8,-1 -0.66667,0 -1.5,0.1 -2.5,0.3 -0.93333,0.2 -1.83333,0.6 -2.7,1.2 -0.86667,0.6 -1.6,1.5 -2.2,2.7 -0.66667,1.26667 -1,2.9 -1,4.9 v 1 c 0.0667,0.26667 0.13333,0.5 0.2,0.7 0.0667,0.2 0.1,0.4 0.1,0.6 0.0667,0.2 0.1,0.5 0.1,0.9 0,0.4 -0.1,0.66667 -0.3,0.8 -0.0667,0.13333 -0.43333,0.2 -1.1,0.2 -2.93333,0 -5.23333,0.0667 -6.9,0.2 -1.6,0.0667 -2.8,0.16667 -3.6,0.3 -0.8,0.13333 -1.3,0.23333 -1.5,0.3 -0.2,0.0667 -0.43333,0.1 -0.7,0.1 -0.13333,0 -0.23333,-0.0667 -0.3,-0.2 v -1.5 c 0,-2.46667 0.43333,-4.56667 1.3,-6.3 0.93333,-1.8 2.1,-3.26667 3.5,-4.4 1.46667,-1.2 3.06667,-2.16667 4.8,-2.9 1.8,-0.66667 3.53333,-1.16667 5.2,-1.5 1.73333,-0.33333 3.3,-0.56667 4.7,-0.7 1.46667,-0.13333 2.6,-0.2 3.4,-0.2 3.13333,0 6.03333,0.4 8.7,1.2 2.6,0.73333 4.83333,1.8 6.7,3.2 1.86667,1.33333 3.33333,2.93333 4.4,4.8 1,1.8 1.5,3.76667 1.5,5.9 0,2.46667 -0.46667,4.5 -1.4,6.1 -1,1.6 -2.2,2.93333 -3.6,4 -1.4,1.06667 -2.9,1.9 -4.5,2.5 -1.6,0.53333 -3.06667,1 -4.4,1.4 l -0.7,0.2 v 1.5 c 1.26667,0.13333 2.83333,0.43333 4.7,0.9 1.93333,0.46667 3.76667,1.26667 5.5,2.4 1.73333,1.06667 3.2,2.53333 4.4,4.4 1.33333,1.93333 2,4.36667 2,7.3 0,2.26667 -0.43333,4.36667 -1.3,6.3 -0.8,2 -1.93333,3.7 -3.4,5.1 -1.4,1.46667 -3.13333,2.6 -5.2,3.4 -2.06667,0.86667 -4.3,1.3 -6.7,1.3 -1.6,0 -3.13333,-0.16667 -4.6,-0.5 -1.86667,-0.33333 -3.46667,-0.66667 -4.8,-1 -1.26667,-0.4 -2.4,-0.73333 -3.4,-1 -0.93333,-0.33333 -1.73333,-0.6 -2.4,-0.8 -0.6,-0.13333 -1.2,-0.2 -1.8,-0.2 -0.73333,0 -1.46667,0.36667 -2.2,1.1 -0.73333,0.66667 -1.1,2 -1.1,4 0,0.73333 0.0667,1.33333 0.2,1.8 0.0667,0.4 0.1,0.83333 0.1,1.3 v 0.7 c -0.0667,0.2 -0.33333,0.3 -0.8,0.3 h -2.1 c -0.33333,-0.0667 -0.6,-0.13333 -0.8,-0.2 -0.13333,-0.0667 -0.33333,-0.1 -0.6,-0.1 h -1.5 c -1,0 -1.73333,0.16667 -2.2,0.5 -0.53333,0.4 -1,0.6 -1.4,0.6 -0.6,0 -1.16667,-0.36667 -1.7,-1.1 -0.46667,-0.8 -0.7,-2.33333 -0.7,-4.6 0,-1.53333 0.2,-2.93333 0.6,-4.2 0.46667,-1.26667 1.1,-2.33333 1.9,-3.2 0.73333,-0.93333 1.63333,-1.66667 2.7,-2.2 1.06667,-0.53333 2.16667,-0.8 3.3,-0.8 1.53333,0 3.13333,0.33333 4.8,1 1.73333,0.66667 3.83333,1.4 6.3,2.2 2.46667,0.73333 4.26667,1.2 5.4,1.4 1.06667,0.0667 1.76667,0.1 2.1,0.1 2.73333,0 4.53333,-1.16667 5.4,-3.5 0.86667,-2.46667 1.3,-5.9 1.3,-10.3 0,-2.26667 -0.33333,-4.06667 -1,-5.4 -0.66667,-1.4 -1.5,-2.46667 -2.5,-3.2 -0.93333,-0.73333 -2,-1.23333 -3.2,-1.5 -1.06667,-0.26667 -2.06667,-0.4 -3,-0.4 z m 85.9,26.6 v -3.5 H 464 L 457.8,534 c -0.66667,3.13333 -1.66667,6.26667 -3,9.4 -1.26667,3.06667 -2.76667,5.86667 -4.5,8.4 -1.73333,2.46667 -3.66667,4.46667 -5.8,6 -2,1.53333 -4.13333,2.3 -6.4,2.3 -2.6,0 -4.8,-0.8 -6.6,-2.4 -1.8,-1.66667 -2.7,-4.16667 -2.7,-7.5 0,-2.2 0.33333,-4.53333 1,-7 0.73333,-2.4 1.66667,-4.83333 2.8,-7.3 1.13333,-2.46667 2.4,-4.9 3.8,-7.3 1.4,-2.4 2.76667,-4.66667 4.1,-6.8 1.06667,-1.66667 2.1,-3.16667 3.1,-4.5 1,-1.4 1.9,-2.7 2.7,-3.9 0.8,-1.26667 1.43333,-2.53333 1.9,-3.8 0.46667,-1.26667 0.7,-2.63333 0.7,-4.1 0,-0.4 -0.0333,-0.76667 -0.1,-1.1 v -1.2 h -6.4 v -3.5 h 25.8 v 3.5 h -6.6 l 15.3,52.3 h 5.7 v 3.5 z m -2.3,-32.9 -3.7,-13.2 c -1.86667,2.53333 -3.63333,5.13333 -5.3,7.8 -1.66667,2.66667 -3.13333,5.26667 -4.4,7.8 -1.33333,2.53333 -2.36667,4.96667 -3.1,7.3 -0.8,2.33333 -1.2,4.43333 -1.2,6.3 0,0.66667 0.0667,1.3 0.2,1.9 0.13333,0.6 0.4,1.13333 0.8,1.6 0.4,0.53333 0.9,0.96667 1.5,1.3 0.6,0.26667 1.36667,0.4 2.3,0.4 1.6,0 3.1,-0.76667 4.5,-2.3 1.46667,-1.46667 2.76667,-3.26667 3.9,-5.4 1.2,-2.2 2.16667,-4.5 2.9,-6.9 0.8,-2.46667 1.33333,-4.66667 1.6,-6.6 z m 76.7,32.9 v -3.5 h 5.4 c -1.6,-4.8 -2.83333,-9.06667 -3.7,-12.8 -0.93333,-3.73333 -1.73333,-7.2 -2.4,-10.4 -0.6,-3.26667 -1.16667,-6.4 -1.7,-9.4 -0.53333,-3 -1.23333,-6.16667 -2.1,-9.5 -1.33333,1.6 -2.66667,3.56667 -4,5.9 -1.33333,2.26667 -2.5,4.66667 -3.5,7.2 -1.06667,2.6 -1.93333,5.16667 -2.6,7.7 -0.66667,2.46667 -1,4.7 -1,6.7 0,1.06667 0.1,2.26667 0.3,3.6 l 0.6,3 c 0.2,0.6 0.66667,1.26667 1.4,2 0.8,0.66667 1.5,1.73333 2.1,3.2 0.13333,0.2 0.2,1.06667 0.2,2.6 v 2.7 c 0,0.66667 -0.33333,1.16667 -1,1.5 -0.6,0.26667 -1.26667,0.4 -2,0.4 -0.46667,0 -0.93333,-0.0333 -1.4,-0.1 -0.53333,-0.0667 -1.03333,-0.13333 -1.5,-0.2 -0.33333,-0.0667 -0.7,-0.1 -1.1,-0.1 -0.33333,-0.0667 -0.7,-0.1 -1.1,-0.1 -0.46667,0 -0.9,0.0333 -1.3,0.1 -0.46667,0 -0.93333,0.0333 -1.4,0.1 -0.26667,0.0667 -0.5,0.1 -0.7,0.1 h -0.7 c -1.33333,0 -2.2,-0.36667 -2.6,-1.1 -0.4,-0.8 -0.6,-1.9 -0.6,-3.3 0,-1.93333 0.13333,-3.73333 0.4,-5.4 0.26667,-1.73333 0.76667,-3.66667 1.5,-5.8 0.8,-2.13333 1.83333,-4.6 3.1,-7.4 1.33333,-2.8 3,-6.2 5,-10.2 0.66667,-1.33333 1.53333,-2.9 2.6,-4.7 1.06667,-1.86667 2.1,-3.73333 3.1,-5.6 1,-1.93333 1.83333,-3.76667 2.5,-5.5 0.73333,-1.73333 1.1,-3.16667 1.1,-4.3 0,-1 -0.33333,-1.6 -1,-1.8 -0.66667,-0.13333 -1.3,-0.2 -1.9,-0.2 h -5.7 v -3.5 h 27.4 v 3.5 h -5.1 c 0.4,2.8 0.8,5.36667 1.2,7.7 0.4,2.26667 0.8,4.43333 1.2,6.5 0.4,2 0.83333,3.96667 1.3,5.9 0.46667,1.93333 0.93333,3.9 1.4,5.9 0.66667,2.66667 1.23333,4.96667 1.7,6.9 0.46667,1.86667 0.86667,3.5 1.2,4.9 0.4,1.33333 0.7,2.46667 0.9,3.4 0.26667,0.93333 0.53333,1.76667 0.8,2.5 0.2,0.8 0.36667,1.5 0.5,2.1 0.26667,0.53333 0.46667,1.06667 0.6,1.6 0.2,0.53333 0.33333,1.1 0.4,1.7 0.2,0.53333 0.36667,1.2 0.5,2 h 6.1 v 3.5 z m 48.1,0 v -3.5 h 6.9 v -51.1 h -6.9 v -3.5 h 25.5 v 3.5 H 600 v 22.1 h 3.1 l 1.1,-2.3 c 0.53333,-1 1.1,-2.26667 1.7,-3.8 0.66667,-1.6 1.4,-3.33333 2.2,-5.2 0.86667,-1.8 1.8,-3.6 2.8,-5.4 1.06667,-1.86667 2.23333,-3.53333 3.5,-5 1.26667,-1.53333 2.7,-2.76667 4.3,-3.7 1.53333,-0.93333 3.23333,-1.4 5.1,-1.4 1.46667,0 2.8,0.13333 4,0.4 1.26667,0.33333 2.36667,0.7 3.3,1.1 -0.4,1.2 -0.76667,2.23333 -1.1,3.1 -0.33333,0.8 -0.6,1.63333 -0.8,2.5 -0.13333,0.73333 -0.23333,1.46667 -0.3,2.2 -0.0667,0.73333 -0.1,1.43333 -0.1,2.1 v 1.5 h -1.7 c -0.73333,-0.26667 -1.4,-0.53333 -2,-0.8 -0.6,-0.26667 -1.13333,-0.46667 -1.6,-0.6 -0.53333,-0.26667 -1.06667,-0.43333 -1.6,-0.5 -0.53333,-0.13333 -1.16667,-0.2 -1.9,-0.2 -1.33333,0 -2.53333,0.36667 -3.6,1.1 -1,0.73333 -2,1.8 -3,3.2 -1,1.46667 -2.06667,3.23333 -3.2,5.3 -1.13333,2.13333 -2.36667,4.56667 -3.7,7.3 0.26667,0.0667 0.46667,0.13333 0.6,0.2 l 0.8,0.2 c 1.06667,0.26667 2.3,0.63333 3.7,1.1 1.53333,0.33333 3.06667,0.9 4.6,1.7 1.6,0.8 3.16667,1.83333 4.7,3.1 1.6,1.26667 3.03333,2.9 4.3,4.9 1.26667,2 2.3,4.36667 3.1,7.1 0.8,2.8 1.23333,6.06667 1.3,9.8 h 5 V 559 H 612 v -3.5 h 3.3 c 0.0667,-1.46667 0.1,-2.83333 0.1,-4.1 0,-3.46667 -0.4,-6.63333 -1.2,-9.5 -0.8,-2.93333 -1.96667,-5.33333 -3.5,-7.2 -1.53333,-1.93333 -3.26667,-3.26667 -5.2,-4 -1.93333,-0.8 -3.76667,-1.23333 -5.5,-1.3 v 26.1 h 5.1 v 3.5 z m 102.4,2.2 c -0.26667,0 -0.56667,-0.0333 -0.9,-0.1 -0.33333,-0.2 -0.8,-0.46667 -1.4,-0.8 -0.46667,-0.4 -1.13333,-0.9 -2,-1.5 -0.73333,-0.66667 -1.7,-1.5 -2.9,-2.5 -2.4,-2.06667 -4.6,-4.03333 -6.6,-5.9 -2,-1.8 -3.7,-3.63333 -5.1,-5.5 -1.33333,-1.93333 -2.4,-4 -3.2,-6.2 -0.73333,-2.33333 -1.1,-4.93333 -1.1,-7.8 0,-3.26667 0.53333,-6.23333 1.6,-8.9 1.06667,-2.8 2.4,-5.33333 4,-7.6 1.6,-2.26667 3.33333,-4.26667 5.2,-6 1.93333,-1.86667 3.76667,-3.46667 5.5,-4.8 1.66667,-1.26667 3,-2.4 4,-3.4 1,-1.06667 2.1,-1.6 3.3,-1.6 0.8,0 1.56667,0.5 2.3,1.5 0.8,1 1.83333,2.1 3.1,3.3 1.6,1.6 3.36667,3.2 5.3,4.8 2,1.6 3.86667,3.4 5.6,5.4 1.73333,2 3.2,4.3 4.4,6.9 1.2,2.53333 1.8,5.53333 1.8,9 0,2.8 -0.36667,5.26667 -1.1,7.4 -0.73333,2.13333 -1.76667,4.2 -3.1,6.2 -1.33333,2 -3,4.03333 -5,6.1 -2,2 -4.26667,4.23333 -6.8,6.7 -1.06667,1 -1.96667,1.86667 -2.7,2.6 -0.66667,0.66667 -1.26667,1.2 -1.8,1.6 -0.53333,0.4 -0.96667,0.7 -1.3,0.9 -0.33333,0.13333 -0.7,0.2 -1.1,0.2 z m 4.1,-10.7 c 1.4,-0.53333 2.73333,-1.23333 4,-2.1 1.26667,-0.93333 2.36667,-1.96667 3.3,-3.1 1,-1.2 1.8,-2.43333 2.4,-3.7 0.6,-1.33333 0.9,-2.63333 0.9,-3.9 0,-1.33333 -0.3,-2.63333 -0.9,-3.9 -0.6,-1.33333 -1.43333,-2.66667 -2.5,-4 -0.93333,-1.4 -2.1,-2.83333 -3.5,-4.3 -1.33333,-1.53333 -2.76667,-3.16667 -4.3,-4.9 -1.6,-1.66667 -2.9,-3.06667 -3.9,-4.2 -0.93333,-1.13333 -1.73333,-2.06667 -2.4,-2.8 -0.66667,-0.8 -1.16667,-1.46667 -1.5,-2 -0.33333,-0.6 -0.6,-1.26667 -0.8,-2 -1.66667,0.2 -3.13333,0.76667 -4.4,1.7 -1.26667,0.86667 -2.3,1.9 -3.1,3.1 -0.86667,1.2 -1.5,2.46667 -1.9,3.8 -0.4,1.26667 -0.6,2.46667 -0.6,3.6 0,2.46667 0.76667,4.93333 2.3,7.4 1.6,2.4 3.56667,4.86667 5.9,7.4 2,2.13333 3.66667,3.83333 5,5.1 1.33333,1.26667 2.4,2.36667 3.2,3.3 0.86667,0.93333 1.53333,1.8 2,2.6 0.46667,0.8 0.73333,1.76667 0.8,2.9 z m 44.8,8.5 v -3.5 h 6.9 v -51.1 h -6.9 v -3.5 h 31.2 c 0.86667,0 1.8,-0.0333 2.8,-0.1 1.06667,-0.0667 2.06667,-0.13333 3,-0.2 0.93333,-0.0667 1.8,-0.16667 2.6,-0.3 0.86667,-0.13333 1.56667,-0.23333 2.1,-0.3 0.53333,-0.13333 1.06667,-0.2 1.6,-0.2 0.66667,0 1.3,0.2 1.9,0.6 0.6,0.4 0.9,1.26667 0.9,2.6 0,0.6 -0.16667,1.23333 -0.5,1.9 -0.33333,0.66667 -0.7,1.6 -1.1,2.8 -0.46667,1.2 -0.8,2.2 -1,3 -0.0667,0.73333 -0.2,1.63333 -0.4,2.7 l -0.5,3.6 c -0.0667,0.6 -0.3,1.06667 -0.7,1.4 -0.4,0.26667 -0.83333,0.4 -1.3,0.4 -0.73333,0 -1.23333,-0.16667 -1.5,-0.5 -0.33333,-0.4 -0.56667,-0.8 -0.7,-1.2 -0.53333,-1.66667 -1.03333,-3.26667 -1.5,-4.8 -0.4,-1.53333 -1.03333,-2.86667 -1.9,-4 -0.86667,-1.2 -2.1,-2.13333 -3.7,-2.8 -1.66667,-0.73333 -3.96667,-1.1 -6.9,-1.1 h -4.7 v 51.1 h 6.9 v 3.5 z m 94.8,2.2 c -0.26667,0 -0.56667,-0.0333 -0.9,-0.1 -0.33333,-0.2 -0.76667,-0.46667 -1.3,-0.8 l -2,-1.5 c -0.8,-0.66667 -1.76667,-1.5 -2.9,-2.5 -2.46667,-2.06667 -4.7,-4.03333 -6.7,-5.9 -2,-1.8 -3.66667,-3.63333 -5,-5.5 -1.4,-1.93333 -2.5,-4 -3.3,-6.2 -0.73333,-2.33333 -1.1,-4.93333 -1.1,-7.8 0,-3.26667 0.53333,-6.23333 1.6,-8.9 1.06667,-2.8 2.4,-5.33333 4,-7.6 1.6,-2.26667 3.33333,-4.26667 5.2,-6 1.93333,-1.86667 3.76667,-3.46667 5.5,-4.8 1.66667,-1.26667 3,-2.4 4,-3.4 1,-1.06667 2.1,-1.6 3.3,-1.6 0.8,0 1.56667,0.5 2.3,1.5 0.8,1 1.83333,2.1 3.1,3.3 1.6,1.6 3.36667,3.2 5.3,4.8 2,1.6 3.86667,3.4 5.6,5.4 1.73333,2 3.2,4.3 4.4,6.9 1.2,2.53333 1.8,5.53333 1.8,9 0,2.8 -0.36667,5.26667 -1.1,7.4 -0.73333,2.13333 -1.76667,4.2 -3.1,6.2 -1.33333,2 -3,4.03333 -5,6.1 -2,2 -4.26667,4.23333 -6.8,6.7 -1.06667,1 -1.96667,1.86667 -2.7,2.6 -0.66667,0.66667 -1.26667,1.2 -1.8,1.6 -0.46667,0.4 -0.9,0.7 -1.3,0.9 -0.33333,0.13333 -0.7,0.2 -1.1,0.2 z m 4.1,-10.7 c 1.4,-0.53333 2.73333,-1.23333 4,-2.1 1.26667,-0.93333 2.36667,-1.96667 3.3,-3.1 1,-1.2 1.8,-2.43333 2.4,-3.7 0.6,-1.33333 0.9,-2.63333 0.9,-3.9 0,-1.33333 -0.3,-2.63333 -0.9,-3.9 -0.6,-1.33333 -1.4,-2.66667 -2.4,-4 -1,-1.4 -2.2,-2.83333 -3.6,-4.3 -1.33333,-1.53333 -2.76667,-3.16667 -4.3,-4.9 -1.6,-1.66667 -2.9,-3.06667 -3.9,-4.2 -0.93333,-1.13333 -1.73333,-2.06667 -2.4,-2.8 -0.6,-0.8 -1.06667,-1.46667 -1.4,-2 -0.33333,-0.6 -0.63333,-1.26667 -0.9,-2 -1.66667,0.2 -3.13333,0.76667 -4.4,1.7 -1.26667,0.86667 -2.3,1.9 -3.1,3.1 -0.86667,1.2 -1.5,2.46667 -1.9,3.8 -0.4,1.26667 -0.6,2.46667 -0.6,3.6 0,2.46667 0.76667,4.93333 2.3,7.4 1.6,2.4 3.56667,4.86667 5.9,7.4 2,2.13333 3.66667,3.83333 5,5.1 1.33333,1.26667 2.4,2.36667 3.2,3.3 0.86667,0.93333 1.53333,1.8 2,2.6 0.46667,0.8 0.73333,1.76667 0.8,2.9 z m 71.1,8.5 v -3.5 h 5.4 c -1.6,-4.8 -2.83333,-9.06667 -3.7,-12.8 -0.93333,-3.73333 -1.73333,-7.2 -2.4,-10.4 -0.6,-3.26667 -1.16667,-6.4 -1.7,-9.4 -0.53333,-3 -1.23333,-6.16667 -2.1,-9.5 -1.33333,1.6 -2.66667,3.56667 -4,5.9 -1.33333,2.26667 -2.5,4.66667 -3.5,7.2 -1.06667,2.6 -1.93333,5.16667 -2.6,7.7 -0.66667,2.46667 -1,4.7 -1,6.7 0,1.06667 0.1,2.26667 0.3,3.6 l 0.6,3 c 0.13333,0.6 0.6,1.26667 1.4,2 0.8,0.66667 1.5,1.73333 2.1,3.2 0.13333,0.2 0.2,1.06667 0.2,2.6 v 2.7 c 0,0.66667 -0.33333,1.16667 -1,1.5 -0.6,0.26667 -1.26667,0.4 -2,0.4 -0.46667,0 -0.93333,-0.0333 -1.4,-0.1 -0.53333,-0.0667 -1.03333,-0.13333 -1.5,-0.2 -0.33333,-0.0667 -0.7,-0.1 -1.1,-0.1 -0.33333,-0.0667 -0.7,-0.1 -1.1,-0.1 -0.46667,0 -0.9,0.0333 -1.3,0.1 -0.46667,0 -0.93333,0.0333 -1.4,0.1 -0.26667,0.0667 -0.5,0.1 -0.7,0.1 h -0.7 c -1.33333,0 -2.2,-0.36667 -2.6,-1.1 -0.4,-0.8 -0.6,-1.9 -0.6,-3.3 0,-1.93333 0.13333,-3.73333 0.4,-5.4 0.26667,-1.73333 0.76667,-3.66667 1.5,-5.8 0.8,-2.13333 1.83333,-4.6 3.1,-7.4 1.33333,-2.8 3,-6.2 5,-10.2 0.66667,-1.33333 1.53333,-2.9 2.6,-4.7 1.06667,-1.86667 2.1,-3.73333 3.1,-5.6 1,-1.93333 1.83333,-3.76667 2.5,-5.5 0.73333,-1.73333 1.1,-3.16667 1.1,-4.3 0,-1 -0.33333,-1.6 -1,-1.8 -0.66667,-0.13333 -1.3,-0.2 -1.9,-0.2 h -5.7 v -3.5 h 27.4 v 3.5 h -5.1 c 0.4,2.8 0.8,5.36667 1.2,7.7 0.4,2.26667 0.8,4.43333 1.2,6.5 0.4,2 0.83333,3.96667 1.3,5.9 0.4,1.93333 0.86667,3.9 1.4,5.9 0.66667,2.66667 1.23333,4.96667 1.7,6.9 0.46667,1.86667 0.86667,3.5 1.2,4.9 0.4,1.33333 0.7,2.46667 0.9,3.4 0.26667,0.93333 0.53333,1.76667 0.8,2.5 0.2,0.8 0.36667,1.5 0.5,2.1 0.26667,0.53333 0.46667,1.06667 0.6,1.6 0.2,0.53333 0.33333,1.1 0.4,1.7 0.2,0.53333 0.36667,1.2 0.5,2 h 6.1 v 3.5 z m 48.1,0 v -3.5 h 6.9 v -51.1 h -6.9 v -3.5 h 26.7 v 3.5 h -6.9 v 20.5 c 1.06667,0.93333 2.26667,1.76667 3.6,2.5 1.46667,0.8 3,1.5 4.6,2.1 1.6,0.6 3.23333,1.06667 4.9,1.4 1.73333,0.33333 3.4,0.5 5,0.5 0.6,0 1.13333,-0.0333 1.6,-0.1 h 1.8 1.1 c 0.46667,0 0.96667,0.0333 1.5,0.1 0.46667,0.0667 0.86667,0.3 1.2,0.7 0.4,0.33333 0.7,0.86667 0.9,1.6 0.2,0.73333 0.3,1.73333 0.3,3 v 16.5 c 0,1.33333 -0.1,2.36667 -0.3,3.1 -0.2,0.8 -0.53333,1.4 -1,1.8 -0.4,0.4 -0.93333,0.63333 -1.6,0.7 -0.6,0.13333 -1.26667,0.2 -2,0.2 z m 19.7,-3.5 h 7.5 c 0.73333,0 1.43333,-0.0333 2.1,-0.1 0.73333,-0.0667 1.4,-0.23333 2,-0.5 0.66667,-0.33333 1.16667,-0.8 1.5,-1.4 0.4,-0.66667 0.6,-1.53333 0.6,-2.6 V 541 c 0,-1.2 -0.0667,-2.16667 -0.2,-2.9 0,-0.8 -0.16667,-1.4 -0.5,-1.8 -0.26667,-0.4 -0.73333,-0.73333 -1.4,-1 -0.53333,-0.26667 -1.3,-0.56667 -2.3,-0.9 -2.46667,-0.73333 -4.5,-1.63333 -6.1,-2.7 -1.53333,-1.06667 -2.6,-1.83333 -3.2,-2.3 z"/>
<g
     id="g999"
     style="fill:#F93"
     transform="translate(90,30)">
    <path
       id="path11728"
       d="m83.4 26.4h27.3l-22.1 16 8.4 25.9-22-16-22 16 8.4-25.9-22.1-16h27.3l8.4-25.9zm-13.8 4.2h-17.4l14.1 10.2-5.4 16.6 14.1-10.2 14.1 10.2-5.4-16.6 14.1-10.2h-17.4l-5.4-16.6z" />
    <path
       id="rect4165-6"
       d="m14.8 136.2l18.7 18.7 17.6-17.4c26.7 28.6 54.8 56.2 81.4 85 4 4 10.5 4 14.5 0 4-4 4-10.4 0-14.4-28.5-26.9-57.1-53.9-85.6-80.8l23.7-23.5-33-4.6z" />
    <path
       id="path4179-3"
       d="m75 75.5c15.4 8.6 27 21 33.9 33.9 7 13.1 10 26.8 10.1 37.8 0.1 22.4-18.3 40.6-40.8 40.6-12 0-22.8-5.2-30.2-13.4l-4.1 3.5q-1.1-0.4-2.2-0.4c-1.9 0-3.6 0.7-4.7 2.1-3 0.4-5.4 2.4-6.4 5.2-3.1 6.3-8.5 11.1-15.1 13.3q-0.1 0.1-0.2 0.1c-3 1.1-6.1 3.1-8.7 5.8-5.1 5.1-7.6 11.7-6.2 16.4q-0.2 0.6-0.2 1.2c0 2.2 1.7 3.9 3.9 3.9q0.8 0 1.5-0.3c4.7 1 11-1.6 15.9-6.5 2.8-2.8 4.9-6.1 5.9-9.4 2.3-6.5 7.2-11.9 13.5-14.9q0.2-0.1 0.4-0.2c2.1-1 3.6-2.9 4.2-5.1 9.6 11.3 24 18.5 40 18.9 29.6 0.6 51.6-21 52.6-52.2 0.6-15.7-5.5-35.9-19.4-52.5-10.6-12.6-26.1-23.2-43.7-27.8z" />
  </g>
</svg>
